<svg xmlns="http://www.w3.org/2000/svg" viewBox="0 0 346.01 346.01"><defs><style>.cls-1{fill:#d0e5ea;}.cls-2{fill:#a3bac1;}.cls-3{fill:#184754;}</style></defs><title>gear_from noun project</title><g id="Layer_3" data-name="Layer 3"><path class="cls-1" d="M169.72,360.09l-8.55,11c-5.69,7.29-7.54,17.62,0,24.75A266.56,266.56,0,0,0,204.44,429c6,3.69,14,2.81,19.44-1.37,5.78-4.46,7.72-11.35,6.27-18.39a100.11,100.11,0,0,0-27.92-50.78v24.75q13-14.72,26.92-28.63l-27.49-3.54,5.73,10.63,2.64,4.91,1.32,2.45q2.32,4.73-.49-3.18l2.39-8.83q2.18-2.31,0-.2a54.57,54.57,0,0,0-3.61,4.56,28.78,28.78,0,0,0-3,6.5,31.57,31.57,0,0,0-.58,16c1.79,8.23,7,15.29,13.47,20.53a123.67,123.67,0,0,0,46.07,23.12c14.08,3.77,28.42-12.63,19.76-25.71a354.93,354.93,0,0,0-35.29-45l-21.21,27.49c21.2,12.13,44.08,24.05,69.23,22.84,9.13-.44,17.94-7.73,17.5-17.5-.41-9.1-7.71-18-17.5-17.5a66.46,66.46,0,0,1-7.8,0c-.32,0-3.67-.39-1.95-.15s-1.61-.33-1.92-.39a94.23,94.23,0,0,1-14.94-4.49c-2.74-1,2,.92-.69-.27-1.08-.47-2.15-1-3.22-1.47-2.41-1.13-4.79-2.32-7.15-3.55-4.7-2.46-9.31-5.08-13.91-7.71a17.57,17.57,0,0,0-22.58,4.51c-5.42,7-4.61,16.51,1.37,23a271.31,271.31,0,0,1,29.82,37.92l19.76-25.71a111.25,111.25,0,0,1-13.18-4.34c2.85,1.16-2.11-1-2.17-1q-3.13-1.49-6.16-3.19c-3.55-2-6.9-4.21-10.25-6.51q-2.4-1.76,0,0-1.15-1-2.21-2-2-2.23-.13.15-1.26-2.3-.52-.44t-.14-.5q.26,3.6.15.58a6.31,6.31,0,0,1-1.07,3.7q-2.29,2.61-.06.4c5.43-5.52,8.08-13,6.19-20.74-1.15-4.7-4.06-9.13-6.35-13.37l-7.05-13.08c-5.38-10-19.75-11.3-27.49-3.54q-13.89,13.92-26.92,28.63c-6.22,7-7.08,17.79,0,24.75,1.53,1.5,3,3,4.44,4.64.51.58,3.15,3.81,1.32,1.43a76.71,76.71,0,0,1,6.5,10.12c.9,1.65,1.71,3.33,2.52,5q1.25,2.8.12.25.44,1.12.84,2.26a86,86,0,0,1,3.18,11.6l25.71-19.76A199.25,199.25,0,0,1,185.92,371V395.8l8.55-11c5.62-7.2,7.55-17.82,0-24.75-6.28-5.77-18.73-7.71-24.75,0Z" transform="translate(-122.22 -122.69)"/><path class="cls-1" d="M296.15,395.94c-13.31-.68-26.07,7.19-32.77,18.48a36.57,36.57,0,0,0-5.07,18.92c.09,5.22,1.45,11.33,5.47,15,3.23,3,7.17,4.68,11.22,6.21,21.81,8.23,47.5-1.7,59.57-21.14l-30.22-17.67a57.31,57.31,0,0,0-7.79,27.87c-.5,19.89,29.07,23.54,34.37,4.65,3.26-11.6,3.43-24.56-.46-36.05-.35-1-.79-2.06-1.17-3.09l-.57-1.52q-.71-2.71-.39-.75a27.2,27.2,0,0,1-3.81,9,5.31,5.31,0,0,1-2.62,1.3l1.25-.34c-1.15,1-2,0,.39.4-2.29-.41,1.21.16,2,.26a73.29,73.29,0,0,0,10,1c21.62.09,42.84-12.48,53-31.56,5.82-10.92.14-21.34-10.46-25.71-23.4-9.64-48.68.78-70,10.85-7.86,3.72-10.28,14.46-7.16,21.85,3,7.22,12.57,13.48,20.65,10.13a229.94,229.94,0,0,0,98.91-77.63l-32.61-8.83c0,2-.08,4-.19,6,.23-4.29-.35,1.76-.58,2.71-.46,1.95-1.12,3.81-1.69,5.72q-1.08,2.81.09,0-.61,1.36-1.3,2.69a55.36,55.36,0,0,1-3,5.15q-.83,1.25-1.72,2.44,1.82-2.36-.08-.06c-1.41,1.41-2.71,2.9-4.19,4.25q-1.11,1-2.27,1.94,2.35-1.83-.07-.09L394,375.79c12.68-14.54,18.06-35.1,11.17-53.61C403,316.31,399.23,311.69,393,310c-5.72-1.58-13-.1-17,4.5L358,334.79c-5.81,6.59-6.9,15.82-1.37,23,5.11,6.62,15.18,9.24,22.58,4.51l15.73-10.07c7.7-4.93,11.54-15.78,6.28-23.94-5-7.7-15.7-11.56-23.94-6.28l-15.73,10.07,21.21,27.49,17.92-20.33-29.25-7.72c.53,1.43.91,2.85,1.38,4.3,1,3.15.16-1.44.23.53,0,1.25.17,2.5.15,3.76,0,1-.91,5,0,1.34-.32,1.21-.52,2.45-.87,3.66-.43,1.47-1.1,3-.06.76-.64,1.38-1.41,2.64-2.13,4-1.71,3.14,1.67-1.69-.89,1.25-5.78,6.63-6.92,15.79-1.37,23,5,6.45,15.35,9.47,22.58,4.51,20.11-13.83,32.69-36.26,32.37-60.91-.1-7.41-5.34-15.16-12.85-16.87-8.14-1.85-15,1.48-19.76,8-.58.8-3.94,5.19-2.1,2.87-1.5,1.89-3,3.76-4.57,5.6q-4.4,5.21-9.15,10.12a212.67,212.67,0,0,1-20.21,18.32c-1,.81-1.71,1.28-.27.21-.86.64-1.71,1.28-2.58,1.92q-2.59,1.9-5.24,3.71-5.63,3.86-11.5,7.34t-12,6.56q-3.22,1.63-6.51,3.14l-2.93,1.32c-.57.25-4,1.67-1,.44l13.48,32c2.12-1,4.25-2,6.39-3q1.63-.73,3.27-1.43-2.14.93.79-.27a118.42,118.42,0,0,1,12.67-4.05c.67-.16,6.41-1.23,3-.77a43.76,43.76,0,0,1,6.76-.35q1.68,0,3.35.19-2.83-.4.31.18c2.19.69,4.33,1.27,6.46,2.14l-10.46-25.71c-.57,1.07-1.16,2.13-1.81,3.16-.2.31-2,2.84-.73,1.19,1.41-1.85-1.13,1.22-1.45,1.55-.67.7-1.39,1.35-2.08,2-3.1,3.09,1.64-.89-.41.46-1,.67-2,1.38-3,2-.83.5-1.7.93-2.54,1.42-2.82,1.63,1.42-.3-.48.3-2.09.66-4.15,1.29-6.27,1.85-3.26.86,1.7.09-.37.12-1,0-1.93.13-2.9.15-1.21,0-2.42-.09-3.63-.11,2,0,.79.13-.57-.06-4-.56-8.13-1.41-12.21-1.07-16.56,1.39-28.86,14.52-25.61,31.58.51,2.69,1.69,5.11,2.56,7.69.36,1.07.68,2.16,1,3.26.1.41.89,4.74.62,2.68-.23-1.77.06,1.58.07,1.9.05,1.42,0,2.83,0,4.25s-.33,2.25,0,.41c-.33,1.68-.72,3.3-1.18,5l34.37,4.65c0-.44.41-4.77.08-2.66s.71-2.65.69-2.58a28.37,28.37,0,0,1,1.06-3.17c-1.27,3,1.08-1.61,1.19-1.8,4.62-7.91,2.08-19.53-6.28-23.94a17.86,17.86,0,0,0-23.94,6.28q-.66,1.12-1.43,2.18,2.15-2.73.25-.56c-.9.77-5.13,3.65-1.38,1.44-1.5.88-3,1.75-4.5,2.58,3.94-2.15-.74.16-1.93.47q-1.26.33-2.54.57,3.76-.42.78-.13c-1.07,0-4.31.64-5.19,0q3.76.59.82.05-1.26-.27-2.5-.65-2.74-1,.55.39-1.18-.54-2.31-1.2l8,10.46.28,2q.1-2.49-.16-.3c.1,2.28-.18-.22.33-.9,1.21-1.6-1.39,2.84.12-.06,1.41-2.7-1.32.9.09-.18.32-.25,2.56-2.21.72-.85-2,1.49,1.15-.51,1.58-.77-1.23.75-2.45.67-.47.42-4.52.58-.41.19.62.24,9.16.47,17.91-8.38,17.5-17.5-.44-9.88-7.69-17-17.5-17.5Z" transform="translate(-122.22 -122.69)"/><path class="cls-1" d="M356.78,415.16c9.15,0,17.92-8,17.5-17.5s-7.69-17.5-17.5-17.5c-9.15,0-17.92,8-17.5,17.5s7.69,17.5,17.5,17.5Z" transform="translate(-122.22 -122.69)"/><path class="cls-1" d="M365.79,413c19-14,35-31.34,46.38-52.17,4.39-8,2.24-19.44-6.28-23.94-8.19-4.33-19.25-2.3-23.94,6.28-2.26,4.13-4.68,8.16-7.33,12.06-.78,1.14-1.59,2.27-2.39,3.4-.64.91-1.38,1.89-.26.44-1.52,2-3.13,3.88-4.77,5.76A138.21,138.21,0,0,1,357.38,375q-2.43,2.26-5,4.41-1.59,1.34-3.21,2.63c-2.39,1.89,3.18-2.35-1.08.78-7.35,5.41-11.77,15.42-6.28,23.94,4.69,7.28,16.06,12.09,23.94,6.28Z" transform="translate(-122.22 -122.69)"/><path class="cls-1" d="M396.7,348.12q1.67-.78,3.35-1.52,2.92-1.27.9-.4c2.27-.94,4.56-1.81,6.86-2.65q6.91-2.53,14-4.53t14.29-3.46q3.6-.73,7.23-1.33,1.81-.3,3.63-.56-2.42.32.82-.09c8.91-1.07,18.16-7.16,17.5-17.5-.73-11.43-8.89-19.44-20.36-20-6-.28-12.1.37-18.07.61l-38.75,1.54c-5.28.21-10.25.57-14.58,3.92a18.74,18.74,0,0,0-7.4,15,20.29,20.29,0,0,0,19.43,20c10.64.48,19.73-9.36,19.36-19.74-.4-11.27-8.93-18.61-19.73-19.5-9.15-.76-17.9,8.59-17.5,17.5.45,10.13,7.7,16.69,17.5,17.5l.82.07-8.83-2.39.67.43-6.28-6.28-1.31-10.4,4.5-7.72-.63.53,7.72-4.5-.94.14,13.48,1.76,4.35,4.27,2.39,8.83v-.94l-2.39,8.83.5-.8-15.11,8.67,30.8-1.22,14.9-.59,7.95-.32,4-.16q7.46.13-6.41-3.63l-5.13-12.37.06,1,17.5-17.5A227.5,227.5,0,0,0,379,317.89c-8.34,3.83-11.05,16.54-6.28,23.94,5.55,8.61,15,10.38,23.94,6.28Z" transform="translate(-122.22 -122.69)"/><path class="cls-1" d="M383.44,319.72c2.76-1.35,5.53-2.67,8.33-3.94q2.52-1.14,5.06-2.24c-1.68.72.34-.14.92-.38q9-3.64,18.14-6.72a296.28,296.28,0,0,1,36.52-9.56c9-1.77,15-13,12.22-21.53-3.1-9.58-11.88-14.11-21.53-12.22a313.26,313.26,0,0,0-77.33,26.36c-8.24,4-11.14,16.4-6.28,23.94,5.45,8.45,15.13,10.59,23.94,6.28Z" transform="translate(-122.22 -122.69)"/></g><g id="Layer_2" data-name="Layer 2"><path class="cls-2" d="M169.32,190.57a87,87,0,0,0-6.81,26.35c-.28,2.84,4.21,3.34,4.91.66a75.26,75.26,0,0,0,2.47-19.48c0-2.94-4-3.23-4.91-.66-1.1,3-7,19.34,1.47,18,2.66-.41,3.56-3,4.14-5.29C172.08,204.22,173,198.1,174,192c.48-3.12-4.23-4.53-4.82-1.33l-3.2,17.38c-.58,3.13,3.88,4.45,4.82,1.33l5.06-16.71-4.91-.66a85.21,85.21,0,0,1-5.33,23.57l4.82,1.33a97.05,97.05,0,0,1,7.11-24.84L173,190.19l-5.85,25.13c-.73,3.13,4,4.45,4.82,1.33a133.43,133.43,0,0,1,6.46-18.93l-4.66-1.26a51.88,51.88,0,0,1-5.92,24.16l4.57,1.93,7.27-30.65c.74-3.13-4.07-4.46-4.82-1.33l-6.17,25.87c-.75,3.16,3.74,4.33,4.82,1.33a183.92,183.92,0,0,0,8.24-31.45c.53-3.12-4.14-4.52-4.82-1.33l-7.81,36.28c-.67,3.13,3.92,4.44,4.82,1.33l12.34-42.41-4.82-1.33q-5,21.38-8.83,43a2.5,2.5,0,0,0,4.82,1.33,227.42,227.42,0,0,0,10.73-41.67c.49-3.1-3.94-4.5-4.82-1.33a368.88,368.88,0,0,0-8.87,40.6c-.5,3.1,4,4.51,4.82,1.33q6-22.31,11.32-44.8c.74-3.13-4.07-4.46-4.82-1.33a491.22,491.22,0,0,0-9.41,50.87c-.37,2.8,4.3,3.39,4.91.66l10.87-48.45-4.82-1.33-7.9,44.7c-.55,3.13,3.82,4.44,4.82,1.33a271.14,271.14,0,0,0,10.65-46.84c.42-3.1-4.23-4.55-4.82-1.33l-9.21,50.48c-.57,3.12,4,4.49,4.82,1.33l12.44-49-4.82-1.33L182.2,227a2.5,2.5,0,0,0,4.82,1.33,573.57,573.57,0,0,0,17.33-58.71,2.51,2.51,0,0,0-4.57-1.93c-9.29,14.6-11.77,31.71-14,48.54-.4,3.06,3.94,3,4.91.66a244.13,244.13,0,0,0,15.72-54.7c.36-2.21-2.37-4.52-4.18-2.43a44.23,44.23,0,0,0-10.86,26.18c-.16,2.17,2.84,3.29,4.27,1.77,3-3.21,10.62-14,4.52-17.62s-11.26,6.79-12.69,10.94c-.91,2.63,2.43,3.79,4.18,2.43A65.74,65.74,0,0,0,209.07,163l-2.82,1.15c1.09.38-8.31,24.92-9.25,27.53s3.17,4.33,4.57,1.93a110.4,110.4,0,0,0,11.66-28.68c.66-2.63-3.4-4.62-4.57-1.93a143.76,143.76,0,0,0-8.73,26.34c-1.43,6.46-4.45,15.35.29,21a2.52,2.52,0,0,0,3.54,0,37.74,37.74,0,0,0,10.66-26.45,2.53,2.53,0,0,0-4.27-1.77A69.46,69.46,0,0,0,190.5,222.6c-.39,3,4,3.08,4.91.66q8.38-21.88,14.61-44.47c.87-3.17-3.68-4.26-4.82-1.33a366,366,0,0,0-15,47.94,2.52,2.52,0,0,0,4.18,2.43c6.21-5.87,9.24-13.84,12.06-21.72a207.13,207.13,0,0,0,8-29.41,2.5,2.5,0,0,0-4.82-1.33A224.82,224.82,0,0,0,197,216.92a2.51,2.51,0,0,0,4.57,1.93,64.11,64.11,0,0,0,11.51-50.16l-4.18,2.43,8.3,9.82c1.88,2.23,5.25-.62,3.93-3a21.75,21.75,0,0,0-6.28-7.1l-2.52,4.32,8.41,5.44c2,1.29,5-1.39,3.42-3.42a24.18,24.18,0,0,0-8.67-7.37c-2.39-1.2-5.32,2-3,3.93l13.66,11.58c2,1.7,5.66-.54,3.93-3-2.74-3.93-7.51-7.06-12.4-4.8a7.82,7.82,0,0,0-3.66,10.61,2.54,2.54,0,0,0,3.42.9,11.4,11.4,0,0,0,6.37-10.4,2.52,2.52,0,0,0-3.76-2.16,14.42,14.42,0,0,0-7.17,13,2.53,2.53,0,0,0,3.76,2.16,13.56,13.56,0,0,0,5.21-4.14c2-2.5-1.55-6.07-3.54-3.54a10.9,10.9,0,0,1-4.2,3.36l3.76,2.16a9.4,9.4,0,0,1,4.69-8.68l-3.76-2.16a6.44,6.44,0,0,1-3.89,6.08l3.42.9q-1.31-2.64,2.82-3.84a6.17,6.17,0,0,1,4.61,3.07l3.93-3L216,170.17l-3,3.93a18.82,18.82,0,0,1,6.88,5.58l3.42-3.42-8.41-5.44c-2.76-1.79-5,2.44-2.52,4.32a15.82,15.82,0,0,1,4.49,5.3l3.93-3-8.3-9.82c-1.76-2.08-4.59.22-4.18,2.43a59.23,59.23,0,0,1-11,46.3l4.57,1.93a224.82,224.82,0,0,1,12.69-41.53l-4.82-1.33a208,208,0,0,1-6.82,25.91c-2.75,8.17-5.55,16.94-12,23l4.18,2.43a366,366,0,0,1,15-47.94l-4.82-1.33q-6.23,22.58-14.61,44.47l4.91.66a63.94,63.94,0,0,1,18.19-36.95l-4.27-1.77a32.48,32.48,0,0,1-9.19,22.91h3.54c-2.4-2.87-.51-8.52.09-11.72s1.34-6.5,2.19-9.71A137.1,137.1,0,0,1,213,165.5l-4.57-1.93a105.56,105.56,0,0,1-11.16,27.49l4.57,1.93c2.86-7.92,6.06-15.81,8.6-23.84,1.2-3.8,1.63-8.27-2.84-9.84a2.52,2.52,0,0,0-2.82,1.15,62.18,62.18,0,0,1-16.65,19.46l4.18,2.43c.37-1.08,3.66-8.17,4.6-6.41s-3.73,7.09-4.79,8.23l4.27,1.77a38.49,38.49,0,0,1,9.4-22.65l-4.18-2.43a244.13,244.13,0,0,1-15.72,54.7l4.91.66c2.11-15.94,4.52-32.19,13.31-46l-4.57-1.93A573.57,573.57,0,0,1,182.2,227l4.82,1.33,11.1-49.9c.7-3.13-4-4.46-4.82-1.33l-12.44,49,4.82,1.33,9.21-50.48-4.82-1.33a271.14,271.14,0,0,1-10.65,46.84l4.82,1.33,7.9-44.7c.55-3.12-4.11-4.51-4.82-1.33l-10.87,48.45,4.91.66a478.69,478.69,0,0,1,9.23-49.54L185.77,176q-5.31,22.49-11.32,44.8l4.82,1.33a368.88,368.88,0,0,1,8.87-40.6l-4.82-1.33a227.42,227.42,0,0,1-10.73,41.67l4.82,1.33q3.82-21.62,8.83-43c.73-3.13-3.92-4.43-4.82-1.33l-12.34,42.41,4.82,1.33,7.81-36.28L176.91,185a183.92,183.92,0,0,1-8.24,31.45l4.82,1.33,6.17-25.87-4.82-1.33-7.27,30.65c-.63,2.66,3.21,4.53,4.57,1.93a57.58,57.58,0,0,0,6.6-26.69c0-2.3-3.64-3.64-4.66-1.26a141.89,141.89,0,0,0-7,20.12l4.82,1.33,5.85-25.13c.61-2.61-3.38-4.64-4.57-1.93a101.63,101.63,0,0,0-7.61,26,2.5,2.5,0,0,0,4.82,1.33,89.86,89.86,0,0,0,5.51-24.9c.23-2.89-4.12-3.28-4.91-.66l-5.06,16.71,4.82,1.33L174,192l-4.82-1.33c-.84,5.43-1.81,10.84-3,16.22-.19.86-1.42,3.41.13,2.43,1.13-.71,1-1.72,1.24-3a55,55,0,0,1,2.25-7.6l-4.91-.66a70.07,70.07,0,0,1-2.29,18.16l4.91.66a79.14,79.14,0,0,1,6.13-23.83c1.26-2.92-3-5.47-4.32-2.52Z" transform="translate(-122.22 -122.69)"/><path class="cls-2" d="M158.16,305.77q-2.43,1.57,1.09-.18a7.94,7.94,0,0,1,4.69.05q-2.73-.81.78.5-2.41-1.52.57.56,2,3,.52.64,1,2.61.15-.3.36,3,.2-.12.21-2.78,0-.92c-.16,1.75.81-3.42,1-4.08.63-2.28,1.41-4.51,2.12-6.76a74.87,74.87,0,0,0,3.22-16.66c.83-10.37-12-21.14-22.15-16.87l-6.16,2.59,9.3,33.75A68.88,68.88,0,0,1,165,294.3c5-1.14-2.89,0,2.21-.32,2.32-.13,4.6-.18,6.93-.1l-17.5-17.5.4,32.31h35a132,132,0,0,1,.44-15.86c.13-1.39.27-2.77.44-4.15-.33,2.58,0,.09.23-1.13q.63-3.71,1.48-7.37a130,130,0,0,1,4.81-16c.39-1,.81-2.08,1.21-3.12-1.07,2.78.3-.68.54-1.2q1.73-3.8,3.71-7.49a125.89,125.89,0,0,1,8.36-13.49c.65-.91,1.31-1.8,2-2.7,3-4-1.15,1.51.62-.82,2.19-2.88,4.46-5.71,6.59-8.63,7-9.64,12.39-21.15,11.65-33.35l-17.5,17.5c11.67,1.45,23.65-1.44,33.89-7.08,4.33-2.38,8.42-5.16,12.76-7.53,2.27-1.24-1.95.56.26,0,1.15-.3,2.28-.65,3.43-.92,2.08-.5,4.19-.9,6.25-1.5,13.15-3.81,22.23-13.21,23.66-27,1.16-11.23-5.14-23.26-15.16-28.5v30.22c3.08-1.51,1-.5.29-.23,1-.39,2-.74,3.08-1.05,1.83-.56,3.69-.9,5.55-1.31,2.63-.58-2.48-.1.2,0,1.07.05,2.18-.12,3.26-.12.82,0,1.63,0,2.45,0s5.17,1,1.82.12c1.85.48,3.7.81,5.53,1.39.43.13,3.59,1.33,1.73.54-1.68-.71.66.39.8.43l1.33.79-5-9.23c-.38-3.67.93-4.26,2.54-6.13,2.78-3.24.85.4.07-.12l1.33-.56q-1.11.38-2.25.67c-9.46,2.6-18.44,5.6-27,10.52-8,4.61-15.57,10.14-23,15.64-30.72,22.66-59.37,49.12-74.49,84.94a122.29,122.29,0,0,0-8.71,65.83c1,7.21,9.95,13.16,16.87,12.85,7.31-.33,15.35-5.14,16.87-12.85,3.41-17.26,9.73-28.43,18.29-44.23,7.19-13.26,14.49-26.52,23.14-38.91,1.06-1.51,2.14-3,3.23-4.49,1.92-2.64-.95,1.09,1.1-1.44,2.46-3,5-6,7.66-8.85,2.48-2.64,5.07-5.17,7.78-7.57,1.35-1.2,2.75-2.34,4.14-3.5-2.39,2,1.23-.86,2.05-1.44a93.86,93.86,0,0,1,9.58-5.83c1.8-1,3.63-1.84,5.48-2.68-.34.15-2.05.83-.18.06,1.34-.55,2.7-1.06,4.07-1.55A160.16,160.16,0,0,1,315,204c4.62-.9,9.26-1.66,13.91-2.35q3.49-.52,7-1l2.61-.36c1.78-.23-1.08-.69.55,0,2.1.87-.93-.74-1.31-.86-2.16-.66,0,0,.63.5,1.86,1.48-2.22-2.19-.58-.41a20.57,20.57,0,0,0,1.92,1.66c4.48,3.77,8.8,6.91,14.6,8.38,8.86,2.24,19.4-2.87,21.53-12.22,2.07-9.09-2.73-19.13-12.22-21.53-3-.75.32.27.79.47-.89-.39-2.38-2,.53.56-1.11-1-2.22-2-3.36-2.89-4.33-3.57-8.8-6.8-14.43-7.95-10.24-2.09-21.67,1-31.89,2.59-18.47,3-36.87,7.65-53.27,16.93-30,16.94-49,47-65.15,76.39-10.35,18.84-21.39,38.21-25.6,59.53h33.75c.43,3.06.05.19,0-.38-.08-1.12-.18-2.24-.24-3.36q-.2-3.78-.08-7.56c.07-2.24.36-4.47.44-6.7.1-2.85-.46,2.47,0-.35.23-1.38.45-2.77.72-4.15A111.3,111.3,0,0,1,209.46,285c.72-2.15,1.51-4.27,2.33-6.38,1.05-2.68-1,2.1.22-.53.58-1.29,1.18-2.59,1.8-3.86a134.8,134.8,0,0,1,7-12.65q1.81-2.88,3.75-5.66,1-1.41,2-2.8c.53-.72,2.39-3.11.92-1.26a193.67,193.67,0,0,1,19.94-21.42q5.38-5,11-9.71,2.66-2.22,5.37-4.38l2.72-2.15q1.42-1.11-.11.09l1.38-1c7.9-5.86,15.79-11.82,24.19-17,2.23-1.36,4.49-2.66,6.82-3.86q1.54-.79,3.12-1.52c2.63-1.22-2.12.74.61-.24,4.62-1.66,9.48-2.45,14.09-4.1,13.71-4.9,24.34-18.07,20-33.27s-22.19-20.43-36.14-22.06c-12.69-1.49-25.19,1.47-36.56,7-11.65,5.71-11.18,24.37,0,30.22q2.45,1.4-.73-.84,1.52,1.65.06,0c-.69-1.46-1.78-4.62-1.06-1.31q.44,2-.28-1.81-.13,2.92.22-1.27l1-2.07q-1.42,2.4.77-.78,2.42-1.65.81-.67t1.08-.33c-1.35.42-2.68.83-4.05,1.17a93.76,93.76,0,0,0-9.07,2.38c-7.48,2.67-13.85,7.05-20.66,11-3.91,2.26,2.45-.47-1.94.88-1.61.5-3.22.92-4.86,1.29,3.37-.76-1.16.1-2,.12a44.38,44.38,0,0,1-6.69-.39c-9-1.12-18,8.93-17.5,17.5.08,1.27,0,2.53,0,3.79,0,2.13,1.09-3.31-.27.48-.34.94-.6,1.9-1,2.84,1.22-3.24-.15,0-.52.65a68.29,68.29,0,0,1-4.22,6.63c-.77,1.09-1.57,2.15-2.36,3.22s-1.26,1.68-.18.25c-7.16,9.4-13.89,18.7-18.95,29.44a149.27,149.27,0,0,0-14.64,68c.27,9.14,7.86,17.93,17.5,17.5,9.39-.42,17.62-7.69,17.5-17.5l-.4-32.31a17.83,17.83,0,0,0-17.5-17.5,71.73,71.73,0,0,0-30,5.32c-8.4,3.54-15.4,11.72-12.22,21.53,2.61,8.07,12.49,16,21.53,12.22l6.16-2.59-22.15-16.87c.26-3.22-.3,1.56-.48,2.27-.43,1.71-1,3.4-1.49,5.09-1,3.29-2.2,6.55-2.91,9.92-1.83,8.67-2.06,17.41,1.44,25.69,6.46,15.3,27,25,41.81,14.53,7.45-5.29,11.71-15.51,6.28-23.94-4.76-7.39-16-11.95-23.94-6.28Z" transform="translate(-122.22 -122.69)"/><path class="cls-2" d="M415.89,184.2c-24.56-4.36-50-.34-74.62,1.6-25,2-50.09,4.33-74.4,10.56-8.87,2.27-15.1,12.64-12.22,21.53,3,9.16,12,14.66,21.53,12.22,22.94-5.88,41.38-7.44,65.1-9.31q16.52-1.3,33-2.57c5.69-.44,11.39-.9,17.1-1,2.85-.07,5.7-.06,8.54.08a46.64,46.64,0,0,1,6.63.67c9,1.59,19.29-2.42,21.53-12.22,1.94-8.53-2.58-19.82-12.22-21.53Z" transform="translate(-122.22 -122.69)"/><path class="cls-2" d="M419.71,183.16c-10.53-15.73-30.47-24.21-48.94-17.86-8.64,3-15.26,12.14-12.22,21.53,2.77,8.56,12.26,15.41,21.53,12.22,1.09-.38,2.23-.61,3.32-1,2-.65-2.64-.15-.55.14s2.46.1.17-.3c1.12.2,2.25.67,3.37.8,2.11.26-2.14-1.32-.32-.23,1,.58,2,1.2,3,1.73-1.15-.6-1.88-1.43-.32-.14,3.1,2.56-1.49-2.61.75.74,5.08,7.59,15.66,11.62,23.94,6.28,7.57-4.88,11.73-15.81,6.28-23.94Z" transform="translate(-122.22 -122.69)"/><path class="cls-2" d="M214.11,299.71c-8.32,1.21-16,6.42-21.79,12.25-2.24,2.24-4.22,4.72-6.26,7.15-1,1.24-2.08,2.49-3.18,3.68-.46.5-5.13,4.7-2.41,2.66-7.29,5.48-11.81,15.37-6.28,23.94,4.65,7.21,16.12,12.16,23.94,6.28,6.19-4.65,10.78-9.73,15.81-15.55,1-1.17,2-2.32,3.13-3.41.61-.6,4-3.28,1-1.19.37-.26,3.81-2.5,1.77-1.32-1.57.91,2.65-.61,3.53-.74,9.09-1.32,14.88-13.31,12.22-21.53-3.22-9.95-11.78-13.64-21.53-12.22Z" transform="translate(-122.22 -122.69)"/></g><g id="Layer_1" data-name="Layer 1"><path class="cls-3" d="M318.81,122.69a23.71,23.71,0,0,1,23.59,23.59v16.34A140.11,140.11,0,0,1,356,168.15l11.55-11.55a23.64,23.64,0,0,1,33.3,0l33.3,33.3a23.79,23.79,0,0,1,0,33.42l-11.55,11.55a139.57,139.57,0,0,1,5.65,13.64h16.34a23.71,23.71,0,0,1,23.59,23.59v47.18a23.71,23.71,0,0,1-23.59,23.59H428.17a140.85,140.85,0,0,1-5.53,13.52l11.55,11.55a23.79,23.79,0,0,1,0,33.42l-33.3,33.3a23.64,23.64,0,0,1-33.3,0L356,423.11a140.13,140.13,0,0,1-13.64,5.53V445.1a23.71,23.71,0,0,1-23.59,23.59H271.63A23.71,23.71,0,0,1,248,445.1V428.64a140.26,140.26,0,0,1-13.52-5.53L223,434.66a23.64,23.64,0,0,1-33.3,0l-33.42-33.3a23.79,23.79,0,0,1,0-33.42l11.67-11.67a141.67,141.67,0,0,1-5.65-13.39H145.81a23.71,23.71,0,0,1-23.59-23.59V272.1a23.71,23.71,0,0,1,23.59-23.59h16.46A140.69,140.69,0,0,1,167.93,235l-11.67-11.67a23.79,23.79,0,0,1,0-33.42l33.42-33.3a23.64,23.64,0,0,1,33.3,0l11.55,11.55A140.19,140.19,0,0,1,248,162.62V146.28a23.71,23.71,0,0,1,23.59-23.59h47.18Zm0,15.73H271.63a7.68,7.68,0,0,0-7.86,7.86V167.9a8.08,8.08,0,0,1-5.53,7.5,124.76,124.76,0,0,0-21.87,9,8.09,8.09,0,0,1-9.22-1.35l-15.24-15.24a7.75,7.75,0,0,0-11.18,0l-33.42,33.3a7.61,7.61,0,0,0,0,11.06l15.36,15.36a8.09,8.09,0,0,1,1.47,9.34,124.47,124.47,0,0,0-9.22,21.75,8.09,8.09,0,0,1-7.5,5.65H145.81a7.68,7.68,0,0,0-7.86,7.86v47.18a7.68,7.68,0,0,0,7.86,7.86h21.63a8.08,8.08,0,0,1,7.5,5.53,125.65,125.65,0,0,0,9.22,21.87,8.09,8.09,0,0,1-1.47,9.22l-15.36,15.36a7.61,7.61,0,0,0,0,11.06l33.42,33.3a7.75,7.75,0,0,0,11.18,0l15.24-15.24a8.09,8.09,0,0,1,9.22-1.35,124.75,124.75,0,0,0,21.87,9,8.09,8.09,0,0,1,5.53,7.62V445.1a7.68,7.68,0,0,0,7.86,7.86h47.18a7.68,7.68,0,0,0,7.86-7.86V423.48a8.09,8.09,0,0,1,5.53-7.62,124.94,124.94,0,0,0,22-9,8.09,8.09,0,0,1,9.22,1.35l15.24,15.24a7.75,7.75,0,0,0,11.18,0l33.3-33.3a7.61,7.61,0,0,0,0-11.06l-15.24-15.24a8.09,8.09,0,0,1-1.35-9.22,124.92,124.92,0,0,0,9-22,8.09,8.09,0,0,1,7.5-5.53h21.63a7.68,7.68,0,0,0,7.86-7.86V272.1a7.68,7.68,0,0,0-7.86-7.86H423a8.11,8.11,0,0,1-7.5-5.65,123.65,123.65,0,0,0-9-21.87,8.09,8.09,0,0,1,1.35-9.34l15.24-15.24a7.61,7.61,0,0,0,0-11.06l-33.3-33.3a7.75,7.75,0,0,0-11.18,0L363.41,183a8.09,8.09,0,0,1-9.22,1.35,124.91,124.91,0,0,0-22-9,8.09,8.09,0,0,1-5.53-7.5V146.28a7.68,7.68,0,0,0-7.86-7.86Zm-23.59,78.64a78.64,78.64,0,1,1-78.64,78.64A78.76,78.76,0,0,1,295.22,217.05Zm0,15.73a62.91,62.91,0,1,0,62.91,62.91A62.79,62.79,0,0,0,295.22,232.78Z" transform="translate(-122.22 -122.69)"/></g></svg>