<svg xmlns="http://www.w3.org/2000/svg" viewBox="0 0 346.01 346.01"><defs><style>.cls-1{fill:#feffff;}.cls-2{fill:#d0e5ea;}.cls-3{fill:#a3bac1;}.cls-4{fill:#184754;}</style></defs><title>gear_outline from noun project_updated</title><g id="Layer_4" data-name="Layer 4"><path class="cls-1" d="M234.21,261.06l-.3-5q1.13-2.78-.25,0a33.41,33.41,0,0,0-2.19,4.17,56.73,56.73,0,0,0-4.24,11.67,70.18,70.18,0,0,0-.51,26.77c2.22,14.12,8.88,29.35,19.5,39.18,12.5,11.58,29.49,16.71,46.15,18.14,16.48,1.41,32.62-2.91,45.08-14,24.1-21.36,23.06-59.3,5-84s-50.41-37.85-79-22.64C249,243,240.29,257.61,237.71,273.4c-2.66,16.27-3.6,33.19,4.6,48.12,6.86,12.49,19.43,22.89,32,29.23,15.85,8,34,10.71,50.24,2.09,12.57-6.67,24.92-20.07,31.81-32.39,8.3-14.82,8.92-32.66,2.94-48.43-5.73-15.11-15.74-28.6-26.84-40.23-11.29-11.84-28-23.13-45-17.42-9,3-14.4,10.14-19.58,17.59A149.86,149.86,0,0,0,257.13,250c-7.37,14.61-13.34,31.67-8.55,48.1s18.21,26.07,33.21,32.25c13.66,5.63,28.47,8.13,43.12,5.58,33.4-5.82,46.8-41.88,41.33-72-5.7-31.45-38.7-48.57-66.84-55.9-15.59-4.06-33.72-6.77-48.07,2.45-13.51,8.68-20.22,25.3-24,40.27-7.43,29.28-1.84,63.68,22.35,83.89,25,20.87,65.77,21.31,85.45-7.33,19-27.59-.47-63-20.45-83.69-11.94-12.39-28.21-22.82-46.16-18.35-15.4,3.83-27,17.38-33.7,31.11-7,14.31-10.78,29.82-12.72,45.58-2.15,17.48,1.64,33.72,9.5,49.34,7,13.84,17.4,25.88,32.44,31,7.44,2.52,15.72,3.2,23.53,3.68,8.47.52,17-1.2,24.16-5.86,12.72-8.27,23.25-21.66,30.05-35.07a148.26,148.26,0,0,0,8-19.7c1.08-3.19,2.11-6.41,3.27-9.57.08-.21,2.18-5.28.73-2a58.53,58.53,0,0,1,3-5.95c.8-1.36,1.71-2.62,2.58-3.93,2.75-4.13-2.18,2.55,1-1.31,2.57-3.12,5.09-6.29,7.5-9.53a49,49,0,0,0,9-18.69l-32,4.18q1.34,2.79.37.33.61,1.55,1.1,3.14c.23.76,1.29,7.11,1,3.51a47.67,47.67,0,0,1,.06,6.65c.17-3.51-.55,2.48-.8,3.36s-.59,1.91-.94,2.84q1.24-2.8,0-.07c-1,1.74-2,3.46-3.1,5.13,2.16-3.15-1.53,1.56-2.13,2.14s-1.46,1.36-2.23,2q2.38-1.78-.07-.06L362,331.39q10.27-16.2,20-32.73c7.25-12.32,15.43-24.7,12.49-39.68-2.55-13-13.56-22.3-24.68-28.25-4.87-2.6-10-4.73-14.91-7.18-2.21-1.1-4.39-2.25-6.5-3.53-1.16-.71-2.33-1.43-3.43-2.24l.94.74q-4.29-4.34,1.88,6.09L335,241.48c-2.33.38-2.3-.14-.42.82-2.29-1.16,1.89.8,2.37,1,2.86,1.32,5.71,2.66,8.52,4.09s5.57,2.94,8.23,4.62c1.32.83,2.6,1.71,3.88,2.6-2.95-2.08,1.26,1.12,1.83,1.65,1.12,1,2.09,2.28,3.21,3.3q1.2,1.41-.32-.54.7,1,1.33,2a48.66,48.66,0,0,1,2.4,4.25c.26.51,2.18,4.66,1.49,3.11s1.1,2.67,1.32,3.21c1,2.4,2,4.81,3,7.19a60.78,60.78,0,0,0,5,9.3c5.08,7.6,15.67,11.61,23.94,6.28,7.58-4.88,11.72-15.8,6.28-23.94a54.31,54.31,0,0,1-3.3-5.6c-.28-.56-2.9-6.49-1.56-3.28-1.85-4.41-3.56-8.9-5.66-13.19a58.56,58.56,0,0,0-16-19.78,111.37,111.37,0,0,0-21.76-13.44c-4.34-2.08-8.76-4.21-13.26-5.9-6.68-2.51-13-2.6-19.92-1.47-7.8,1.27-12.43,9.76-12.85,16.87-.86,14.8,13.54,23.84,25.18,29.53,4.71,2.3,9.54,4.35,14.17,6.82,2.17,1.16,4.18,2.55,6.3,3.77,1.47.85-1.39-1.69.61.58.33.38,2.75,3.46,1.6,1.62-1.36-2.19.92,2.54-.07,0-.67-1.76-.07,2.31-.3-.87-.12-1.65.36-1.5-.19.16-1.42,4.24.92-.84-.51,1.2-3.31,4.73-5.84,10.3-8.78,15.28q-9.27,15.69-19,31.08c-4,6.29-2.8,16.12,2.74,21.21s14.66,7.22,21.21,2.74c25.4-17.38,33.78-49.42,19.37-76.87-6.82-13-28.85-10.41-32,4.18-.26,1.22-.67,2.38-1,3.59-.57,2.42,2-3.12-.35.51-1.21,1.9-2.4,3.77-3.7,5.62-1.68,2.41,2.57-3.09-.55.67-.65.79-1.29,1.59-1.93,2.39-2.36,3-4.74,5.91-6.9,9-6.61,9.46-9.81,20.84-13.54,31.63-.46,1.33-.95,2.64-1.42,4-1.15,3.24-.42,1.2-.11.48a77.1,77.1,0,0,1-3.68,7.43q-1.81,3.26-3.9,6.35c-.77,1.15-1.56,2.28-2.39,3.38,1.78-2.35-1,1.16-1.43,1.62q-2.18,2.5-4.54,4.83c-1.16,1.14-2.36,2.21-3.56,3.3-.72.66-2.5,1.37-.11.1-.9.48-1.71,1.11-2.64,1.55,4.06-1.93-2.09.06.44-.3s-2.76-.08-2.63-.08c-1.67-.06-3.33-.22-5-.38-1.17-.11-2.34-.22-3.51-.35-5.32-.58,1.51.65-1.46-.25-1.38-.42-2.87-.64-4.26-1-3.13-.82-1.53-.51-.71-.12-1.15-.54-2.15-1.31-3.25-1.9-2.12-1.14,2.27,2.63-.56-.55-.66-.74-1.43-1.46-2.11-2.16-3.21-3.3,1.54,2.61-1-1.25a98,98,0,0,1-7-12.58c-2.31-4.86.74,2.85-.9-2.27-.35-1.11-.77-2.19-1.11-3.3a48.63,48.63,0,0,1-2-8.45c.34,2.85.06-1.24,0-1.91q-.08-2.43,0-4.85c.06-1.3.17-2.58.26-3.88.45-6.15-.3,1.42.25-2.11a152.62,152.62,0,0,1,3.78-17.35c.68-2.43,1.42-4.85,2.26-7.23.37-1.06.76-2.1,1.17-3.15-1.27,3.29.81-1.72.92-1.94,1-2,2-3.94,3.2-5.83q1.09-1.77,2.3-3.46,1.06-1.47-.2.23,1-1.21,2.09-2.35c.73-.76,1.54-1.44,2.28-2.2-1.86,1.91-.58.32.21-.12.06,0,4.33-1.89,2.06-1.2l-.65.32q3-.7,0-.2c0-.24,4.37.41,0-.3-.13,0,4.73,1.27,2.39.49s2.25,1.23,2.21,1.21c.57.34,4.38,3,1.83,1A79.67,79.67,0,0,1,293.29,272q1.11,1.24,2.18,2.51c-.21-.25,3.15,4,1.75,2.12s1.75,2.52,1.56,2.25c.93,1.36,1.83,2.75,2.67,4.17,1.27,2.12,2.32,4.32,3.45,6.51,1.34,2.62-1.08-3.66.38,1.09.32,1,.69,2.05,1,3.09.37,1.28.53,2.69,1,4,.89,2.6,0-3.78.18,1,0,1.11.13,2.19.12,3.31s-1,4.89,0,1.9c.06-.18-1.51,4.91-.58,2.53s-1.21,2-1.18,2c-.53,1-2,1.85,0,0-.69.63-1.45,1.44-2.1,2.14-2.85,3.07,2.49-1-1.21.92-.91.48-1.8,1.05-2.69,1.55-2.86,1.61-.79.37-.06.11a42.65,42.65,0,0,1-4.43,1.33s-4.86.64-2.25.46-2.39,0-2.32,0c-1,0-2.08-.09-3.12-.09-4.66,0,1.86.67-.77-.07-2.27-.64-4.55-1.1-6.8-1.83-4.39-1.43,1.37,1.11-.85-.39-1.27-.86-2.74-1.48-4-2.31-.75-.48-3.37-2.53-.71-.36-.77-.63-1.53-1.29-2.26-2a50.15,50.15,0,0,1-5.12-5.48c2.15,2.68-1-1.62-1.58-2.62s-1.26-2.18-1.84-3.3c-.39-.75-2.34-5.65-1-2-.69-1.9-1.35-3.81-1.89-5.76-.33-1.22-.62-2.44-.88-3.68-.14-.67-.69-3.9-.31-1.13a61,61,0,0,1-.46-8.05q0-2.24.12-4.48c0-.61.52-5.63.12-2.5a83.59,83.59,0,0,1,3.82-15.76c.38-1.14.82-2.26,1.21-3.4,1.79-5.28-1.4,2.44.8-2a68.75,68.75,0,0,1,3.8-6.77c-2,3.12.11.12.15,0l1.09-1.06q-2.09,1.45-.52.43c.72-.32,3.86-1.86,1-.58,2.4-1.07,1.44-.52.17-.32a36,36,0,0,1,8.36.06c-.73-.06-3.17-.56.33.05,1.78.31,3.56.64,5.33,1A124.43,124.43,0,0,1,300.46,245c1.7.61,3.4,1.24,5.07,1.93-.74-.31-2.4-1.11.8.39,2.56,1.2,5.11,2.43,7.59,3.8,2.25,1.24,4.45,2.57,6.58,4,.85.58,1.7,1.17,2.51,1.79-2.66-2,0,.09.61.66a62.5,62.5,0,0,1,4.78,4.87c-2.24-2.49-.12-.11.4.68.82,1.27,1.49,2.61,2.22,3.94,1.17,2.13-.65-3.56.31,1.15.23,1.11.57,2.26.84,3.35,1.21,4.89.22-1.56.21,1.34,0,1.43.19,2.88.2,4.32,0,2-.13,3.94-.23,5.92-.24,4.63.66-2.18-.08.52-.46,1.67-.7,3.4-1.19,5.07-.38,1.31-2.49,5.85-.84,2.7-.56,1.08-1.1,2.16-1.72,3.2-.48.81-2.4,3.41-.14.61-.6.74-1.24,1.47-1.91,2.16,0,0-3.49,3.12-1.48,1.51s-2.06,1.23-2,1.19c-2.75,2,2.06-.31-1.42.71-1,.29-1.94.6-2.94.84-.05,0-4.83.65-2.22.46s-2.39,0-2.32,0c-1,0-2.1,0-3.15-.06s-2.11-.14-3.16-.25c4,.39-1.16-.27-1.67-.38a75.33,75.33,0,0,1-7.75-2.07q-1.51-.49-3-1c-.49-.18-5.11-2.26-1.44-.52-1.82-.86-3.62-1.73-5.36-2.75-1.08-.63-2.09-1.36-3.14-2-2.12-1.32,2.32,2.73-.47-.51-.63-.73-1.37-1.41-2-2.11,2.49,2.72-.09-.43-.56-1.3,1.47,2.71,0-.09-.21-1-.29-1.1-.24-4.16-.21-.8,0-1.06,0-2.13,0-3.19-.07-4.74-.65,1.72,0-1,.62-2.42,1.09-4.83,1.88-7.21.35-1.06.74-2.09,1.13-3.14,1.38-3.78-.83,1.34.85-1.88,2.59-4.94,5-9.88,8-14.63q2.08-3.36,4.34-6.6c-.08.11,3.36-4.45,1.53-2.21-1.41,1.74,3-1.55.75-.92-1.19.34-2.51.95-3.79,1.29-.44.12-3.8-.95,0,0,4.09,1.08-.81-1.05,1,.41a34.94,34.94,0,0,0,3.55,2.18c.41.26,2.55,2,.49.31.87.72,1.71,1.47,2.54,2.23a92,92,0,0,1,7,7.36c1.49,1.72,2.92,3.49,4.37,5.25,3.52,4.29-1-1.36,1,1.26.86,1.16,1.72,2.33,2.54,3.53,1.47,2.14,2.87,4.33,4.16,6.59.71,1.25,1.34,2.55,2,3.81,1.65,3-.22-1.4.94,2.19.81,2.51,1.38,5,2,7.56.72,2.73.16-3.56.11,1.38,0,1.15,0,2.31,0,3.46,0,3.34-.06,1.39.09.48a33.8,33.8,0,0,1-1.29,5c.22-.68,1.44-2.68-.22.47-.79,1.51-1.66,2.91-2.56,4.36-1.72,2.77-.77,1.24-.26.57-1,1.36-2.18,2.64-3.31,3.9-1.5,1.68-3,3.32-4.63,4.93a70.48,70.48,0,0,1-6,5.69c2.84-2.29-5.71,3-2.07,1.44-1.25.52-2.59.68-3.84,1.12-2.23.79,3.43.34-.83,0-1-.08-2.14-.06-3.17-.09,3.42.11.12,0-.89-.24a42,42,0,0,1-7-2.21c2.7,1.15.09,0-.35-.28-1.68-1-3.41-1.82-5.06-2.84a69.81,69.81,0,0,1-6-4.08c2.42,1.86.26.16-.16-.23-1-.9-2-1.75-2.91-2.67s-1.82-1.88-2.72-2.84c-2.24-2.39-.64-.74-.19-.11-.75-1.05-1.45-2.13-2.1-3.25q-.59-1-1.1-2,.9,2.4.26.62c-.36-1.31-.81-2.59-1.13-3.92-.84-3.49-.17-1.32-.11-.53a66,66,0,0,1,0-8.78c.13-2.28.37-4.56.58-6.83.49-5.3-.87,3.2.31-2,.37-1.63.65-3.27,1.1-4.88.29-1.07.68-2.1,1-3.16-.76,2.58-.19.29.18-.37a39.47,39.47,0,0,1,2.48-4.06c-.51.68-2.15,2.25.06.24.71-.65,1.39-1.32,2.11-2-2.63,2.34-.32.32.55-.21,1-.63,2.1-1.18,3.17-1.74-2.66,1.38-.19.1,1.25-.33.94-.28,1.9-.45,2.83-.73,4.23-1.26-2.19-.13.41-.11,2.21,0,4.36-.1,6.57,0-3.78-.24-.55,0,.5.24,1.22.28,2.4.72,3.62,1,.66.16,3.15,1.22,0-.14a44,44,0,0,1,4,2c.88.49,1.74,1,2.58,1.56.44.29,4.3,3.3,1.35.84a60.27,60.27,0,0,1,4.48,4.11c.88.9,1.65,1.94,2.56,2.8,2,1.93-2.24-3.47.63.77,1.58,2.34,2.93,4.77,4.35,7.21,2.57,4.37-.37-1.56.63,1.21.48,1.32,1,2.63,1.36,4,.32,1.07.61,2.16.86,3.24,0-.19.81,5.12.54,2.62s.09,2.9.08,2.67c0,1.12,0,2.22-.06,3.34-.07,3.52,0,1,.1.11a42.49,42.49,0,0,1-1.15,4.92c-.35,1.15-.73,2.3-1.18,3.42.28-.7,1.54-3,0-.24-.48.84-.92,1.69-1.42,2.51,0,0-2.7,3.83-1.1,1.77s-1.41,1.48-1.42,1.5c-.67.69-1.39,1.31-2.06,2-3,3,1.8-.78-.42.3-1.25.61-2.52,1.43-3.72,2.14-2.08,1.22,3.74-.85-1,.28-1.1.26-2.23.56-3.32.85-4.77,1.27,1.53.23-1.3.21-1.43,0-2.87.18-4.3.19-1.18,0-2.36,0-3.54-.08.48,0-5.45-.43-3.11-.18s-3.5-.64-3.07-.55q-2.68-.55-5.31-1.3a59.69,59.69,0,0,1-6.69-2.28c3.44,1.44-1.34-.79-1.65-1-.94-.52-1.84-1.08-2.76-1.64-2.78-1.67-1-.64-.33-.11a33.25,33.25,0,0,1-2.9-2.77c-.58-.62-2.52-3.37-.79-.82-.9-1.34-1.77-2.69-2.55-4.1-.53-.94-1-1.92-1.49-2.86-2.36-4.34.44,1.78-.47-1-.76-2.31-1.61-4.56-2.22-6.92-.34-1.3-.5-2.67-.87-4-.79-2.76.09,3.92-.14-.94-.13-2.68-.18-5.31,0-8,.22-4.71-.75,1.76.14-.84a32.81,32.81,0,0,0,1-3.83c.12-.56,1.14-3.2-.09-.26.41-1,.93-1.91,1.43-2.85,4.27-8,6.08-14.11,4.83-23.24s-13.36-14.86-21.53-12.22c-10,3.24-13.55,11.77-12.22,21.53Z" transform="translate(-122.22 -122.69)"/><path class="cls-1" d="M422.22,282.61c1.32-15,1.35-31.14-7.18-44.21-4.39-6.73-10.17-12.09-16-17.49-6.25-5.76-13.16-14.33-21-17.64-13.08-5.52-24.19,3.67-27.88,15.89-2.48,8.22-1.35,17.2,1.94,25,6.4,15.15,20,23.44,34.42,29.78l8.83-32.61c-1.22,0-2.44,0-3.67-.07s-3.87-1-.43,0c-2.12-.6-4.27-1-6.36-1.68-1.59-.55-2.73-1.28-.57-.17-1.09-.56-2.18-1.1-3.25-1.71s-2.08-1.28-3.11-1.95c-1.45-.94-1.13-1,0,.08-1.81-1.67-3.53-3.33-5.24-5.12-2.19-2.29.5,1.16-.39-.51-.57-1.06-1.34-2.05-1.94-3.1-.48-.85-.91-1.73-1.34-2.6q1,2.5.37.66-.39-1.52-.15.07.62,4.31-3.13,7.9l-1.37,1.17-1.61.75a22.5,22.5,0,0,1,2.21-.55c2.36-.79-1.81-.12.68-.14,1.49,0,3-.06,4.49-.08l1.79.12q-2.08-.32-.21,0c1.39.42,2.84.69,4.24,1.11,5.72,1.74,11.51,3.5,17.58,3,13.07-1.18,25.81-8.42,31.5-20.67,3.72-8,2.81-16.92-4.51-22.58a17.49,17.49,0,0,0-23,1.37L382.8,212c-3.4,3.47-6.61,6.78-8.14,11.55a20.18,20.18,0,0,0,1.55,15.89c1.75,3.15,4.72,5.68,7.23,8.22,1.27,1.28-1.07-1.84.43.86,2.2,4-.49-2.89.75,1.48.13.44,1.11,4.56.69,2.21s0,1.86.06,2.35a96.11,96.11,0,0,0,.74,10.19,29.57,29.57,0,0,0,13,20.85,32.51,32.51,0,0,0,5.31,2.83c2.15.94,4.31,1.82,6.48,2.69,3,1.2-1.85-1.31-.25-.06.36.28,2.49,1,2.55,1.49s-3.58-4.15-3.66-4.25c.83,1.09.12,2.13.06,0,0,1.52.19,3.07.37,4.58,1.14,10,4.75,17.42,13.13,23.28l-8-19.76c-.44,1.49-.91,3-1.48,4.41,1.14-2.85-.37.49-.9,1.42-.63,1.12-1.46,2.16-2,3.3-.83,1.64,1.53-1.53-.55.77-1,1.16-2.08,2.29-3.21,3.36-.17.16-4,3.47-1.32,1.3-2.81,2.31-5.9,4.28-8.61,6.71-5,4.44-8.2,10.2-11.61,15.83-.65,1.07-2.58,3.68-.61,1.37-.34.4-3.66,3.43-.93,1.29-4,3.14-7.65,5.46-10.54,9.87-3.88,5.92-5.9,13.67-8.09,20.39a117.62,117.62,0,0,0-4.87,20.82c-1.08,8.07-2,16.79,1.25,24.49,4.67,11.07,15,15.81,26.62,13.78,9-1.58,14.94-13.13,12.22-21.53-3.15-9.73-11.84-13.92-21.53-12.22l-1.2.21H387l4.4,3a7.28,7.28,0,0,1,2.8,4.62q.27,1.6.15-.14,0-.91,0-1.81c0-1.51.12-3,.24-4.51.08-1,.39-2.62.07-.71A117.11,117.11,0,0,1,399,375.8c.85-2.61,1.75-5.19,2.67-7.77.14-.4,1.81-4.82.94-2.83q-.62,1.25.09-.1,1.15-1.89-1.06.78c-3.33,3.41.26.34,1.21-.36a52.26,52.26,0,0,0,4.68-3.69,46.88,46.88,0,0,0,6.51-8.05c1.26-1.87,2.35-3.85,3.49-5.79.51-.87,1-1.73,1.56-2.58.87-1.35,2.06-2.32.38-.66.76-.75,1.51-1.51,2.3-2.24,3.63-3.39-1.4.94.88-.75,2.69-2,5.4-4,7.91-6.21,8.83-7.8,15-18.54,18.32-29.75,2.36-7.9-1.72-15.34-8-19.76a8.62,8.62,0,0,1,4.17,5.06q-.67-3-.12.48c-.38-3.17-.46-6.25-1-9.44A28.34,28.34,0,0,0,437,267.47a30.82,30.82,0,0,0-10.26-7.35c-2.13-1-4.3-1.84-6.46-2.7q-2.68-1.09.75.35-1.11-.49-2.18-1.07-2.41-1.52.63.72-1.85-1.89.34.51c.44,1.07.83,4.79.7,1.45-.21-5.26-.19-10.44-1.32-15.63a45.35,45.35,0,0,0-5.06-12.84,49.42,49.42,0,0,0-5.39-7.36,27.68,27.68,0,0,0-2.1-2.28q-3.44-3.49,1.34,3.54v9.3l.47-1.21-4.5,7.72c5.83-6.75,12.53-12.91,18.77-19.28L395.2,200.14a22.85,22.85,0,0,1-2,3.58c2.38-3.37-2.09.7,1.41-1.49-1,.64-4.25,1.83-.68.77-1.22.36-4.88.67-.69.55-1.14,0-4.61-.71-1.11.17-1.37-.35-2.72-.74-4.06-1.17a64.88,64.88,0,0,0-9.32-2.36c-17.89-2.89-44.31,2-44.37,25.08,0,14.87,10.44,28.85,21.74,37.58a62.91,62.91,0,0,0,39.19,13.44c7.4-.08,15.17-5.35,16.87-12.85,1.59-7-.84-16.6-8-19.76-3.57-1.57-7.16-3.13-10.59-5a55.84,55.84,0,0,1-5.67-3.46c2.64,1.87-1.61-1.72-2.1-2.07q-1.33-1.48.29.63a26.45,26.45,0,0,1-1.61-2.54q-1.35-2.71-.08.07a17.82,17.82,0,0,1-.62-2.14q-.43-1.94,0,1a19.14,19.14,0,0,1,0-2.89q-.49,3.41.26.44-1.23,2.75.15.58l-6.28,6.28,1-.53-13.48,1.76,1.15.27-7.72-4.5c4.93,3.83,9.35,8.47,13.94,12.7,2.28,2.1,4.58,4.18,6.83,6.31,1.25,1.18,2.41,2.45,3.65,3.64l1.15,1.27q-1.14-1.68-.11-.18a37.51,37.51,0,0,1,2.17,3.6c-1.16-2.13,0-.11.31,1.11s.66,2.62,1,3.95c-.56-2.51,0-.33.06,1.06a113.53,113.53,0,0,1-.61,17.53c-.81,9.14,8.63,17.9,17.5,17.5,10.17-.46,16.63-7.7,17.5-17.5Z" transform="translate(-122.22 -122.69)"/><path class="cls-1" d="M406.9,374.86c-2.5,2.51-5.06,4.94-7.74,7.24-1.34,1.15-2.69,2.29-4.09,3.37,2.09-1.61-2.36,1.64-2.85,2-1.32.91-2.64,1.8-4,2.61q-1,.61-2.05,1.13,2.38-.9.59-.31-2,.52,1,.1-2.57-.06-.46.16a4.17,4.17,0,0,1,2.55.94q2.43,2.29.41.16l4.5,7.72-.49-1.21v9.3l.27-.66-4.5,7.72c10.45-11.17,22.85-21,34.39-31.06,6.93-6,6.63-18.66,0-24.75-7.39-6.78-17.36-6.43-24.75,0q-12.54,10.91-24.81,22.13c-4.14,3.79-9.43,7.56-12.31,12.47-4.88,8.35-2.29,18.88,4.92,25,22,18.48,48.33-3.36,64.17-19.27,6.47-6.49,7-18.35,0-24.75s-17.84-6.93-24.75,0Z" transform="translate(-122.22 -122.69)"/><path class="cls-2" d="M432.68,295.05v2a16.89,16.89,0,0,0,10.76,16,13.18,13.18,0,0,0,6.74,1.51l4.65-.63a17.48,17.48,0,0,0,7.72-4.5l2.74-3.54a17.42,17.42,0,0,0,2.39-8.83v-2a16.89,16.89,0,0,0-10.76-16,13.18,13.18,0,0,0-6.74-1.51l-4.65.63a17.48,17.48,0,0,0-7.72,4.5l-2.74,3.54a17.42,17.42,0,0,0-2.39,8.83Z" transform="translate(-122.22 -122.69)"/></g><g id="Layer_3" data-name="Layer 3"><path class="cls-2" d="M167.79,359.49l-8.55,11c-5.69,7.29-7.54,17.62,0,24.75a266.56,266.56,0,0,0,43.28,33.24c6,3.69,14,2.81,19.44-1.37,5.78-4.46,7.72-11.35,6.27-18.39a100.11,100.11,0,0,0-27.92-50.78v24.75q13-14.72,26.92-28.63l-27.49-3.54,5.73,10.63,2.64,4.91,1.32,2.45q2.32,4.73-.49-3.18l2.39-8.83q2.18-2.31,0-.2a54.57,54.57,0,0,0-3.61,4.56,28.78,28.78,0,0,0-3,6.5,31.57,31.57,0,0,0-.58,16c1.79,8.23,7,15.29,13.47,20.53a123.67,123.67,0,0,0,46.07,23.12c14.08,3.77,28.42-12.63,19.76-25.71a354.93,354.93,0,0,0-35.29-45L226.91,383.7c21.2,12.13,44.08,24.05,69.23,22.84,9.13-.44,17.94-7.73,17.5-17.5-.41-9.1-7.71-18-17.5-17.5a66.46,66.46,0,0,1-7.8,0c-.32,0-3.67-.39-1.95-.15s-1.61-.33-1.92-.39a94.23,94.23,0,0,1-14.94-4.49c-2.74-1,2,.92-.69-.27-1.08-.47-2.15-1-3.22-1.47-2.41-1.13-4.79-2.32-7.15-3.55-4.7-2.46-9.31-5.08-13.91-7.71A17.57,17.57,0,0,0,222,358c-5.42,7-4.61,16.51,1.37,23a271.31,271.31,0,0,1,29.82,37.92l19.76-25.71a111.25,111.25,0,0,1-13.18-4.34c2.85,1.16-2.11-1-2.17-1q-3.13-1.49-6.16-3.19c-3.55-2-6.9-4.21-10.25-6.51q-2.4-1.76,0,0-1.15-1-2.21-2-2-2.23-.13.15-1.26-2.3-.52-.44t-.14-.5q.26,3.6.15.58a6.31,6.31,0,0,1-1.07,3.7q-2.29,2.61-.06.4c5.43-5.52,8.08-13,6.19-20.74-1.15-4.7-4.06-9.13-6.35-13.37L230,332.8c-5.38-10-19.75-11.3-27.49-3.54q-13.89,13.92-26.92,28.63c-6.22,7-7.08,17.79,0,24.75,1.53,1.5,3,3,4.44,4.64.51.58,3.15,3.81,1.32,1.43a76.71,76.71,0,0,1,6.5,10.12c.9,1.65,1.71,3.33,2.52,5q1.25,2.8.12.25.44,1.12.84,2.26a86,86,0,0,1,3.18,11.6l25.71-19.76A199.25,199.25,0,0,1,184,370.44v24.75l8.55-11c5.62-7.2,7.55-17.82,0-24.75-6.28-5.77-18.73-7.71-24.75,0Z" transform="translate(-122.22 -122.69)"/><path class="cls-2" d="M294.22,395.33c-13.31-.68-26.07,7.19-32.77,18.48a36.57,36.57,0,0,0-5.07,18.92c.09,5.22,1.45,11.33,5.47,15,3.23,3,7.17,4.68,11.22,6.21,21.81,8.23,47.5-1.7,59.57-21.14l-30.22-17.67A57.31,57.31,0,0,0,294.62,443c-.5,19.89,29.07,23.54,34.37,4.65,3.26-11.6,3.43-24.56-.46-36.05-.35-1-.79-2.06-1.17-3.09L326.8,407q-.71-2.71-.39-.75a27.2,27.2,0,0,1-3.81,9,5.31,5.31,0,0,1-2.62,1.3l1.25-.34c-1.15,1-2,0,.39.4-2.29-.41,1.21.16,2,.26a73.29,73.29,0,0,0,10,1c21.62.09,42.84-12.48,53-31.56,5.82-10.92.14-21.34-10.46-25.71-23.4-9.64-48.68.78-70,10.85-7.86,3.72-10.28,14.46-7.16,21.85,3,7.22,12.57,13.48,20.65,10.13a229.94,229.94,0,0,0,98.91-77.63L385.9,317c0,2-.08,4-.19,6,.23-4.29-.35,1.76-.58,2.71-.46,1.95-1.12,3.81-1.69,5.72q-1.08,2.81.09,0-.61,1.36-1.3,2.69a55.36,55.36,0,0,1-3,5.15q-.83,1.25-1.72,2.44,1.82-2.36-.08-.06c-1.41,1.41-2.71,2.9-4.19,4.25q-1.11,1-2.27,1.94,2.35-1.83-.07-.09l21.21,27.49c12.68-14.54,18.06-35.1,11.17-53.61-2.19-5.87-5.94-10.49-12.22-12.22-5.72-1.58-13-.1-17,4.5l-17.92,20.33c-5.81,6.59-6.9,15.82-1.37,23,5.11,6.62,15.18,9.24,22.58,4.51L393,351.6c7.7-4.93,11.54-15.78,6.28-23.94-5-7.7-15.7-11.56-23.94-6.28l-15.73,10.07,21.21,27.49,17.92-20.33-29.25-7.72c.53,1.43.91,2.85,1.38,4.3,1,3.15.16-1.44.23.53,0,1.25.17,2.5.15,3.76,0,1-.91,5,0,1.34-.32,1.21-.52,2.45-.87,3.66-.43,1.47-1.1,3-.06.76-.64,1.38-1.41,2.64-2.13,4-1.71,3.14,1.67-1.69-.89,1.25-5.78,6.63-6.92,15.79-1.37,23,5,6.45,15.35,9.47,22.58,4.51,20.11-13.83,32.69-36.26,32.37-60.91-.1-7.41-5.34-15.16-12.85-16.87-8.14-1.85-15,1.48-19.76,8-.58.8-3.94,5.19-2.1,2.87-1.5,1.89-3,3.76-4.57,5.6q-4.4,5.21-9.15,10.12a212.67,212.67,0,0,1-20.21,18.32c-1,.81-1.71,1.28-.27.21-.86.64-1.71,1.28-2.58,1.92q-2.59,1.9-5.24,3.71-5.63,3.86-11.5,7.34t-12,6.56q-3.22,1.63-6.51,3.14l-2.93,1.32c-.57.25-4,1.67-1,.44l13.48,32c2.12-1,4.25-2,6.39-3q1.63-.73,3.27-1.43-2.14.93.79-.27A118.42,118.42,0,0,1,346.9,393c.67-.16,6.41-1.23,3-.77a43.76,43.76,0,0,1,6.76-.35q1.68,0,3.35.19-2.83-.4.31.18c2.19.69,4.33,1.27,6.46,2.14l-10.46-25.71c-.57,1.07-1.16,2.13-1.81,3.16-.2.31-2,2.84-.73,1.19,1.41-1.85-1.13,1.22-1.45,1.55-.67.7-1.39,1.35-2.08,2-3.1,3.09,1.64-.89-.41.46-1,.67-2,1.38-3,2-.83.5-1.7.93-2.54,1.42-2.82,1.63,1.42-.3-.48.3-2.09.66-4.15,1.29-6.27,1.85-3.26.86,1.7.09-.37.12-1,0-1.93.13-2.9.15-1.21,0-2.42-.09-3.63-.11,2,0,.79.13-.57-.06-4-.56-8.13-1.41-12.21-1.07-16.56,1.39-28.86,14.52-25.61,31.58.51,2.69,1.69,5.11,2.56,7.69.36,1.07.68,2.16,1,3.26.1.41.89,4.74.62,2.68-.23-1.77.06,1.58.07,1.9.05,1.42,0,2.83,0,4.25s-.33,2.25,0,.41c-.33,1.68-.72,3.3-1.18,5L329.62,443c0-.44.41-4.77.08-2.66s.71-2.65.69-2.58a28.37,28.37,0,0,1,1.06-3.17c-1.27,3,1.08-1.61,1.19-1.8,4.62-7.91,2.08-19.53-6.28-23.94a17.86,17.86,0,0,0-23.94,6.28q-.66,1.12-1.43,2.18,2.15-2.73.25-.56c-.9.77-5.13,3.65-1.38,1.44-1.5.88-3,1.75-4.5,2.58,3.94-2.15-.74.16-1.93.47q-1.26.33-2.54.57,3.76-.42.78-.13c-1.07,0-4.31.64-5.19,0q3.76.59.82.05-1.26-.27-2.5-.65-2.74-1,.55.39-1.18-.54-2.31-1.2l8,10.46.28,2q.1-2.49-.16-.3c.1,2.28-.18-.22.33-.9,1.21-1.6-1.39,2.84.12-.06,1.41-2.7-1.32.9.09-.18.32-.25,2.56-2.21.72-.85-2,1.49,1.15-.51,1.58-.77-1.23.75-2.45.67-.47.42-4.52.58-.41.19.62.24,9.16.47,17.91-8.38,17.5-17.5-.44-9.88-7.69-17-17.5-17.5Z" transform="translate(-122.22 -122.69)"/><path class="cls-2" d="M354.84,414.56c9.15,0,17.92-8,17.5-17.5s-7.69-17.5-17.5-17.5c-9.15,0-17.92,8-17.5,17.5s7.69,17.5,17.5,17.5Z" transform="translate(-122.22 -122.69)"/><path class="cls-2" d="M363.85,412.41c19-14,35-31.34,46.38-52.17,4.39-8,2.24-19.44-6.28-23.94C395.77,332,384.7,334,380,342.57c-2.26,4.13-4.68,8.16-7.33,12.06-.78,1.14-1.59,2.27-2.39,3.4-.64.91-1.38,1.89-.26.44-1.52,2-3.13,3.88-4.77,5.76a138.21,138.21,0,0,1-9.81,10.14q-2.43,2.26-5,4.41-1.59,1.34-3.21,2.63c-2.39,1.89,3.18-2.35-1.08.78-7.35,5.41-11.77,15.42-6.28,23.94,4.69,7.28,16.06,12.09,23.94,6.28Z" transform="translate(-122.22 -122.69)"/><path class="cls-2" d="M394.77,347.51q1.67-.78,3.35-1.52,2.92-1.27.9-.4c2.27-.94,4.56-1.81,6.86-2.65q6.91-2.53,14-4.53t14.29-3.46q3.6-.73,7.23-1.33,1.81-.3,3.63-.56-2.42.32.82-.09c8.91-1.07,18.16-7.16,17.5-17.5-.73-11.43-8.89-19.44-20.36-20-6-.28-12.1.37-18.07.61l-38.75,1.54c-5.28.21-10.25.57-14.58,3.92a18.74,18.74,0,0,0-7.4,15,20.29,20.29,0,0,0,19.43,20c10.64.48,19.73-9.36,19.36-19.74-.4-11.27-8.93-18.61-19.73-19.5-9.15-.76-17.9,8.59-17.5,17.5.45,10.13,7.7,16.69,17.5,17.5l.82.07L375.24,330l.67.43-6.28-6.28-1.31-10.4,4.5-7.72-.63.53,7.72-4.5-.94.14,13.48,1.76,4.35,4.27L399.2,317v-.94l-2.39,8.83.5-.8-15.11,8.67,30.8-1.22,14.9-.59,7.95-.32,4-.16q7.46.13-6.41-3.63l-5.13-12.37.06,1,17.5-17.5a227.5,227.5,0,0,0-68.75,19.31c-8.34,3.83-11.05,16.54-6.28,23.94,5.55,8.61,15,10.38,23.94,6.28Z" transform="translate(-122.22 -122.69)"/><path class="cls-2" d="M383.9,316.52l4.21-1.88q1.66-.71.07-.05l1.71-.71q4.28-1.75,8.61-3.38,8.25-3.09,16.68-5.68a306,306,0,0,1,35.28-8.54c9-1.64,15-13.09,12.22-21.53-3.13-9.68-11.85-14-21.53-12.22a320.53,320.53,0,0,0-74.93,23.76c-8.37,3.78-11,16.57-6.28,23.94,5.57,8.65,15,10.33,23.94,6.28Z" transform="translate(-122.22 -122.69)"/><path class="cls-3" d="M211.78,296.72l.22,2.83a2.5,2.5,0,0,0,5,0l-.22-2.83a2.5,2.5,0,0,0-5,0Z" transform="translate(-122.22 -122.69)"/><path class="cls-3" d="M214.49,291.93a22.27,22.27,0,0,0,.35,6.17,2.52,2.52,0,0,0,3.08,1.75,2.55,2.55,0,0,0,1.75-3.08,17.52,17.52,0,0,1-.17-4.84,2.52,2.52,0,0,0-2.5-2.5,2.55,2.55,0,0,0-2.5,2.5Z" transform="translate(-122.22 -122.69)"/><path class="cls-3" d="M205.24,345.6a197.68,197.68,0,0,1,22.51-15.23c2.78-1.62.26-5.94-2.52-4.32a206.79,206.79,0,0,0-23.52,16c-2.53,2,1,5.5,3.54,3.54Z" transform="translate(-122.22 -122.69)"/></g><g id="Layer_2" data-name="Layer 2"><path class="cls-3" d="M167.39,190a87,87,0,0,0-6.81,26.35c-.28,2.84,4.21,3.34,4.91.66A75.26,75.26,0,0,0,168,197.49c0-2.94-4-3.23-4.91-.66-1.1,3-7,19.34,1.47,18,2.66-.41,3.56-3,4.14-5.29,1.49-5.94,2.45-12.07,3.38-18.11.48-3.12-4.23-4.53-4.82-1.33L164,207.5c-.58,3.13,3.88,4.45,4.82,1.33l5.06-16.71-4.91-.66A85.21,85.21,0,0,1,163.65,215l4.82,1.33a97.05,97.05,0,0,1,7.11-24.84L171,189.58l-5.85,25.13c-.73,3.13,4,4.45,4.82,1.33a133.43,133.43,0,0,1,6.46-18.93l-4.66-1.26A51.88,51.88,0,0,1,165.88,220l4.57,1.93,7.27-30.65c.74-3.13-4.07-4.46-4.82-1.33l-6.17,25.87c-.75,3.16,3.74,4.33,4.82,1.33a183.92,183.92,0,0,0,8.24-31.45c.53-3.12-4.14-4.52-4.82-1.33l-7.81,36.28c-.67,3.13,3.92,4.44,4.82,1.33l12.34-42.41-4.82-1.33q-5,21.38-8.83,43a2.5,2.5,0,0,0,4.82,1.33,227.42,227.42,0,0,0,10.73-41.67c.49-3.1-3.94-4.5-4.82-1.33a368.88,368.88,0,0,0-8.87,40.6c-.5,3.1,4,4.51,4.82,1.33q6-22.31,11.32-44.8c.74-3.13-4.07-4.46-4.82-1.33a491.22,491.22,0,0,0-9.41,50.87c-.37,2.8,4.3,3.39,4.91.66l10.87-48.45-4.82-1.33-7.9,44.7c-.55,3.13,3.82,4.44,4.82,1.33A271.14,271.14,0,0,0,193,176.32c.42-3.1-4.23-4.55-4.82-1.33l-9.21,50.48c-.57,3.12,4,4.49,4.82,1.33l12.44-49-4.82-1.33-11.1,49.9a2.5,2.5,0,0,0,4.82,1.33A573.57,573.57,0,0,0,202.41,169a2.51,2.51,0,0,0-4.57-1.93c-9.29,14.6-11.77,31.71-14,48.54-.4,3.06,3.94,3,4.91.66a244.13,244.13,0,0,0,15.72-54.7c.36-2.21-2.37-4.52-4.18-2.43a44.23,44.23,0,0,0-10.86,26.18c-.16,2.17,2.84,3.29,4.27,1.77,3-3.21,10.62-14,4.52-17.62s-11.26,6.79-12.69,10.94c-.91,2.63,2.43,3.79,4.18,2.43a65.74,65.74,0,0,0,17.43-20.47l-2.82,1.15c1.09.38-8.31,24.92-9.25,27.53s3.17,4.33,4.57,1.93A110.4,110.4,0,0,0,211.3,164.3c.66-2.63-3.4-4.62-4.57-1.93A143.76,143.76,0,0,0,198,188.71c-1.43,6.46-4.45,15.35.29,21a2.52,2.52,0,0,0,3.54,0,37.74,37.74,0,0,0,10.66-26.45,2.53,2.53,0,0,0-4.27-1.77A69.46,69.46,0,0,0,188.56,222c-.39,3,4,3.08,4.91.66q8.38-21.88,14.61-44.47c.87-3.17-3.68-4.26-4.82-1.33a366,366,0,0,0-15,47.94,2.52,2.52,0,0,0,4.18,2.43c6.21-5.87,9.24-13.84,12.06-21.72a207.13,207.13,0,0,0,8-29.41,2.5,2.5,0,0,0-4.82-1.33A224.82,224.82,0,0,0,195,216.32a2.51,2.51,0,0,0,4.57,1.93,64.11,64.11,0,0,0,11.51-50.16l-4.18,2.43,8.3,9.82c1.88,2.23,5.25-.62,3.93-3a21.75,21.75,0,0,0-6.28-7.1l-2.52,4.32,8.41,5.44c2,1.29,5-1.39,3.42-3.42a24.18,24.18,0,0,0-8.67-7.37c-2.39-1.2-5.32,2-3,3.93l13.66,11.58c2,1.7,5.66-.54,3.93-3-2.74-3.93-7.51-7.06-12.4-4.8A7.82,7.82,0,0,0,212,187.47a2.54,2.54,0,0,0,3.42.9A11.4,11.4,0,0,0,221.8,178a2.52,2.52,0,0,0-3.76-2.16,14.42,14.42,0,0,0-7.17,13,2.53,2.53,0,0,0,3.76,2.16,13.56,13.56,0,0,0,5.21-4.14c2-2.5-1.55-6.07-3.54-3.54a10.9,10.9,0,0,1-4.2,3.36l3.76,2.16a9.4,9.4,0,0,1,4.69-8.68L216.8,178a6.44,6.44,0,0,1-3.89,6.08l3.42.9q-1.31-2.64,2.82-3.84a6.17,6.17,0,0,1,4.61,3.07l3.93-3L214,169.57l-3,3.93a18.82,18.82,0,0,1,6.88,5.58l3.42-3.42-8.41-5.44c-2.76-1.79-5,2.44-2.52,4.32a15.82,15.82,0,0,1,4.49,5.3l3.93-3-8.3-9.82c-1.76-2.08-4.59.22-4.18,2.43a59.23,59.23,0,0,1-11,46.3l4.57,1.93a224.82,224.82,0,0,1,12.69-41.53l-4.82-1.33a208,208,0,0,1-6.82,25.91c-2.75,8.17-5.55,16.94-12,23l4.18,2.43a366,366,0,0,1,15-47.94l-4.82-1.33q-6.23,22.58-14.61,44.47l4.91.66a63.94,63.94,0,0,1,18.19-36.95l-4.27-1.77a32.48,32.48,0,0,1-9.19,22.91h3.54c-2.4-2.87-.51-8.52.09-11.72s1.34-6.5,2.19-9.71A137.1,137.1,0,0,1,211,164.9L206.48,163a105.56,105.56,0,0,1-11.16,27.49l4.57,1.93c2.86-7.92,6.06-15.81,8.6-23.84,1.2-3.8,1.63-8.27-2.84-9.84a2.52,2.52,0,0,0-2.82,1.15,62.18,62.18,0,0,1-16.65,19.46l4.18,2.43c.37-1.08,3.66-8.17,4.6-6.41s-3.73,7.09-4.79,8.23l4.27,1.77a38.49,38.49,0,0,1,9.4-22.65l-4.18-2.43A244.13,244.13,0,0,1,183.94,215l4.91.66c2.11-15.94,4.52-32.19,13.31-46l-4.57-1.93a573.57,573.57,0,0,1-17.33,58.71l4.82,1.33,11.1-49.9c.7-3.13-4-4.46-4.82-1.33l-12.44,49,4.82,1.33L193,176.32,188.13,175a271.14,271.14,0,0,1-10.65,46.84l4.82,1.33,7.9-44.7c.55-3.12-4.11-4.51-4.82-1.33l-10.87,48.45,4.91.66a478.69,478.69,0,0,1,9.23-49.54l-4.82-1.33q-5.31,22.49-11.32,44.8l4.82,1.33a368.88,368.88,0,0,1,8.87-40.6l-4.82-1.33a227.42,227.42,0,0,1-10.73,41.67l4.82,1.33q3.82-21.62,8.83-43c.73-3.13-3.92-4.43-4.82-1.33l-12.34,42.41L172,222l7.81-36.28L175,184.38a183.92,183.92,0,0,1-8.24,31.45l4.82,1.33,6.17-25.87L172.89,190l-7.27,30.65c-.63,2.66,3.21,4.53,4.57,1.93a57.58,57.58,0,0,0,6.6-26.69c0-2.3-3.64-3.64-4.66-1.26a141.89,141.89,0,0,0-7,20.12L170,216l5.85-25.13c.61-2.61-3.38-4.64-4.57-1.93a101.63,101.63,0,0,0-7.61,26,2.5,2.5,0,0,0,4.82,1.33,89.86,89.86,0,0,0,5.51-24.9c.23-2.89-4.12-3.28-4.91-.66L164,207.5l4.82,1.33,3.2-17.38-4.82-1.33c-.84,5.43-1.81,10.84-3,16.22-.19.86-1.42,3.41.13,2.43,1.13-.71,1-1.72,1.24-3a55,55,0,0,1,2.25-7.6l-4.91-.66a70.07,70.07,0,0,1-2.29,18.16l4.91.66a79.14,79.14,0,0,1,6.13-23.83c1.26-2.92-3-5.47-4.32-2.52Z" transform="translate(-122.22 -122.69)"/><path class="cls-3" d="M156.22,305.17q-2.43,1.57,1.09-.18A7.94,7.94,0,0,1,162,305q-2.73-.81.78.5-2.41-1.52.57.56,2,3,.52.64,1,2.61.15-.3.36,3,.2-.12.21-2.78,0-.92c-.16,1.75.81-3.42,1-4.08.63-2.28,1.41-4.51,2.12-6.76a74.87,74.87,0,0,0,3.22-16.66c.83-10.37-12-21.14-22.15-16.87l-6.16,2.59,9.3,33.75a68.88,68.88,0,0,1,11.54-3.65c5-1.14-2.89,0,2.21-.32,2.32-.13,4.6-.18,6.93-.1l-17.5-17.5.4,32.31h35a132,132,0,0,1,.44-15.86c.13-1.39.27-2.77.44-4.15-.33,2.58,0,.09.23-1.13q.63-3.71,1.48-7.37a130,130,0,0,1,4.81-16c.39-1,.81-2.08,1.21-3.12-1.07,2.78.3-.68.54-1.2q1.73-3.8,3.71-7.49a125.89,125.89,0,0,1,8.36-13.49c.65-.91,1.31-1.8,2-2.7,3-4-1.15,1.51.62-.82,2.19-2.88,4.46-5.71,6.59-8.63,7-9.64,12.39-21.15,11.65-33.35l-17.5,17.5c11.67,1.45,23.65-1.44,33.89-7.08,4.33-2.38,8.42-5.16,12.76-7.53,2.27-1.24-1.95.56.26,0,1.15-.3,2.28-.65,3.43-.92,2.08-.5,4.19-.9,6.25-1.5,13.15-3.81,22.23-13.21,23.66-27,1.16-11.23-5.14-23.26-15.16-28.5v30.22c3.08-1.51,1-.5.29-.23,1-.39,2-.74,3.08-1.05,1.83-.56,3.69-.9,5.55-1.31,2.63-.58-2.48-.1.2,0,1.07.05,2.18-.12,3.26-.12.82,0,1.63,0,2.45,0s5.17,1,1.82.12c1.85.48,3.7.81,5.53,1.39.43.13,3.59,1.33,1.73.54-1.68-.71.66.39.8.43l1.33.79-5-9.23c-.38-3.67.93-4.26,2.54-6.13,2.78-3.24.85.4.07-.12l1.33-.56q-1.11.38-2.25.67c-9.46,2.6-18.44,5.6-27,10.52-8,4.61-15.57,10.14-23,15.64C221.72,202,193.08,228.46,178,264.29a122.29,122.29,0,0,0-8.71,65.83c1,7.21,9.95,13.16,16.87,12.85,7.31-.33,15.35-5.14,16.87-12.85,3.41-17.26,9.73-28.43,18.29-44.23,7.19-13.26,14.49-26.52,23.14-38.91,1.06-1.51,2.14-3,3.23-4.49,1.92-2.64-.95,1.09,1.1-1.44,2.46-3,5-6,7.66-8.85,2.48-2.64,5.07-5.17,7.78-7.57,1.35-1.2,2.75-2.34,4.14-3.5-2.39,2,1.23-.86,2.05-1.44a93.86,93.86,0,0,1,9.58-5.83c1.8-1,3.63-1.84,5.48-2.68-.34.15-2.05.83-.18.06,1.34-.55,2.7-1.06,4.07-1.55A160.16,160.16,0,0,1,313,203.4c4.62-.9,9.26-1.66,13.91-2.35q3.49-.52,7-1l2.61-.36c1.78-.23-1.08-.69.55,0,2.1.87-.93-.74-1.31-.86-2.16-.66,0,0,.63.5,1.86,1.48-2.22-2.19-.58-.41a20.57,20.57,0,0,0,1.92,1.66c4.48,3.77,8.8,6.91,14.6,8.38,8.86,2.24,19.4-2.87,21.53-12.22,2.07-9.09-2.73-19.13-12.22-21.53-3-.75.32.27.79.47-.89-.39-2.38-2,.53.56-1.11-1-2.22-2-3.36-2.89-4.33-3.57-8.8-6.8-14.43-7.95-10.24-2.09-21.67,1-31.89,2.59-18.47,3-36.87,7.65-53.27,16.93-30,16.94-49,47-65.15,76.39-10.35,18.84-21.39,38.21-25.6,59.53H203c.43,3.06.05.19,0-.38-.08-1.12-.18-2.24-.24-3.36q-.2-3.78-.08-7.56c.07-2.24.36-4.47.44-6.7.1-2.85-.46,2.47,0-.35.23-1.38.45-2.77.72-4.15a111.3,111.3,0,0,1,3.67-13.89c.72-2.15,1.51-4.27,2.33-6.38,1.05-2.68-1,2.1.22-.53.58-1.29,1.18-2.59,1.8-3.86a134.8,134.8,0,0,1,7-12.65q1.81-2.88,3.75-5.66,1-1.41,2-2.8c.53-.72,2.39-3.11.92-1.26a193.67,193.67,0,0,1,19.94-21.42q5.38-5,11-9.71,2.66-2.22,5.37-4.38l2.72-2.15q1.42-1.11-.11.09l1.38-1c7.9-5.86,15.79-11.82,24.19-17,2.23-1.36,4.49-2.66,6.82-3.86q1.54-.79,3.12-1.52c2.63-1.22-2.12.74.61-.24,4.62-1.66,9.48-2.45,14.09-4.1,13.71-4.9,24.34-18.07,20-33.27s-22.19-20.43-36.14-22.06c-12.69-1.49-25.19,1.47-36.56,7-11.65,5.71-11.18,24.37,0,30.22q2.45,1.4-.73-.84,1.52,1.65.06,0c-.69-1.46-1.78-4.62-1.06-1.31q.44,2-.28-1.81-.13,2.92.22-1.27l1-2.07q-1.42,2.4.77-.78,2.42-1.65.81-.67t1.08-.33c-1.35.42-2.68.83-4.05,1.17a93.76,93.76,0,0,0-9.07,2.38c-7.48,2.67-13.85,7.05-20.66,11-3.91,2.26,2.45-.47-1.94.88-1.61.5-3.22.92-4.86,1.29,3.37-.76-1.16.1-2,.12a44.38,44.38,0,0,1-6.69-.39c-9-1.12-18,8.93-17.5,17.5.08,1.27,0,2.53,0,3.79,0,2.13,1.09-3.31-.27.48-.34.94-.6,1.9-1,2.84,1.22-3.24-.15,0-.52.65a68.29,68.29,0,0,1-4.22,6.63c-.77,1.09-1.57,2.15-2.36,3.22s-1.26,1.68-.18.25c-7.16,9.4-13.89,18.7-18.95,29.44a149.27,149.27,0,0,0-14.64,68c.27,9.14,7.86,17.93,17.5,17.5,9.39-.42,17.62-7.69,17.5-17.5l-.4-32.31a17.83,17.83,0,0,0-17.5-17.5,71.73,71.73,0,0,0-30,5.32c-8.4,3.54-15.4,11.72-12.22,21.53,2.61,8.07,12.49,16,21.53,12.22l6.16-2.59-22.15-16.87c.26-3.22-.3,1.56-.48,2.27-.43,1.71-1,3.4-1.49,5.09-1,3.29-2.2,6.55-2.91,9.92-1.83,8.67-2.06,17.41,1.44,25.69,6.46,15.3,27,25,41.81,14.53,7.45-5.29,11.71-15.51,6.28-23.94-4.76-7.39-16-11.95-23.94-6.28Z" transform="translate(-122.22 -122.69)"/><path class="cls-3" d="M414,183.59c-24.56-4.36-50-.34-74.62,1.6-25,2-50.09,4.33-74.4,10.56-8.87,2.27-15.1,12.64-12.22,21.53,3,9.16,12,14.66,21.53,12.22,22.94-5.88,41.38-7.44,65.1-9.31q16.52-1.3,33-2.57c5.69-.44,11.39-.9,17.1-1,2.85-.07,5.7-.06,8.54.08a46.64,46.64,0,0,1,6.63.67c9,1.59,19.29-2.42,21.53-12.22,1.94-8.53-2.58-19.82-12.22-21.53Z" transform="translate(-122.22 -122.69)"/><path class="cls-3" d="M417.77,182.56c-10.53-15.73-30.47-24.21-48.94-17.86-8.64,3-15.26,12.14-12.22,21.53,2.77,8.56,12.26,15.41,21.53,12.22,1.09-.38,2.23-.61,3.32-1,2-.65-2.64-.15-.55.14s2.46.1.17-.3c1.12.2,2.25.67,3.37.8,2.11.26-2.14-1.32-.32-.23,1,.58,2,1.2,3,1.73-1.15-.6-1.88-1.43-.32-.14,3.1,2.56-1.49-2.61.75.74,5.08,7.59,15.66,11.62,23.94,6.28,7.57-4.88,11.73-15.81,6.28-23.94Z" transform="translate(-122.22 -122.69)"/><path class="cls-3" d="M212.17,299.1c-8.32,1.21-16,6.42-21.79,12.25-2.24,2.24-4.22,4.72-6.26,7.15-1,1.24-2.08,2.49-3.18,3.68-.46.5-5.13,4.7-2.41,2.66-7.29,5.48-11.81,15.37-6.28,23.94,4.65,7.21,16.12,12.16,23.94,6.28,6.19-4.65,10.78-9.73,15.81-15.55,1-1.17,2-2.32,3.13-3.41.61-.6,4-3.28,1-1.19.37-.26,3.81-2.5,1.77-1.32-1.57.91,2.65-.61,3.53-.74,9.09-1.32,14.88-13.31,12.22-21.53-3.22-9.95-11.78-13.64-21.53-12.22Z" transform="translate(-122.22 -122.69)"/></g><g id="Layer_1" data-name="Layer 1"><path class="cls-4" d="M318.81,122.69a23.71,23.71,0,0,1,23.59,23.59v16.34A140.11,140.11,0,0,1,356,168.15l11.55-11.55a23.64,23.64,0,0,1,33.3,0l33.3,33.3a23.79,23.79,0,0,1,0,33.42l-11.55,11.55a139.57,139.57,0,0,1,5.65,13.64h16.34a23.71,23.71,0,0,1,23.59,23.59v47.18a23.71,23.71,0,0,1-23.59,23.59H428.17a140.85,140.85,0,0,1-5.53,13.52l11.55,11.55a23.79,23.79,0,0,1,0,33.42l-33.3,33.3a23.64,23.64,0,0,1-33.3,0L356,423.11a140.13,140.13,0,0,1-13.64,5.53V445.1a23.71,23.71,0,0,1-23.59,23.59H271.63A23.71,23.71,0,0,1,248,445.1V428.64a140.26,140.26,0,0,1-13.52-5.53L223,434.66a23.64,23.64,0,0,1-33.3,0l-33.42-33.3a23.79,23.79,0,0,1,0-33.42l11.67-11.67a141.67,141.67,0,0,1-5.65-13.39H145.81a23.71,23.71,0,0,1-23.59-23.59V272.1a23.71,23.71,0,0,1,23.59-23.59h16.46A140.69,140.69,0,0,1,167.93,235l-11.67-11.67a23.79,23.79,0,0,1,0-33.42l33.42-33.3a23.64,23.64,0,0,1,33.3,0l11.55,11.55A140.19,140.19,0,0,1,248,162.62V146.28a23.71,23.71,0,0,1,23.59-23.59h47.18Zm0,15.73H271.63a7.68,7.68,0,0,0-7.86,7.86V167.9a8.08,8.08,0,0,1-5.53,7.5,124.76,124.76,0,0,0-21.87,9,8.09,8.09,0,0,1-9.22-1.35l-15.24-15.24a7.75,7.75,0,0,0-11.18,0l-33.42,33.3a7.61,7.61,0,0,0,0,11.06l15.36,15.36a8.09,8.09,0,0,1,1.47,9.34,124.47,124.47,0,0,0-9.22,21.75,8.09,8.09,0,0,1-7.5,5.65H145.81a7.68,7.68,0,0,0-7.86,7.86v47.18a7.68,7.68,0,0,0,7.86,7.86h21.63a8.08,8.08,0,0,1,7.5,5.53,125.65,125.65,0,0,0,9.22,21.87,8.09,8.09,0,0,1-1.47,9.22l-15.36,15.36a7.61,7.61,0,0,0,0,11.06l33.42,33.3a7.75,7.75,0,0,0,11.18,0l15.24-15.24a8.09,8.09,0,0,1,9.22-1.35,124.75,124.75,0,0,0,21.87,9,8.09,8.09,0,0,1,5.53,7.62V445.1a7.68,7.68,0,0,0,7.86,7.86h47.18a7.68,7.68,0,0,0,7.86-7.86V423.48a8.09,8.09,0,0,1,5.53-7.62,124.94,124.94,0,0,0,22-9,8.09,8.09,0,0,1,9.22,1.35l15.24,15.24a7.75,7.75,0,0,0,11.18,0l33.3-33.3a7.61,7.61,0,0,0,0-11.06l-15.24-15.24a8.09,8.09,0,0,1-1.35-9.22,124.92,124.92,0,0,0,9-22,8.09,8.09,0,0,1,7.5-5.53h21.63a7.68,7.68,0,0,0,7.86-7.86V272.1a7.68,7.68,0,0,0-7.86-7.86H423a8.11,8.11,0,0,1-7.5-5.65,123.65,123.65,0,0,0-9-21.87,8.09,8.09,0,0,1,1.35-9.34l15.24-15.24a7.61,7.61,0,0,0,0-11.06l-33.3-33.3a7.75,7.75,0,0,0-11.18,0L363.41,183a8.09,8.09,0,0,1-9.22,1.35,124.91,124.91,0,0,0-22-9,8.09,8.09,0,0,1-5.53-7.5V146.28a7.68,7.68,0,0,0-7.86-7.86Zm-23.59,78.64a78.64,78.64,0,1,1-78.64,78.64A78.76,78.76,0,0,1,295.22,217.05Zm0,15.73a62.91,62.91,0,1,0,62.91,62.91A62.79,62.79,0,0,0,295.22,232.78Z" transform="translate(-122.22 -122.69)"/></g></svg>