<svg xmlns="http://www.w3.org/2000/svg" xmlns:xlink="http://www.w3.org/1999/xlink" viewBox="0 0 70.17 540.56"><defs><style>.cls-1{fill:none;}.cls-2{fill:#83e2e2;}.cls-3{fill:#27aae1;}.cls-4{fill:#29ade3;}.cls-5{fill:#2bb0e5;}.cls-6{fill:#2db2e8;}.cls-7{fill:#2fb5ea;}.cls-8{fill:#31b8ec;}.cls-9{fill:#34bbee;}.cls-10{fill:#36bef0;}.cls-11{fill:#38c1f2;}.cls-12{fill:#3ac3f5;}.cls-13{fill:#3cc6f7;}.cls-14{fill:#3ec9f9;}.cls-15{fill:#707e8e;}.cls-16{fill:url(#New_Pattern_Swatch_5);}.cls-17{fill:#51495b;stroke:#414042;stroke-miterlimit:10;}</style><pattern id="New_Pattern_Swatch_5" data-name="New Pattern Swatch 5" width="600" height="600" patternUnits="userSpaceOnUse" viewBox="0 0 600 600"><rect class="cls-1" width="600" height="600"/><rect class="cls-2" width="600" height="600"/><line class="cls-1" x1="-151.21" y1="223.04" x2="-151.21" y2="945.8"/><polygon class="cls-3" points="288.01 934.41 265.59 911.99 911.99 265.59 934.41 288.01 288.01 934.41"/><polygon class="cls-4" points="233.47 879.87 211.04 857.44 857.44 211.04 879.87 233.47 233.47 879.87"/><polygon class="cls-5" points="178.92 825.32 156.5 802.9 802.9 156.5 825.32 178.92 178.92 825.32"/><polygon class="cls-6" points="124.37 770.78 101.95 748.35 748.35 101.95 770.78 124.37 124.37 770.78"/><polygon class="cls-7" points="69.83 716.23 47.41 693.81 693.81 47.41 716.23 69.83 69.83 716.23"/><polygon class="cls-8" points="15.28 661.68 -7.14 639.26 639.26 -7.14 661.68 15.28 15.28 661.68"/><polygon class="cls-9" points="-39.26 607.14 -61.69 584.72 584.72 -61.69 607.14 -39.26 -39.26 607.14"/><polygon class="cls-10" points="-93.81 552.59 -116.23 530.17 530.17 -116.23 552.59 -93.81 -93.81 552.59"/><polygon class="cls-11" points="-148.35 498.05 -170.78 475.63 475.63 -170.78 498.05 -148.35 -148.35 498.05"/><polygon class="cls-12" points="-202.9 443.5 -225.32 421.08 421.08 -225.32 443.5 -202.9 -202.9 443.5"/><polygon class="cls-13" points="-257.44 388.96 -279.87 366.54 366.54 -279.87 388.96 -257.44 -257.44 388.96"/><polygon class="cls-14" points="-311.99 334.41 -334.41 311.99 311.99 -334.41 334.41 -311.99 -311.99 334.41"/></pattern></defs><title>meter_half full</title><g id="Layer_2" data-name="Layer 2"><rect class="cls-15" x="670.46" y="679" width="540.56" height="70.17" rx="12" ry="12" transform="translate(-679 1211.02) rotate(-90)"/></g><g id="Layer_1" data-name="Layer 1"><path class="cls-16" d="M966.93,466.75V961.41a12,12,0,0,1-12,12H926.55a12,12,0,0,1-12-12V466.75a12,12,0,0,1,12-12h28.38A12,12,0,0,1,966.93,466.75Z" transform="translate(-905.66 -443.8)"/><path class="cls-17" d="M914.55,465.81V644.42h52.38V465.81c0-6.08-5.82-11.06-12.94-11.06H927.49C920.37,454.75,914.55,459.73,914.55,465.81Z" transform="translate(-905.66 -443.8)"/></g></svg>