<svg xmlns="http://www.w3.org/2000/svg" viewBox="0 0 70.17 540.56"><defs><style>.cls-1{fill:#707e8e;}.cls-2,.cls-4{fill:#51495b;}.cls-2{stroke:#414042;}.cls-2,.cls-3,.cls-4{stroke-miterlimit:10;}.cls-3{fill:#534c5e;}.cls-3,.cls-4{stroke:#51495b;}</style></defs><title>meter_empty</title><g id="Layer_2" data-name="Layer 2"><rect class="cls-1" x="670.46" y="679" width="540.56" height="70.17" rx="12" ry="12" transform="translate(749.16 -670.46) rotate(90)"/></g><g id="Layer_1" data-name="Layer 1"><path class="cls-2" d="M966.93,962.36V783.74H914.55V962.36c0,6.08,5.82,11.06,12.94,11.06H954C961.11,973.41,966.93,968.44,966.93,962.36Z" transform="translate(-905.66 -443.8)"/><path class="cls-3" d="M914.55,466.43V645h52.38V466.43c0-6.08-5.82-11.06-12.94-11.06H927.49C920.37,455.37,914.55,460.35,914.55,466.43Z" transform="translate(-905.66 -443.8)"/><path class="cls-4" d="M914.55,630.3V808.92h52.38V630.3c0-6.08-5.82-11.06-12.94-11.06H927.49C920.37,619.24,914.55,624.22,914.55,630.3Z" transform="translate(-905.66 -443.8)"/></g></svg>