<svg xmlns="http://www.w3.org/2000/svg" viewBox="0 0 135.23 135.23"><defs><style>.cls-1{fill:#e8e2c8;stroke:#afdfe4;stroke-miterlimit:10;}.cls-2{fill:#fff;}.cls-3{opacity:0.69;}</style></defs><title>moon</title><g id="Layer_2" data-name="Layer 2"><circle class="cls-1" cx="67.61" cy="67.61" r="67.11"/><path class="cls-2" d="M159.68,248.52a9.85,9.85,0,0,0-5,7.84c-.22,2.17,2.88,3.29,4.27,1.77a10.53,10.53,0,0,0,2.51-4.57l-4.91-.66c0-.24.25-.62,0-.14a4.65,4.65,0,0,0-.34.83,3.38,3.38,0,0,0,.1,2.12,2.86,2.86,0,0,0,3.35,1.81c2.9-.8,2.57-5.69-.64-5.46a2.56,2.56,0,0,0-2.5,2.5A2.52,2.52,0,0,0,159,257h.13l-1.77-.73.07.08-.73-1.77.24-.86.9-.9-.11.07,1.26-.34h-.14l1.77.73.13.16.34,1.26a.88.88,0,0,0-.08.27,5.54,5.54,0,0,0,.26-.58,3.49,3.49,0,0,0,.28-1.53c-.13-2.73-4.2-3.5-4.91-.66a5.27,5.27,0,0,1-1.22,2.37l4.27,1.77a4.68,4.68,0,0,1,2.52-3.52c2.82-1.55.3-5.87-2.52-4.32Z" transform="translate(-141.34 -220.45)"/><path class="cls-2" d="M154.47,269.46a10.15,10.15,0,0,0-2.77,7.73c.23,2.69,2,6,5.18,5.6,2.79-.33,4.57-4.21,5.35-6.55a7.61,7.61,0,0,0-1.82-8.12,2.52,2.52,0,0,0-3.54,0,11.32,11.32,0,0,0-2.73,7.25h5l0-2c0-3.22-5-3.22-5,0l0,2c0,3.22,5,3.22,5,0a5.81,5.81,0,0,1,1.26-3.72h-3.54a2.66,2.66,0,0,1,.64,3c-.3,1.08-1.5,2.16-1.68,3.18q-.71.86,1.18.2l-.18-.29c0-.54-.22-1.1-.18-1.68a5,5,0,0,1,1.34-3c2.16-2.38-1.37-5.92-3.54-3.54Z" transform="translate(-141.34 -220.45)"/><path class="cls-2" d="M192.1,242.16c-2.86-.64-6.17-1.13-8.61.91a5.75,5.75,0,0,0-1.63,6.46c.58,1.36,1.48,1.78,2.7,2.47,1,.55-.08-.27.75.63a4.09,4.09,0,0,0,1.44,1.17c1.37.61,3,.39,4.51.39a19.23,19.23,0,0,0,4.89-.29c2.61-.7,4.8-3.1,4.24-5.93-.51-2.62-3.51-4.44-5.92-5.06-2.59-.66-5.82.8-5.89,3.78a3.67,3.67,0,0,0,5.51,3.13l-3-3.93-1.24,1.43a2.59,2.59,0,0,0,0,3.54,4.9,4.9,0,0,0,5.07,1.57,2.52,2.52,0,0,0,1.49-3.67c-.22-.33-.54-1.05.07-1.29a2.52,2.52,0,0,0,0-4.82,4.71,4.71,0,0,0-5.07,1.38c-2.13,2.4,1.39,5.95,3.54,3.54l.2-.09v-4.82c-3.44,1.34-5.24,5.36-3.06,8.63l1.49-3.67-.21-.28v3.54l1.24-1.43a2.51,2.51,0,0,0-3-3.93c-2.76,1.49,4.23,2.63,3.48,3.45-.43.48-1.89.23-2.5.24a15.69,15.69,0,0,0-3,0h-.87q1.13.88.42-.19c-.28-.54-2.71-2-2.63-1.46-.29-1.71,3.67-.72,4.33-.57,3.13.7,4.47-4.12,1.33-4.82Z" transform="translate(-141.34 -220.45)"/><path class="cls-2" d="M190.88,251.29a3.35,3.35,0,0,0-1.52-3.91L188.1,252l5.38-.07c2.63,0,3.21-3.27,1.26-4.66s-5.31-4.15-7.6-1.86a2.81,2.81,0,0,0,.56,4.35c1.47.86,3.8.19,4.1-1.65a2.58,2.58,0,0,0-1.75-3.08,2.52,2.52,0,0,0-3.08,1.75l0,.13,1.15-1.49-.11.07,1.26-.34.36,0,1.1.64-.11-.1.64,1.1,0-.15-.25,1.93.08-.17-.9.9q-2.16-.26-1.27.16l.49.27,1,.57c.64.39,1.25.81,1.86,1.25l1.26-4.66-5.38.07a2.52,2.52,0,0,0-1.26,4.66l.21.14-.9-.9-.09-1a2.5,2.5,0,1,0,4.82,1.33Z" transform="translate(-141.34 -220.45)"/><path class="cls-2" d="M145.54,305.2a7.93,7.93,0,0,0,2.84,6.08c1.29,1.06,3.83.94,4.18-1.1l.26-1.56-4.57.6a14.35,14.35,0,0,0,3,4,2.52,2.52,0,0,0,4.18-2.43l-1.2-4.85a2.54,2.54,0,0,0-3.08-1.75,2.56,2.56,0,0,0-1.75,3.08,18.22,18.22,0,0,0,1.82,5.48c1.17,2.31,4.59,1.08,4.66-1.26a8.25,8.25,0,0,0-4.22-7.44c-1.8-1-3.55.32-3.76,2.16a9.3,9.3,0,0,0,3.92,8.48c1.35,1,3.24-.12,3.67-1.49a8.09,8.09,0,0,0-5-9.86c-1.53-.6-3.18.92-3.16,2.41a7,7,0,0,0,3.75,6.2c2.86,1.46,5.4-2.86,2.52-4.32a2,2,0,0,1-1.28-1.88l-3.16,2.41a3,3,0,0,1,1.5,3.71l3.67-1.49a4.4,4.4,0,0,1-1.45-4.16l-3.76,2.16a3.24,3.24,0,0,1,1.75,3.12l4.66-1.26a14.14,14.14,0,0,1-1.32-4.28l-4.82,1.33,1.2,4.85,4.18-2.43a10.28,10.28,0,0,1-2.21-2.94c-.93-1.82-4.21-1.52-4.57.6l-.26,1.56,4.18-1.1a3.17,3.17,0,0,1-1.37-2.54c-.07-3.21-5.07-3.22-5,0Z" transform="translate(-141.34 -220.45)"/><path class="cls-2" d="M239.87,269.74a6.05,6.05,0,0,0,7-2.2c2.12-2.77,1.52-6.32.79-9.47a2.52,2.52,0,0,0-4.18-1.1,55.37,55.37,0,0,1-9.4,8.4c-1.91,1.34-1.39,4.73,1.26,4.66a18.22,18.22,0,0,1,10.4,2.78c1.49.91,4-.24,3.76-2.16-.47-4.29-2.11-8.62-6.08-10.85a9.54,9.54,0,0,0-10.9,1.1l4.27,1.77c.06-.74,1.34-1.52,1.76-2.11a5.85,5.85,0,0,0,1.1-2.54,4.06,4.06,0,0,0-2-4.33c-2.07-1.33-4.81,1.34-3.42,3.42l1.56,2.34c1.28,1.93,3.75,1.38,4.57-.6l2.24-5.37-4.82-1.33c.05-.14-1.32.37-1.53.49a2.45,2.45,0,0,0-1.24,2.16l0,.36a2.56,2.56,0,0,0,2.5,2.5h.36a2.45,2.45,0,0,0,2.16-1.24l.15-.33c1.34-2.9-3-5.45-4.32-2.52l-.15.33,2.16-1.24h-.36l2.5,2.5,0-.36-1.24,2.16c1.41-.76,2.95-1.22,3.83-3.48,1.18-3-3.61-4.24-4.82-1.33l-2.24,5.37,4.57-.6-1.56-2.34L235.15,258c-.87-.56-.22-.42-1.11.13a5.38,5.38,0,0,0-1.3,1.53,5.84,5.84,0,0,0-.94,3c-.2,2.38,2.76,3,4.27,1.77,4.31-3.52,8,2.57,8.45,6.22l3.76-2.16A23.08,23.08,0,0,0,235.36,265l1.26,4.66A61,61,0,0,0,247,260.49l-4.18-1.1c.3,1.28,1.53,6.77-1.66,5.53-3-1.17-4.3,3.67-1.33,4.82Z" transform="translate(-141.34 -220.45)"/><path class="cls-2" d="M182.08,294.14a15,15,0,0,1,3.82,2.65c2,1.89,5.59-.6,3.93-3-1.49-2.18-3.67-4.58-6.61-4-3.13.57-5.17,5-6.81,7.26-1.23,1.69.48,3.6,2.16,3.76a23.09,23.09,0,0,1,8.71,2.64,2.54,2.54,0,0,0,3.67-1.49c1.66-4.63-2.35-7.37-6.27-8.46-2.5-.7-4,2.37-2.43,4.18a17.84,17.84,0,0,0,10.51,5.84l-1.49-3.67-3.86,6.46,4.57.6c-.92-2.8.39-5.61-1.43-8.23a4.81,4.81,0,0,0-5.58-2.08,2.54,2.54,0,0,0-1.75,3.08,27.25,27.25,0,0,1,1.18,7.45l4.91-.66a22.46,22.46,0,0,0-4.9-8.73c-1.84-2.06-4.52.21-4.18,2.43.52,3.37,2,8.32,5,10.32s4.57-.78,7-2.2l-3-3.93a35.48,35.48,0,0,0-4.52,6.54c-1.51,2.84,2.8,5.37,4.32,2.52a29.78,29.78,0,0,1,3.73-5.52c1.78-2.07-.46-5.44-3-3.93-.52.3-1,.78-1.46,1.07-1.16.66-.08.83-.94.28-1.56-1-2-4.82-2.28-6.49l-4.18,2.43a16.56,16.56,0,0,1,3.61,6.52c.79,2.65,5,2.22,4.91-.66a32.18,32.18,0,0,0-1.36-8.78l-1.75,3.08c-.06,0,.64,6.16.86,6.82a2.53,2.53,0,0,0,4.57.6l3.86-6.46a2.52,2.52,0,0,0-1.49-3.67,13.48,13.48,0,0,1-8.31-4.56l-2.43,4.18c.92.26,3.38.65,2.78,2.31l3.67-1.49a29.7,29.7,0,0,0-11.23-3.33l2.16,3.76a29.8,29.8,0,0,1,2.59-3.57c1.24-1.23.85-1.6,2.19.36l3.93-3a19.25,19.25,0,0,0-4.83-3.44c-2.87-1.44-5.41,2.88-2.52,4.32Z" transform="translate(-141.34 -220.45)"/><g class="cls-3"><path class="cls-2" d="M180.51,267.42c3.22,0,3.22-5,0-5s-3.22,5,0,5Z" transform="translate(-141.34 -220.45)"/></g><g class="cls-3"><path class="cls-2" d="M184.82,264.53a15.58,15.58,0,0,1,5.6-.87L189.16,259l-1.59,1.06a2.51,2.51,0,0,0,1.93,4.57,7.71,7.71,0,0,0,5.46-3.74c1.35-2-.87-4-2.82-3.67a15.42,15.42,0,0,0-11.33,8c-.85,1.53.19,3.94,2.16,3.76a9.62,9.62,0,0,0,7.57-4.33c1.28-1.77-.84-4.33-2.82-3.67a16.11,16.11,0,0,0-10,8.61,2.53,2.53,0,0,0,2.16,3.76,8.35,8.35,0,0,0,8.13-4.84,2.55,2.55,0,0,0-1.49-3.67c-3.78-1.37-7.2,0-9.76,3-1.63,1.89-4.47,5.6-2.73,8.25,1.33,2,4.09,1.8,6,1a8.65,8.65,0,0,0,5-8.51c-.08-2.06-2-2.89-3.76-2.16-5.86,2.48-8.57,8.36-7.53,14.48.35,2.07,2.87,2.12,4.18,1.1a17.54,17.54,0,0,0,5.68-7.77c1.07-2.66-3.21-4.35-4.57-1.93a88.39,88.39,0,0,0-7.4,17.16c-.87,2.78,3.09,4.26,4.57,1.93,1.9-3,4.87-10.81-.48-12.39s-6.88,5.62-6.41,9.32c.5,3.93,4.15,9.59,8.28,5.11,3.78-4.1-.2-10-4.83-10.79a2.57,2.57,0,0,0-3.08,1.75c-1.14,3.64-.42,9.1,4.21,9.76a5.54,5.54,0,0,0,5.92-6.83c-1-3.71-5.28-5.51-8.76-4.16-4.8,1.86-5.95,7.07-5.67,11.68a2.52,2.52,0,0,0,4.66,1.26c1.6-2.35,1.53-4.5.35-7a2.5,2.5,0,0,0-3.42-.9,56.48,56.48,0,0,0-7.58,6.76,2.53,2.53,0,0,0,1.77,4.27c6.34.27,6.71-8.77.47-9.41-5.29-.54-9.89,9.2-3.59,9.78,5.86.54,6.24-10.6.73-11.61-5.73-1.06-7.32,8.26-2.35,10.32a2.49,2.49,0,0,0,2.82-1.15,31.47,31.47,0,0,0,3.11-14.13c0-2-2.79-3.45-4.27-1.77a19.39,19.39,0,0,0-5.07,14.66c.16,2.29,3.45,3.64,4.66,1.26a33.56,33.56,0,0,0,3.76-16.57c-.05-1.71-2.16-3.35-3.76-2.16-3.86,2.87-10.3,11.74-5.48,16.47,6.16,6,7-8.61,6.71-11.32s-4.46-3.67-4.91-.66a85.33,85.33,0,0,0-1,11.23c0,2.4,3.53,3.51,4.66,1.26a9.43,9.43,0,0,0,.77-7.67,2.52,2.52,0,0,0-3.67-1.49,14,14,0,0,0-5.64,16.11,2.54,2.54,0,0,0,3.67,1.49c3-1.55,3.82-6,.47-7.8a4.29,4.29,0,0,0-6.12,5.06,4.65,4.65,0,0,0,8.34,1.1c2.62-3.85-.48-7.92-4.41-8.8a2.54,2.54,0,0,0-3.08,1.75c-1,4.37,2.25,7.41,6.52,6.81,2.92-.41,2-4.76-.66-4.91l-4.31-.25a2.51,2.51,0,0,0-2.41,1.84l-.55,2.56,4.18-1.1A4.29,4.29,0,0,0,146,298.7a2.51,2.51,0,0,0-1.75,3.08c.77,2,1.23,2.47,3.24,3.21,3,1.11,4.33-3.72,1.33-4.82l-1.08-.4,1.75,1.75-.42-1.07-1.75,3.08,0,.09a2.52,2.52,0,0,0,4.18-1.1l.55-2.56-2.41,1.84,4.31.25-.66-4.91-.37-.66-3.08,1.75.53,1.29L154,301a8.83,8.83,0,0,1,3.34-10.47L153.7,289l-.26,3.82,4.66,1.26a75.17,75.17,0,0,1,.8-9.9l-4.91-.66c.17,1.91.88,6.78-.72,8.18l2.43-.64c.05,0,.89-3.56,1.14-4.1a10.47,10.47,0,0,1,3.44-4.28l-3.76-2.16a28,28,0,0,1-3.08,14l4.66,1.26a14.5,14.5,0,0,1,3.61-11.12l-4.27-1.77A25.75,25.75,0,0,1,155,294.56l2.82-1.15q1.09-.33,1.06,1.06l1.24,2.16,1.1-2.48,1.77,4.27a49.46,49.46,0,0,1,6.57-6l-3.42-.9-.35,2,4.66,1.26a13.15,13.15,0,0,1,.12-3.93,11.49,11.49,0,0,1,4-5.2l-3.08,1.75q3.72,3,2.86-.15a17.63,17.63,0,0,0-.59-3.81c-.19.08-1.44,4.76-1.82,5.37l4.57,1.93a82.22,82.22,0,0,1,6.9-16l-4.57-1.93a12.9,12.9,0,0,1-4.39,5.57l4.18,1.1c-.68-4,1.6-7.3,5.24-8.84l-3.76-2.16q-.37,2.1-.74,4.21,1.57-3.52,5.83-3L183.71,266a3.27,3.27,0,0,1-3.81,2.36l2.16,3.76a11.14,11.14,0,0,1,7-6.31l-2.82-3.67L183,264l2.16,3.76a10.92,10.92,0,0,1,8.34-5.71l-2.82-3.67-2.47,1.45,1.93,4.57,1.59-1.06a2.52,2.52,0,0,0-1.26-4.66,19.31,19.31,0,0,0-6.93,1c-3,1-1.73,5.86,1.33,4.82Z" transform="translate(-141.34 -220.45)"/></g><g class="cls-3"><path class="cls-2" d="M159.88,295.8l.82,1.1c1,1.35,3.43,1.88,4.32,0a8.33,8.33,0,0,0,1-3l-4.91-.66a11.76,11.76,0,0,0,1.63,7.53c.73,1.29,2.9,1.77,3.93.51a33.48,33.48,0,0,0,4.8-7.76c.91-2.08-1.1-4.92-3.42-3.42-2.86,1.86-3.94,6.1-1.14,8.61,3.12,2.79,7.29.55,8.58-2.81.75-1.93-1.4-3.4-3.08-3.08-3.42.66-12.19,5.14-9.17,9.87s11.55-2.17,13-5.47c.84-2,.59-4.48-1.41-5.66-2.48-1.46-5.32.27-7.26,1.79s-3.3,3.55-3.08,6c.15,1.67,4.58,7.18,6,4l3.42-.9a27.69,27.69,0,0,0-16.42-3.26,2.51,2.51,0,0,0-.66,4.91c3.41,1.4,11.47,4.94,12.46-1.25.74-4.64-5.32-5.6-7.8-2.57-2.63,3.21-3,9.09,2,10.18,5.24,1.15,9.64-5.1,12.19-8.74L171,300.51l.32,4.14a2.58,2.58,0,0,0,2.5,2.5c8.44.74,8-12.26-.23-11-7,1-12.27,11.28-4.18,14.69,3,1.25,4.25-3.59,1.33-4.82q-1.29-1.74.59-3.12a1.65,1.65,0,0,1,2.49-.71l2.5,2.5-.32-4.14a2.52,2.52,0,0,0-4.66-1.26c-1.14,1.63-3.41,5.3-5.61,5.44q-1.77.9-1.66-1.6,0-2.17-2-2.25a26.26,26.26,0,0,0-3.92-1.5l-.66,4.91a23.16,23.16,0,0,1,13.89,2.57,2.52,2.52,0,0,0,3.42-.9,4.09,4.09,0,0,0,.1-4.09,5.45,5.45,0,0,0-1.52-1.63,17.67,17.67,0,0,0-2.67-1c-.8-1.08,2-3.55.18-3a18.72,18.72,0,0,0-3.56,2.5l.37,2.58a6.28,6.28,0,0,1,1.71-1.8,9.34,9.34,0,0,1,4.35-1.86l-3.08-3.08q-.76.35-.1-.16L167.14,291a28.94,28.94,0,0,1-4,6.74l3.93.51a7.38,7.38,0,0,1-.95-5c.31-2.77-4.51-3.45-4.91-.66l-.47,1.82H165l-.82-1.1c-1.9-2.55-6.25-.06-4.32,2.52Z" transform="translate(-141.34 -220.45)"/></g><g class="cls-3"><path class="cls-2" d="M169.08,313.66l.29,0L167,311.8l.13.43.64-2.43-.26.31,3-.39c-1.09-.54-2.21-4.59-3.26-5.67a7.69,7.69,0,0,0-5.33-2.37,2.5,2.5,0,0,0-2.5,2.5,17.69,17.69,0,0,0,3.56,9c1.57,2,5.58,1,4.57-1.93a11.1,11.1,0,0,0-9.17-7.88c-1.68-.24-3.82,1.07-3.08,3.08,1.8,4.86,4.85,9.48,9.46,12.12,1.57.9,3.55,1.64,5.39,1.12.6-.17,3.53-3,3.2-3l-2.16-1.24a4.57,4.57,0,0,1,.51,4.88l3.08,3.08a123.15,123.15,0,0,0,1.4-17l-4.66,1.26a5.24,5.24,0,0,0,9.68-.82c1.77-5-3.17-8.92-7.27-5.2-3.55,3.22-4.53,11.91-.16,15,5.2,3.7,8.23-5.67,9.49-9l-4.82-1.33c-1,3.28,0,6,2.34,8.46,1.45,1.5,3.74,3.57,6,2.35,6.56-3.57-5.68-10.71-8.12-11.82-2.17-1-4.75,1.09-3.42,3.42,2,3.48,13.46,19.18,17.09,10.23,3.32-8.21-5-17.3-12.22-19.47a2.53,2.53,0,0,0-3.08,3.08c1.15,6.21,7,12.23,10.47,17.36l2.16-3.76c-3.22.34-9.9-.18-10,4.67-.11,4.48,4.73,5,7.95,4.44a2.5,2.5,0,0,0,1.75-3.08,16.66,16.66,0,0,0-14.79-10.69,2.53,2.53,0,0,0-2.41,3.16,15.49,15.49,0,0,0,8.35,11,2.52,2.52,0,0,0,3.42-3.42c-1.79-3.1-8.38-9.07-10.95-3.58-3,6.47,3.22,13.62,7.25,17.82,1.65,1.72,5.08,0,4.18-2.43a32.39,32.39,0,0,0-8.95-13.14c-2.4-2.13-6,1.4-3.54,3.54a27.2,27.2,0,0,1,7.66,10.93l4.18-2.43c-2.44-2.54-8.5-8.45-6-12.66l-2.16,1.24a5.37,5.37,0,0,1,4,3.24l3.42-3.42a10.81,10.81,0,0,1-6.05-8l-2.41,3.16a11.35,11.35,0,0,1,10,7l1.75-3.08q-.82,1.59.71,1l2.7-.29c1.72-.18,3.32-2,2.16-3.76-3.12-4.63-8.93-10.61-10-16.17l-3.08,3.08c5.37,1.62,10.95,8,8.47,13.94l1.75-1.75c-1.24.22-4.28-3.35-5-4.14a32.16,32.16,0,0,1-4.41-6.15l-3.42,3.42c.7.32,7.12,4.22,7.22,4.08l2.16-1.24a7.08,7.08,0,0,1-2.25-4.82c.95-3.13-3.71-4.29-4.82-1.33-.07.19-1.67,4.83-2.29,5a32.8,32.8,0,0,0-.3-6.17c-1.22-2.21-4.63-1.17-4.66,1.26A113.49,113.49,0,0,1,169.95,322c-.25,1.63,1.1,3.88,3.08,3.08a6.27,6.27,0,0,0,4.31-5.06c.35-2.25-.43-6.47-2.47-7.86s-3.71-.16-5.29,1.15c-1,.8,0,1.07-1.49,1.08-1.23,0-2.46-1.32-3.31-2.1a18.18,18.18,0,0,1-4.66-7.18L157,308.21c2.75.39,4.74,1.64,5.68,4.39l4.57-1.93a13,13,0,0,1-2.88-6.5l-2.5,2.5c3.73.33,3.14,5.92,6.07,7.35a2.56,2.56,0,0,0,3-.39,3,3,0,0,0,.77-3.16,2.53,2.53,0,0,0-2.41-1.84l-.29,0c-3.17.33-3.2,5.33,0,5Z" transform="translate(-141.34 -220.45)"/></g><g class="cls-3"><path class="cls-2" d="M173.38,327.69a47.65,47.65,0,0,1,5.19,6.25l2.82-3.67-13.88-4.91c-2.56-.9-3.9,2.45-2.43,4.18a31.31,31.31,0,0,0,11.38,8.54c2.87,1.28,5.42-2.78,2.52-4.32a21.42,21.42,0,0,1-10.71-12.66c-1-3-5.77-1.76-4.82,1.33a10,10,0,0,0,7.13,7.07,2.52,2.52,0,0,0,3.08-3.08,7.54,7.54,0,0,0-3.24-4.56c-2-1.51-4.75,1.42-3.42,3.42,3,4.56,10.5,6.79,11.54,12.28.52,2.76,5.08,2.14,4.91-.66-.37-6.15-5.6-7.72-11-7.69A2.52,2.52,0,0,0,170.3,333c5.1,7.85,16.74,10.95,25.07,14.08l1.33-4.82c-6.7-1.07-12.05-6.54-16.79-11-2.65-2.52-4-3.91-2.62-7.5.64-1.72,1.08-2.29.65-4.21a2.56,2.56,0,0,0-2.41-1.84l-1.39-.13c-3.2-.3-3.18,4.7,0,5l1.39.13-2.41-1.84c.1.45-1.9,2.73-2.12,3.28a5.2,5.2,0,0,0-.38,3.14c.55,3.13,3.58,5.44,5.76,7.5,5.3,5,11.51,11.13,19,12.32a2.5,2.5,0,0,0,1.33-4.82c-6.77-2.55-17.91-5.35-22.08-11.78l-2.16,3.76c1.85,0,5.82-.34,6,2.69l4.91-.66c-1.34-7.08-8.48-8.1-12-13.47l-3.42,3.42.94,1.57,3.08-3.08a4.42,4.42,0,0,1-3.64-3.58l-4.82,1.33a26.49,26.49,0,0,0,13,15.65l2.52-4.32A28.22,28.22,0,0,1,168.62,326l-2.43,4.18,13.88,4.91c2,.71,4-1.91,2.82-3.67a55.07,55.07,0,0,0-6-7.26c-2.26-2.3-5.79,1.23-3.54,3.54Z" transform="translate(-141.34 -220.45)"/></g><g class="cls-3"><path class="cls-2" d="M213.36,230.09h-.53a2.5,2.5,0,0,0,0,5h.53a2.5,2.5,0,0,0,0-5Z" transform="translate(-141.34 -220.45)"/></g><g class="cls-3"><path class="cls-2" d="M224.58,234l-2.52-.95c-2.63-1-4.5,3.38-1.93,4.57l16,7.44c2.87,1.33,5.4-2.76,2.52-4.32a41.9,41.9,0,0,0-12.42-4.43c-3.15-.58-4.49,4.23-1.33,4.82a37.61,37.61,0,0,1,11.23,3.93l2.52-4.32-16-7.44-1.93,4.57,2.52.95c3,1.13,4.32-3.7,1.33-4.82Z" transform="translate(-141.34 -220.45)"/></g><g class="cls-3"><path class="cls-2" d="M226.76,243.19l0,3.44c0,2.76,4.32,3.48,4.91.66a7.23,7.23,0,0,0-3.27-7.82c-2.18-1.36-4.6,1.3-3.42,3.42,1,1.8,2.29,3.6,4.38,4.16a4.81,4.81,0,0,0,5.25-2.1c2.55-4.54-4.25-7.65-7.59-8.55-3.19-.86-4.24,3.65-1.33,4.82l5.58,2.26a2.52,2.52,0,0,0,3.08-1.75,2.56,2.56,0,0,0-1.75-3.08L227,236.41l-1.33,4.82a12.06,12.06,0,0,1,2.4.88,18.94,18.94,0,0,0,2.05,1.33s.25-1.07.26-1.18c.07-.51.25.39.18-.07,0-.12-.46-.45-.59-.62a10.47,10.47,0,0,1-.71-1.2l-3.42,3.42a2.06,2.06,0,0,1,1,2.17l4.91.66,0-3.44c0-3.22-5-3.22-5,0Z" transform="translate(-141.34 -220.45)"/></g><g class="cls-3"><path class="cls-2" d="M191,255.16c3.35,1.29,11.79,2.72,12.87-2.55,1.11-5.47-7-4.64-9.94-3.66-1.83.61-2.71,3.62-.6,4.57a10.93,10.93,0,0,0,10.18-.2c1.55-.79,1.72-3.58,0-4.32-3.06-1.32-10.22-1.21-10.56,3.49-.39,5.51,8.52,5.36,11.89,4.86,3-.45,1.86-4.61-.66-4.91a22.21,22.21,0,0,0-12.94,2.35c-2,1-1.4,4,.6,4.57,5.85,1.53,11-.6,16.14-3.24,1.85-.94,1.49-4.16-.6-4.57a15.18,15.18,0,0,0-16.31,7c-1.09,1.77.38,3.55,2.16,3.76a10.46,10.46,0,0,0,9-3.21c1.85-1.83-.07-4.68-2.43-4.18-3.38.71-9.38,2.45-10.8,6.08-1.07,2.73,1.1,4.69,3.67,5,4.89.65,17-7.48,9.73-12.07-5.12-3.25-18.22,3.21-19,9.1a5,5,0,0,0,5.21,5.43c4.52,0,6.07-4.56,8.54-7.44,1.08-1.26.92-3.88-1.1-4.18-3.45-.51-7.43,0-9.3,3.37-1.55,2.78-.1,5.31,2.63,6.38s4.26-3.14,1.93-4.57a42.81,42.81,0,0,0-11.39-4.88L178.54,262c4,.92,12.43.9,12.94-4.92.49-5.53-6.43-5-9.71-3.51s-9.53,5.72-6.84,10c3.33,5.29,12.31,3.83,17.27,3l-2.82-3.67-1.3,2.77a2.57,2.57,0,0,0,.9,3.42,8.57,8.57,0,0,0,12.48-3.51c.52-1.11.43-2.84-.9-3.42-3.81-1.66-11.79-1.08-11.06,4.88.81,6.63,13.79,6.36,18.36,6,1.71-.14,3.35-2.08,2.16-3.76-2.76-3.92-7-5.61-11.67-4.17a2.57,2.57,0,0,0-1.75,3.08c.9,4.74,4.53,7.59,9.23,8a2.52,2.52,0,0,0,2.16-3.76c-3-4.6-11.28-8.66-16-3.91-5.19,5.19,5.28,10.44,9.45,10.44a2.52,2.52,0,0,0,1.26-4.66,8.57,8.57,0,0,0-6.27-1.48c-1.9.25-3.61,2.69-1.77,4.27,5.24,4.52,14,2.23,14-5.53,0-1.72-1.2-3.28-.89-4.93s1.83-2.19,2.51-3.82c1.11-2.66-.28-5-2.85-5.87v4.82a5.08,5.08,0,0,1,3.17-.65l-1.26-4.66-5.78,2.94a2.52,2.52,0,0,0,0,4.32A14.86,14.86,0,0,0,214,265c3.15-.66,1.82-5.48-1.33-4.82a9.14,9.14,0,0,1-6.54-.89v4.32l5.78-2.94c2.28-1.16,1.11-4.62-1.26-4.66a10.34,10.34,0,0,0-4.5.83c-2.22.93-2.51,4,0,4.82-2-.65-3.81,1.91-4.11,3.87a5.68,5.68,0,0,0,.4,2.71l.25.6q3.41,4.88-4.48,4.63l-1.77,4.27a3.93,3.93,0,0,1,3.75.8l1.26-4.66c-1.2,0-8.23-1.78-3.72-2.34,2.45-.3,4.75,1.42,6,3.34l2.16-3.76a4.94,4.94,0,0,1-4.41-4.3l-1.75,3.08a5.07,5.07,0,0,1,6,1.87l2.16-3.76a32.06,32.06,0,0,1-6.47,0,17.13,17.13,0,0,1-3-.5q-3.14-.29-.31-1l-.9-3.42c-1.11,2.39-3.42,3.15-5.64,1.72l.9,3.42,1.3-2.77a2.54,2.54,0,0,0-2.82-3.67c-1.91.33-11.3,1.9-10.4-1.34.51-1.86,4-1.87,5.08-2.8q2.29-.44-1.22-.17a9.4,9.4,0,0,1-4.47-.23c-3.13-.71-4.45,4-1.33,4.82a38.19,38.19,0,0,1,10.2,4.37l1.93-4.57,4-.11-1.1-4.18c-1.37,1.6-2.49,3.38-3.87,4.92-1.66,1.86,1-1,1.65-1.38a16,16,0,0,1,4.2-2c.57-.17,3.5-1.09,3.82-.72,0,0-4,2.34-4.07,2.45-2.36,2.25.08,1,1.51.3a19.06,19.06,0,0,1,4.24-1.33l-2.43-4.18a6.07,6.07,0,0,1-5.43,1.75l2.16,3.76A10,10,0,0,1,206,256.36l-.6-4.57c-3.91,2-7.81,3.91-12.29,2.74l.6,4.57a17.71,17.71,0,0,1,10.41-1.66l-.66-4.91c-1.76.26-3.9-.59-5.12.43s1.89.06,2.6.36V249a5.07,5.07,0,0,1-5.13.2l-.6,4.57c1.51-.51,3.3-1,4.83-.25l-1.24-2.16c.06.81-6.06-.84-6.52-1-3-1.15-4.31,3.68-1.33,4.82Z" transform="translate(-141.34 -220.45)"/></g><g class="cls-3"><path class="cls-2" d="M207.67,261.44l-9.49-3.06c-2.72-.88-4.36,3.17-1.93,4.57a26.27,26.27,0,0,0,11.1,3.43c2.14.19,3.33-2.88,1.77-4.27a4.5,4.5,0,0,0-7.47,2.08c-1,3.8,3.24,6.58,6.63,5.81,3.14-.72,7.06-5.21,5.06-8.45-2.22-3.61-8.1-2.07-9.9,1.08a6.19,6.19,0,0,0,4.15,9c3.68.6,8-2.78,6.52-6.71s-8.52-4.33-11.59-2.34c-4.05,2.64-1.13,8,1.51,10.51,3.33,3.22,9.62,3.8,9.12-2.46-.43-5.36-5.67-8.12-10.52-7.43-1.58.22-2.3,2.45-1.49,3.67,1.92,2.93,4.86,5.38,8.61,4.63a6.29,6.29,0,0,0,5-6.36,2.53,2.53,0,0,0-2.5-2.5,21.92,21.92,0,0,0-11.34,3.47,2.53,2.53,0,0,0,0,4.32c2.76,1.84,11.73,4.67,11.57-1.53-.15-5.79-10-7.53-14.22-7.45a2.52,2.52,0,0,0-1.26,4.66c4.61,2.7,13.29,5.85,17.12.27,3.11-4.52-1.53-10.32-6.48-7.44a2.52,2.52,0,0,0,0,4.32,12.41,12.41,0,0,0,8.57,1.14c2.21-.44,2.31-3.5.6-4.57a21.19,21.19,0,0,0-9.59-3.17c-2.82-.27-3.38,4.27-.66,4.91,3.81.9,10.48.17,9.37-5.51-1-5.36-9.65-4.64-13.42-4-2.7.47-2,4,0,4.82a28.22,28.22,0,0,0,9.4,2c2.1.1,2.84-2.15,2.16-3.76a14.6,14.6,0,0,0-5.58-6.62c-2-1.38-4.84,1.39-3.42,3.42a11.43,11.43,0,0,0,12.49,4.87c3.14-.72,1.81-5.54-1.33-4.82a6.18,6.18,0,0,1-6.85-2.57L206,252.84a10.13,10.13,0,0,1,3.79,4.82l2.16-3.76a24.24,24.24,0,0,1-8.07-1.79v4.82a13.78,13.78,0,0,1,5.36-.1q3.91.91-1.31-.05l-.66,4.91a15.51,15.51,0,0,1,7.06,2.49l.6-4.57a5.84,5.84,0,0,1-4.71-.64v4.32c-2.11,1.23-3.11,1.32-5.61.7a19,19,0,0,1-5-2.17l-1.26,4.66c2.69,0,4.42.86,6.93,1.39q1.64,1.65,1.23-.27a7.64,7.64,0,0,1-3-1.46v4.32a16.7,16.7,0,0,1,8.81-2.79l-2.5-2.5q-2.83,2.7-4.32-.8L204,268a3.78,3.78,0,0,1,4.12,2.48,5.52,5.52,0,0,0-1.19-1.76q-1.31-.87-.19-2.18,4.76.6-1.13-.93l1.77-4.27a20.24,20.24,0,0,1-8.58-2.75l-1.93,4.57,9.49,3.06c3.07,1,4.38-3.84,1.33-4.82Z" transform="translate(-141.34 -220.45)"/></g><g class="cls-3"><path class="cls-2" d="M217.18,261.33l3.81-.7c2.65-.49,2.08-4,0-4.82a13.65,13.65,0,0,0-9.91.1c-2,.79-2.73,4.39,0,4.82,3,.46,5.6-.9,6.38-3.92s-3.84-4.39-4.82-1.33c-1.05,3.29.66,7.33,4.31,7.89,3.83.59,6.42-2.83,5.94-6.34-.19-1.42-1.9-2-3.08-1.75a12.23,12.23,0,0,0-8.61,6.21c-.72,1.28-.15,3.4,1.49,3.67a8.52,8.52,0,0,0,7.66-2.22c1.66-1.64,3.32-4.9,1.43-7s-5.31-1.46-7.35-.17a6.7,6.7,0,0,0-2.94,7.22,7.33,7.33,0,0,0,13.21,2.19c1.64-2.48,1.67-5.81-.82-7.71-2.88-2.19-6.3-1-9.14.61l2.52,4.32c2.12-1.58,2.91-4.7.6-6.58a4,4,0,0,0-6.36,2.7c-.37,3.12,2.69,4.73,5.42,4.56,3.24-.2,6.37-2.25,8.58-4.5a2.53,2.53,0,0,0-1.77-4.27,14.76,14.76,0,0,0-11.35,4.11c-1.74,1.63.06,5.08,2.43,4.18,3-1.16,12.69-6.65,6.7-10.43-4-2.54-12-.15-11.17,5.49.73,4.81,9.25,6,11.7,2,3.8-6.15-7.43-8.5-11.22-8.53a2.52,2.52,0,0,0-1.26,4.66,17.94,17.94,0,0,0,15.18,1.82c2.22-.73,2.53-4.24,0-4.82a19.13,19.13,0,0,0-11.17.65c-1.84.69-2.68,3.52-.6,4.57a9.29,9.29,0,0,0,12.15-3.23c1.77-2.7-2.55-5.2-4.32-2.52a4.16,4.16,0,0,1-5.3,1.44l-.6,4.57a14.39,14.39,0,0,1,8.51-.65V252.8a13,13,0,0,1-11.32-1.32l-1.26,4.66a14.25,14.25,0,0,1,4.76.77c-.37-.13,3.5,1.52,1.71.09-.3-.24-1.66.21-1.51-.38s1.75-.21,2-.29l.9.06q.09-2.39-.78-1.32c-.56.11-1.34,1.11-1.91,1.46a14.1,14.1,0,0,1-2.54,1.25l2.43,4.18a9.85,9.85,0,0,1,7.81-2.65L222,255.05a11,11,0,0,1-3,2.28,8.11,8.11,0,0,1-1.66.63,20.08,20.08,0,0,1-2.54.13c-2.52,1.88-.36,5.92,2.52,4.32.73-.41,3.28-1.94,3.51-.69.2,1.08-1.74,2-2.58,1.87-3.11-.38-1.61-5.13.56-3.7l-1.15-1.49c.34,1.27-2.93,2.06-3.58,1.95l1.49,3.67a7.54,7.54,0,0,1,5.62-3.91l-3.08-1.75c-.06-.48-.31.47-.55-.14a1.56,1.56,0,0,1-.06-1.41l-4.82-1.33-.23.43v4.82a9.45,9.45,0,0,1,7.25-.1V255.8l-3.81.7c-3.16.58-1.82,5.4,1.33,4.82Z" transform="translate(-141.34 -220.45)"/></g><g class="cls-3"><path class="cls-2" d="M227.14,253.64c3.22,0,3.22-5,0-5s-3.22,5,0,5Z" transform="translate(-141.34 -220.45)"/></g><g class="cls-3"><path class="cls-2" d="M225.59,256.29a42,42,0,0,0,12.18-1l-1.33-4.82c-2.81.64-8.27,1.07-9,4.69-.73,3.87,3,5.46,6.17,5.71,2,.16,3.47-2.95,1.77-4.27a21,21,0,0,0-9-4.21c-1.63-.32-3.88,1.15-3.08,3.08,1.69,4,6.6,6.64,10.27,3.1a5.3,5.3,0,0,0-3.72-9.1c-1.47,0-3,1.65-2.41,3.16a9.84,9.84,0,0,0,6.18,6c2.44.77,6.46.83,7.81-1.8,1.69-3.3-2.21-5.33-4.78-6a22.27,22.27,0,0,0-11.49.3,2.53,2.53,0,0,0-1.49,3.67,6.35,6.35,0,0,0,7.83,3.1c3-1.1,1.7-5.93-1.33-4.82a1.5,1.5,0,0,1-2.19-.8L226.56,256a17.8,17.8,0,0,1,5.33-.75c1.14,0,4.73.06,5.33,1.3l-.25-1.93-.16.59,1.15-1.49c-2,1.17-4.82-.4-5.62-2.36l-2.41,3.16q.52.91-.61.74a1.87,1.87,0,0,1-1.12-1.06l-3.08,3.08a15.74,15.74,0,0,1,6.77,2.93l1.77-4.27q-1.1-.47-1.25.8l1.78-.5c1.19-.32,2.39-.6,3.59-.88,3.14-.71,1.81-5.53-1.33-4.82a37.24,37.24,0,0,1-10.85.8c-3.21-.22-3.2,4.78,0,5Z" transform="translate(-141.34 -220.45)"/></g><g class="cls-3"><path class="cls-2" d="M223.94,253.93a12.22,12.22,0,0,0-8.1,3.32c-1.64,1.46-.32,4.28,1.77,4.27,7.72-.06,12.41-5.49,16.64-11.29,1.14-1.57-.4-3.78-2.16-3.76l-2.17,0c-3.29,0-3.12,4.64,0,5a8,8,0,0,0,4.15-.54,2.55,2.55,0,0,0,1.75-3.08l-.14-.46a2.55,2.55,0,0,0-2.41-1.84l-.57,0a2.57,2.57,0,0,0-2.41,1.84c-.95,3.92,3.53,6.54,7,5.29,4.2-1.52,4.32-6.58,1.56-9.45a2.53,2.53,0,0,0-4.27,1.77l.12,5.64a2.53,2.53,0,0,0,3.76,2.16l.47-.25h-2.52c1.19.72,2.32,6.19,2.83,7.6,1.09,3,5.93,1.7,4.82-1.33s-2.78-13.23-8.12-10.34l3.76,2.16-.12-5.64-4.27,1.77-.2,2-2.41,1.84.57,0-2.41-1.84.14.46,1.75-3.08a3.56,3.56,0,0,1-2.82.36v5l2.17,0-2.16-3.76c-3.12,4.28-6.53,8.77-12.32,8.81l1.77,4.27a5.84,5.84,0,0,1,4.56-1.86c3.2-.16,3.22-5.16,0-5Z" transform="translate(-141.34 -220.45)"/></g><g class="cls-3"><path class="cls-2" d="M244.41,274.52l1.9,1.47a2.5,2.5,0,0,0,3.42-.9,4.91,4.91,0,0,0,.31-3.95c-.63-1.6-2.82-2.66-4.18-1.1a6.26,6.26,0,0,0,1.15,9.33,2.52,2.52,0,0,0,3.42-.9,2.55,2.55,0,0,0-.9-3.42q.23.18-.1-.13.18.24-.07-.14c.2.39-.18-.75-.11-.27a4,4,0,0,1,0-.54q-.07.33,0-.12c.05-.18.18-.35.12-.28l-4.18-1.1c.2.51.07.38.2.1l3.42-.9-1.9-1.47a2.51,2.51,0,0,0-3.42.9,2.56,2.56,0,0,0,.9,3.42Z" transform="translate(-141.34 -220.45)"/></g><g class="cls-3"><path class="cls-2" d="M241.66,272c-3.36,2.93-2.29,8.12,1.37,10.25,1.75,1,4.43,1.71,6.22.43,1.64-1.17,1.77-3.36,1.2-5.14a6,6,0,0,0-9.52-2.84c-3.46,3-1.89,8.18,2.2,9.56,2,.68,3.31-1.36,3.08-3.08-.43-3.23-2.17-6.79-5.6-7.66a6.06,6.06,0,0,0-7.05,3.73c-2.29,7.11,11.47,10.93,11.32,2.58-.06-3.21-5.06-3.22-5,0,0-.13-3-1.84-.5-1.47,1.52.22,1.87,3,2,4.15l3.08-3.08c-.7-.24-.52-.9,0-1.13,1.27-.52.58,1.19,1.71.44s-.78-.67-1.26-1.37a1.2,1.2,0,0,1,.26-1.85c2.43-2.12-1.12-5.64-3.54-3.54Z" transform="translate(-141.34 -220.45)"/></g><g class="cls-3"><path class="cls-2" d="M237.71,277.52c-1.83,2.15-2.84,5.57-.56,7.83,1.91,1.89,5.5,1.82,6.85-.7a2.5,2.5,0,0,0-4.32-2.52q-.21.36.1-.09a1.11,1.11,0,0,1,.53-.33c-.45.2.52-.08,0,0q.51.08.22,0t.18.09q-.35-.21.06.09-.23-.24,0,0a.57.57,0,0,1,.16.33q-.11-.44-.05,0v-.24q-.09.4,0,0c0-.08.29-.67.1-.32a4.88,4.88,0,0,1,.25-.43q.25-.37.06-.08a2.57,2.57,0,0,0,0-3.54,2.52,2.52,0,0,0-3.54,0Z" transform="translate(-141.34 -220.45)"/></g><g class="cls-3"><path class="cls-2" d="M238.12,279l5.82,1.63c3.1.87,4.43-4,1.33-4.82l-5.82-1.63c-3.1-.87-4.43,4-1.33,4.82Z" transform="translate(-141.34 -220.45)"/></g><g class="cls-3"><path class="cls-2" d="M248.59,280.46a6.41,6.41,0,0,0,3.66-6,2.5,2.5,0,0,0-5,0c0,.15,0,.29,0,.44,0-.44,0-.09,0,.09s-.17.47-.06.22-.18.29-.17.29c-.12.2-.17.18,0,0l-.31.31c.24-.24.07,0-.11.06a4.41,4.41,0,0,1-.49.24,2.51,2.51,0,0,0-.9,3.42,2.58,2.58,0,0,0,3.42.9Z" transform="translate(-141.34 -220.45)"/></g><g class="cls-3"><path class="cls-2" d="M251.37,266v-1.59a2.5,2.5,0,0,0-5,0V266a2.5,2.5,0,0,0,5,0Z" transform="translate(-141.34 -220.45)"/></g><g class="cls-3"><path class="cls-2" d="M248.21,268.32a9.55,9.55,0,0,1,4.18,1.66,2.52,2.52,0,0,0,3.76-2.16,12.7,12.7,0,0,0-2.52-7.19c-1.6-2.14-5.37-1-4.57,1.93a8.66,8.66,0,0,0,5.59,6.07,2.43,2.43,0,0,0,2.43-.64c2.78-3,.16-8.21-4.07-7.35-5.52,1.12-4.1,7.81-1.47,10.85a2.51,2.51,0,0,0,3.93-.51,8,8,0,0,0,.1-7.46c-.88-2-4.13-1.4-4.57.6a14.36,14.36,0,0,0,2.63,12.26c3.06,3.79,7.13,2.91,8.37-1.94a7.92,7.92,0,0,0-4.95-9.39c-4.35-1.6-6.85.81-7,5.06-.14,3.76,1.28,8.24,6.07,7.05,3.72-.93,6.38-5.41,4.93-9.05a5.74,5.74,0,0,0-8.31-2.61c-3,2.09-2.59,7.3-.85,10.13,2.16,3.51,7.45,3.52,8.71-.72,1.21-4,.14-10-4.74-10.76a2.58,2.58,0,0,0-2.82,1.15c-1.25,2.71-1.9,6-.35,8.79a4.23,4.23,0,0,0,6.2,1.58c5.48-3.93.5-11.3-4.14-13-1.57-.59-3.13.91-3.16,2.41a4.67,4.67,0,0,0,1.87,4.17c1.75,1.38,5.08.19,4.18-2.43a16.6,16.6,0,0,0-4.72-7.23l-1.77,4.27,1.72-.23a2.55,2.55,0,0,0,2.16-3.76c-1.41-3.12-5.91-5-8.18-1.51-2,3.11,1.09,6.49,4.37,5.65A2.47,2.47,0,0,0,253,262.2a5,5,0,0,0-1.25-4.89c-2.08-2.46-5.6,1.09-3.54,3.54l0,0,1.75-1.75,1.23.4-.25,1.93-.15.88,2.16-3.76-1.72.23c-1.93.25-3.57,2.66-1.77,4.27a11.48,11.48,0,0,1,3.44,5l4.18-2.43-.4-.63-3.16,2.41c2.39.89,1.5,1.73,2.75,3.43s.85-2.32,1.19-3.06L254.54,269c1.39.21,1.41,1.34,1.45,2.53,0,.38.18,1.85-.09,1.22a6,6,0,0,1-.32-2.48c.32-1.45.84.67.06,1.38-1.06,1-.61-.15-.6-1l0-1.64-.74.52c2,.3,4.43,3.38,2,4.84h2.52c-3.08-1.51-3.73-6-3.08-8.93l-4.57.6-.1,2.41,3.93-.51a7.6,7.6,0,0,1-1.54-3.49l2.43-.64a3.15,3.15,0,0,1-2.1-2.58l-4.57,1.93a8.09,8.09,0,0,1,1.84,4.67l3.76-2.16a12.75,12.75,0,0,0-5.38-2.16c-3.15-.5-4.5,4.31-1.33,4.82Z" transform="translate(-141.34 -220.45)"/></g><g class="cls-3"><path class="cls-2" d="M249.56,249.16a7.12,7.12,0,0,0,2.24,4.06c2,1.83,5.73-.68,3.93-3a6.87,6.87,0,0,0-5.7-3,2.54,2.54,0,0,0-2.41,3.16,14.19,14.19,0,0,0,6.2,9.51c1.74,1.19,3.55-.46,3.76-2.16a10.32,10.32,0,0,0-3.14-8.63,2.53,2.53,0,0,0-4.27,1.77,7.09,7.09,0,0,0,3.23,6.16,2.5,2.5,0,0,0,3-.39c3.43-4.32,1-10.61-4.82-10.66a2.53,2.53,0,0,0-2.41,1.84,5.83,5.83,0,0,0,3.76,6.88,2.52,2.52,0,0,0,3.08-1.75,2.56,2.56,0,0,0-1.75-3.08c-.26-.11-.32-.5-.27-.73L251.6,251c1.07,0,2.12,1.08,1.29,2.12l3-.39a2,2,0,0,1-.75-1.84l-4.27,1.77a5.66,5.66,0,0,1,1.68,5.09l3.76-2.16a9.35,9.35,0,0,1-3.9-6.52L250,252.21a1.6,1.6,0,0,1,1.38.5l3.93-3a2.8,2.8,0,0,1-1-1.85c-.54-3.16-5.36-1.82-4.82,1.33Z" transform="translate(-141.34 -220.45)"/></g><g class="cls-3"><path class="cls-2" d="M247.16,259l-3.73-5.16-3.93,3a35.68,35.68,0,0,0,5.46,4.34c2,1.27,4.08-.82,3.67-2.82a9.25,9.25,0,0,0-2.85-5.09c-1.44-1.36-4.49-.51-4.27,1.77a10.36,10.36,0,0,0,4.6,7.93c1.44,1,4-.32,3.76-2.16a10.4,10.4,0,0,0-7.06-8.92,2.51,2.51,0,0,0-3.16,2.41,14.16,14.16,0,0,0,6.66,11.24,2.52,2.52,0,0,0,3.42-.9c2.62-5.18-1.78-9-6.5-10.18-2-.51-3.33,1.23-3.08,3.08a16.61,16.61,0,0,0,3.32,7.94c1.4,1.83,4.68,1.45,4.66-1.26a18.08,18.08,0,0,0-4.51-11.93c-1.93-2.27-5.12.62-3.93,3a10.93,10.93,0,0,0,4.72,4.86,2.53,2.53,0,0,0,3.67-2.82,17,17,0,0,0-5.5-9.85,2.52,2.52,0,0,0-4.18,2.43,18,18,0,0,0,7.39,10.66c1.76,1.24,4.36-.82,3.67-2.82a17,17,0,0,0-5.44-7.95,2.54,2.54,0,0,0-4.27,1.77,20.78,20.78,0,0,0,1,8.61c1,3,5.83,1.74,4.82-1.33a17.07,17.07,0,0,1-.8-7.28l-4.27,1.77a12.29,12.29,0,0,1,4.15,5.74l3.67-2.82a12.77,12.77,0,0,1-5.09-7.67l-4.18,2.43a12.76,12.76,0,0,1,4.21,7.64l3.67-2.82a6.39,6.39,0,0,1-2.92-3.06l-3.93,3a12.74,12.74,0,0,1,3,8.39L247.8,263a13.61,13.61,0,0,1-2.82-6.75l-3.08,3.08c.95.24,4.43,1,3.51,2.83l3.42-.9a8.86,8.86,0,0,1-4.18-6.92l-3.16,2.41a5.12,5.12,0,0,1,3.39,4.1l3.76-2.16a4.87,4.87,0,0,1-2.13-3.61l-4.27,1.77a4.71,4.71,0,0,1,1.56,2.88l3.67-2.82a29,29,0,0,1-4.45-3.56c-2-1.9-5.65.65-3.93,3l3.73,5.16c1.87,2.58,6.21.09,4.32-2.52Z" transform="translate(-141.34 -220.45)"/></g><g class="cls-3"><path class="cls-2" d="M191.34,269.6a9,9,0,0,0-10,.27,2.53,2.53,0,0,0,0,4.32,10.92,10.92,0,0,0,11.7.26c2-1.12,1.3-3.85-.6-4.57a7,7,0,0,0-8.16,2c-1.36,1.52-.52,4.38,1.77,4.27a9.52,9.52,0,0,0,8.3-5c.73-1.26.14-3.43-1.49-3.67-4.55-.69-8.3.85-10.73,4.85a2.53,2.53,0,0,0,.9,3.42c5.33,2.91,11.34-.09,14.42-4.94a2.5,2.5,0,0,0,0-2.52c-3-5.31-18.59-2.47-18.23,4.12.19,3.51,4.26,3.56,6.79,3a24,24,0,0,0,12.83-7.68,2.54,2.54,0,0,0-1.77-4.27,13,13,0,0,0-9,2.17,2.5,2.5,0,0,0,2.52,4.32,41.54,41.54,0,0,0,9.43-6.3c2-1.79-.2-4.58-2.43-4.18a14.84,14.84,0,0,0-8.32,4.48,2.52,2.52,0,0,0,1.1,4.18,14.26,14.26,0,0,0,10-.92l-3-3.93c-1.71,1.54-3.5,3.72-5.46,4.91-1.63,1-3.52,1.15-5.31,1.59a16.52,16.52,0,0,0-7.2,4.06,2.54,2.54,0,0,0-.39,3,4,4,0,0,0,6.23,1.33c2.33-2,1.88-5.72.59-8.1s-4.1-4.78-6.89-4.11a4.24,4.24,0,0,0-2.68,6c2.5,5.24,14.84,3.17,12.5-3-2.18-5.74-16.22-4.81-17.33,1.34a2.58,2.58,0,0,0,1.75,3.08c4,1.4,10.06,1.75,11.13-3.61.78-3.86-2.8-6.58-6.41-6.23s-9.07,5-8.31,9c1,5.27,8.33,3.7,11.79,2.55,1.63-.54,2.65-2.9,1.1-4.18-3.19-2.65-9.39-1.6-9.83,3.21a4,4,0,0,0,7.07,3.09c1.37-1.48.51-4.42-1.77-4.27a12.85,12.85,0,0,0-6.2,1.92c-2.32,1.42-.84,5.56,1.93,4.57l4.43-1.6c3-1.08,1.71-5.92-1.33-4.82l-4.43,1.6,1.93,4.57a5.83,5.83,0,0,1,3.68-1.23l-1.77-4.27,2.76.77,1.1-4.18c-.54.18-4.11,1.79-4.43.23l1.7-1.58a2.77,2.77,0,0,1-2.81-.33l1.75,3.08c.16-.9,7.56-2.09,7.85-.43l.64-2.43q-5.69,3.64-1.41,5.57l-.39,3c3.16-2.87,6.37-2.18,9.87-3.74,3.09-1.39,5.63-4.6,8.1-6.82,2.27-2-.62-5-3-3.93a7.6,7.6,0,0,1-6.1.42l1.1,4.18a10.49,10.49,0,0,1,6.12-3.2l-2.43-4.18A36.78,36.78,0,0,1,188,265.7l2.52,4.32a8.91,8.91,0,0,1,6.51-1.49l-1.77-4.27a21.32,21.32,0,0,1-4.11,3.71c-1.65,1.08-4.36,1.37-5.77,2.51q-1.7,0-.67,2.11a7.89,7.89,0,0,1,2.46-1.18c.85-.31,5.24-1.72,5.92-.53v-2.52c-1.37,2.16-4.9,4.62-7.58,3.15l.9,3.42a4.54,4.54,0,0,1,5.08-2.55L190,268.68a4,4,0,0,1-4,2.49l1.77,4.27,3.29-.75-.6-4.57a6.08,6.08,0,0,1-6.65-.26v4.32a3.84,3.84,0,0,1,5-.27c2.8,1.59,5.32-2.73,2.52-4.32Z" transform="translate(-141.34 -220.45)"/></g><g class="cls-3"><path class="cls-2" d="M246.56,291.57l1.2-3h-4.82c.56,2.41,2.71,4.72,5.4,4.07s4.1-4.09,2.06-6.13-5,.24-5.81,2.32a5.25,5.25,0,0,0,1.25,5.52,2.53,2.53,0,0,0,4.18-1.1,17.83,17.83,0,0,0,.82-4.51,2.52,2.52,0,0,0-2.5-2.5,4.69,4.69,0,0,0-4.4,6.42c.62,1.5,2.25,3.1,4,2.61a4.09,4.09,0,0,0,2.87-3.82,2.52,2.52,0,0,0-2.5-2.5,2.55,2.55,0,0,0-2.5,2.5,1,1,0,0,1,.8-1l1.93.25c-.46-.26.11,0,0,.33,0,.11-.16.14-.21.22h-.11q.45-.14.13,0l-2.5-2.5a12.51,12.51,0,0,1-.64,3.18l4.18-1.1c-.31-.29,0,.19-.06,0s.13.38,0,0,0-.37,0,0c0-.08.06-.64,0-.28s0-.11.07-.16c.16-.26-.24.36,0,0a1.75,1.75,0,0,1-.38.37c.29-.23-.16.06-.37.08l-2.16-1.24a1.36,1.36,0,0,1,.21-1.52c.5-.44.86-.17,1.37-.06,0,0-.09-.1-.13-.17a2.22,2.22,0,0,1-.16-.54,2.53,2.53,0,0,0-2.41-1.84,2.61,2.61,0,0,0-2.41,1.84l-1.2,3a2.52,2.52,0,0,0,1.75,3.08,2.56,2.56,0,0,0,3.08-1.75Z" transform="translate(-141.34 -220.45)"/></g><g class="cls-3"><path class="cls-2" d="M244.1,288.09c3.22,0,3.22-5,0-5s-3.22,5,0,5Z" transform="translate(-141.34 -220.45)"/></g><g class="cls-3"><path class="cls-2" d="M245.91,287.39a21.05,21.05,0,0,0,5.37-9.2l-4.82-1.33A4.47,4.47,0,0,0,247.6,281c2.2,2.36,5.73-1.18,3.54-3.54l.14.7c.58-3.12-3.94-4.47-4.82-1.33a15.84,15.84,0,0,1-4.08,7c-2.27,2.28,1.26,5.82,3.54,3.54Z" transform="translate(-141.34 -220.45)"/></g><g class="cls-3"><path class="cls-2" d="M251.92,281.47l3.31,3.89c1,1.2,2.05,2.55,3.66,3a3.63,3.63,0,0,0,3.78-5.84c-2.1-2.45-5.62,1.1-3.54,3.54l.19.23-.64-1.1.62-1.57h1.33c-.92-.14-1.77-1.66-2.39-2.39l-2.79-3.27c-2.09-2.45-5.61,1.1-3.54,3.54Z" transform="translate(-141.34 -220.45)"/></g><g class="cls-3"><path class="cls-2" d="M263.75,296.59a4.19,4.19,0,0,0-.59,3,3,3,0,0,0,2.13,2.22,3.14,3.14,0,0,0,2.68-.58,2.8,2.8,0,0,0,.7-3.57,2.51,2.51,0,0,0-3.42-.9,2.57,2.57,0,0,0-.9,3.42l0,.08-.34-1.26,1.08-1.84.43-.18.48-.07q1.93.19,1.86,1.71,0,1,.11.59.06-.19,0,.07c-.18.37.07-.1.09-.14a2.5,2.5,0,1,0-4.32-2.52Z" transform="translate(-141.34 -220.45)"/></g><g class="cls-3"><path class="cls-2" d="M198.53,250.26l2-2.76a2.51,2.51,0,0,0-.9-3.42,2.57,2.57,0,0,0-3.42.9l-2,2.76a2.51,2.51,0,0,0,.9,3.42,2.57,2.57,0,0,0,3.42-.9Z" transform="translate(-141.34 -220.45)"/></g><g class="cls-3"><path class="cls-2" d="M210.93,236.78a4.9,4.9,0,0,0-3.25-.85c-3.17.24-3.26,5,0,5h8.17c3.3,0,3.11-4.63,0-5a7.94,7.94,0,0,0-4.62.9c-2,1-1.31,4,.6,4.57a12.69,12.69,0,0,0,10.09-1c2.83-1.53.31-5.85-2.52-4.32a7.54,7.54,0,0,1-6.23.53l.6,4.57a2.93,2.93,0,0,1,2.1-.22v-5h-8.17v5l.72.17c2.7,1.76,5.21-2.57,2.52-4.32Z" transform="translate(-141.34 -220.45)"/></g><g class="cls-3"><path class="cls-2" d="M209,238.78a19.58,19.58,0,0,0-2.55,3,7.29,7.29,0,0,0-1.63,3.84,3.47,3.47,0,0,0,2.2,3.2,4.36,4.36,0,0,0,1.81.35c.51,0,1.5-.43,1.79-.38a2.59,2.59,0,0,0,3.08-1.75c.32-1.17-.4-2.89-1.75-3.08a6.69,6.69,0,0,0-2.63.06.73.73,0,0,0-.46.13q-.08,0,.06.06l.8,1.88q.14-.28.29-.55a13.69,13.69,0,0,1,2.53-3.25c2.32-2.24-1.22-5.77-3.54-3.54Z" transform="translate(-141.34 -220.45)"/></g><g class="cls-3"><path class="cls-2" d="M203.18,245.08l-1,2.31a2.54,2.54,0,0,0,2.82,3.67,30.28,30.28,0,0,0,13.8-6.67c2.47-2.07-1.08-5.59-3.54-3.54a25.2,25.2,0,0,1-11.59,5.38l2.82,3.67,1-2.31c1.25-2.93-3.05-5.48-4.32-2.52Z" transform="translate(-141.34 -220.45)"/></g><g class="cls-3"><path class="cls-2" d="M209.1,245.68a4.33,4.33,0,0,0-.33,3.69,2.57,2.57,0,0,0,3.08,1.75,29.54,29.54,0,0,0,9.63-4.23c2.65-1.79.15-6.12-2.52-4.32a25.48,25.48,0,0,1-8.43,3.73l3.08,1.75-.17.16c1.44-2.87-2.87-5.4-4.32-2.52Z" transform="translate(-141.34 -220.45)"/></g><g class="cls-3"><path class="cls-2" d="M215.15,245.16a4.18,4.18,0,0,0,.48,3.64,4.4,4.4,0,0,0,3.56,2,2.52,2.52,0,0,0,2.5-2.5,2.55,2.55,0,0,0-2.5-2.5c-.46,0,.6.16.18,0,0,0,.56.25.26.1s.48.37.12.08.28.39.12.16.07-.19.06.2c0-.09-.1-.52,0,0s0,0,0,0-.17.7,0,.19a2.51,2.51,0,0,0-.25-1.93,2.5,2.5,0,0,0-4.57.6Z" transform="translate(-141.34 -220.45)"/></g><g class="cls-3"><path class="cls-2" d="M212.4,248.82a4.86,4.86,0,0,0,3.49,6.2,2.5,2.5,0,0,0,1.33-4.82l-.23,0q-.19-.06.08,0c.35.31-.05-.14-.11-.09s.47.41.1,0q-.13-.15,0,.07t0,0l-.07-.14.13.3s-.14-.63-.06-.13,0-.13,0-.13-.15.6.06.06a2.51,2.51,0,0,0-1.75-3.08,2.57,2.57,0,0,0-3.08,1.75Z" transform="translate(-141.34 -220.45)"/></g><g class="cls-3"><path class="cls-2" d="M180.39,290.36c-.13-2.77-1.23-8.78-5.27-7.71-1.91.51-2.5,2.47-3.22,4.09a14.11,14.11,0,0,0-1.7,5.68c0,3.27,2.88,6.4,6.32,5.49,4.06-1.08,4.17-5.71,3.48-9l-4.57,1.93,2.3,3a2.59,2.59,0,0,0,3.42.9,2.51,2.51,0,0,0,.9-3.42l-2.3-3c-1.68-2.18-5.18-1-4.57,1.93a4.64,4.64,0,0,1,.1,2.72c-.15.37-.08-.54-.07-.89a8.4,8.4,0,0,1,1-2.78l.62-1.4q.77-1.14-.18-.44l-1.93-.25q-.39-.52,0,.1a4.59,4.59,0,0,1,.37,1,8.57,8.57,0,0,1,.32,2.09c.15,3.2,5.15,3.22,5,0Z" transform="translate(-141.34 -220.45)"/></g><path class="cls-2" d="M185.22,324.06c3.22,0,3.22-5,0-5s-3.22,5,0,5Z" transform="translate(-141.34 -220.45)"/><path class="cls-2" d="M173.67,233.48l-1.86,1.62,3.54,3.54,1.82-1.88c1.89-2-.66-5.66-3-3.93l-4.19,3.06a2.51,2.51,0,0,0,1.93,4.57,8.37,8.37,0,0,0,6.83-6.61A2.53,2.53,0,0,0,175,231a13.18,13.18,0,0,0-6.06,5.51c-1.58,2.61,1.83,4.67,3.93,3a14.66,14.66,0,0,0,3.29-3.62c1.38-2-1.37-4.81-3.42-3.42a65.63,65.63,0,0,0-11.33,9.65c-2.19,2.35,1.28,5.85,3.54,3.54a30.91,30.91,0,0,1,7.52-5.7l-3.42-3.42a9.46,9.46,0,0,1-2.51,3.29c-2.16,2.15.57,5,3,3.93a11.64,11.64,0,0,0,5.09-4.22c1.47-2-1.43-4.82-3.42-3.42a38.65,38.65,0,0,0-5.13,4.28l3.93,3,1.11-1.76c1.11-1.76-.75-4.42-2.82-3.67a25.8,25.8,0,0,0-4.18,1.92c-2.62,1.51-.73,5,1.93,4.57,5.14-.79,9-3.89,13.1-6.81a84.69,84.69,0,0,1,15.34-8.49c2.52-1.08.9-4.46-1.26-4.66-8.89-.8-16.44,3.68-23.59,8.42-2.67,1.77-.17,6.1,2.52,4.32,6.42-4.25,13.06-8.46,21.07-7.74L192,224.91a84.56,84.56,0,0,0-14,7.54c-4.25,2.87-8,6.44-13.28,7.25l1.93,4.57a12.37,12.37,0,0,1,3-1.41l-2.82-3.67L165.75,241c-1.53,2.42,1.93,5,3.93,3a30.38,30.38,0,0,1,4.12-3.49l-3.42-3.42a6.12,6.12,0,0,1-3.3,2.43l3,3.93a19.07,19.07,0,0,0,3.3-4.3A2.52,2.52,0,0,0,170,235.7a35,35,0,0,0-8.54,6.48l3.54,3.54a59.56,59.56,0,0,1,10.32-8.87l-3.42-3.42a7.89,7.89,0,0,1-2.51,2.61l3.93,3a8.73,8.73,0,0,1,4.26-3.71l-3.67-2.82q-.57,3-3.34,3.12l1.93,4.57,4.19-3.06-3-3.93-1.82,1.88c-2.26,2.34,1.13,5.64,3.54,3.54L177.2,237c2.43-2.12-1.12-5.64-3.54-3.54Z" transform="translate(-141.34 -220.45)"/></g></svg>