<svg xmlns="http://www.w3.org/2000/svg" viewBox="0 0 61.11 52.41"><defs><style>.cls-1{fill:#c5e8ee;}.cls-1,.cls-2{stroke:#eff8fb;}.cls-1,.cls-2,.cls-3{stroke-miterlimit:10;}.cls-2{fill:#f0f2bd;}.cls-3{fill:#eced93;stroke:#f0ee8a;}</style></defs><title>stars</title><g id="Layer_3" data-name="Layer 3"><polygon class="cls-1" points="11 46.17 7.93 39.96 1.07 38.97 6.04 34.13 4.86 27.3 11 30.53 17.13 27.3 15.96 34.13 20.92 38.97 14.06 39.96 11 46.17"/><polygon class="cls-2" points="50.12 19.79 47.05 13.57 40.2 12.58 45.16 7.74 43.98 0.91 50.12 4.14 56.25 0.91 55.08 7.74 60.04 12.58 53.18 13.57 50.12 19.79"/><polygon class="cls-3" points="43.62 51.28 42.56 49.13 40.2 48.79 41.91 47.12 41.5 44.76 43.62 45.87 45.74 44.76 45.34 47.12 47.05 48.79 44.68 49.13 43.62 51.28"/></g></svg>