<svg xmlns="http://www.w3.org/2000/svg" viewBox="0 0 162.56 158.63"><defs><style>.cls-1{fill:#faf17f;}.cls-2{fill:#fedb48;stroke:#f9da41;stroke-miterlimit:10;}</style></defs><title>sun</title><g id="Layer_1" data-name="Layer 1"><path class="cls-1" d="M174.25,248.61c.38-.38.77-.68,1.15-1l1.15-.9c.77-.59,1.53-1.12,2.3-1.61,1.53.07,3.07,0,4.6,0h23a41.2,41.2,0,0,1,4.6,3.5,41.2,41.2,0,0,1-4.6,3.5h-23c-1.53,0-3.07,0-4.6,0-.77-.49-1.53-1-2.3-1.61l-1.15-.9C175,249.28,174.63,249,174.25,248.61Z" transform="translate(-174.25 -169.29)"/><path class="cls-1" d="M300,248.61c.38-.38.77-.68,1.15-1l1.15-.9c.77-.59,1.53-1.12,2.3-1.61,1.53.07,3.07,0,4.6,0h23a41.2,41.2,0,0,1,4.6,3.5,41.2,41.2,0,0,1-4.6,3.5h-23c-1.53,0-3.07,0-4.6,0-.77-.49-1.53-1-2.3-1.61l-1.15-.9C300.75,249.28,300.37,249,300,248.61Z" transform="translate(-174.25 -169.29)"/><path class="cls-1" d="M255.53,205.83c-.38-.38-.68-.76-1-1.14l-.9-1.14c-.59-.76-1.12-1.52-1.61-2.28.07-1.52,0-3,0-4.57V173.86a40.92,40.92,0,0,1,3.5-4.57,40.92,40.92,0,0,1,3.5,4.57V196.7c0,1.52,0,3,0,4.57-.49.76-1,1.52-1.61,2.28l-.9,1.14C256.21,205.07,255.9,205.45,255.53,205.83Z" transform="translate(-174.25 -169.29)"/><path class="cls-1" d="M255.53,327.92c-.38-.38-.68-.76-1-1.14l-.9-1.14c-.59-.76-1.12-1.52-1.61-2.28.07-1.52,0-3,0-4.57V295.95a40.91,40.91,0,0,1,3.5-4.57,40.92,40.92,0,0,1,3.5,4.57v22.84c0,1.52,0,3,0,4.57-.49.76-1,1.52-1.61,2.28l-.9,1.14C256.21,327.16,255.9,327.54,255.53,327.92Z" transform="translate(-174.25 -169.29)"/><path class="cls-1" d="M287.95,217.87a32,32,0,0,1,.51-5.51c1.05-1,2-2,3-3l6-6,6-6,3-3a38.55,38.55,0,0,1,5.48-.53,38.56,38.56,0,0,1-.53,5.48l-3,3-6,6-6,6c-1,1-2,2-3,3A32,32,0,0,1,287.95,217.87Z" transform="translate(-174.25 -169.29)"/><path class="cls-1" d="M220.62,215.38a32,32,0,0,1-5.51-.51c-1-1.05-2-2-3-3l-6-6-6-6-3-3a38.55,38.55,0,0,1-.53-5.48,38.55,38.55,0,0,1,5.48.53l3,3,6,6,6,6c1,1,2,2,3,3A32,32,0,0,1,220.62,215.38Z" transform="translate(-174.25 -169.29)"/><path class="cls-1" d="M311.15,305.91a32,32,0,0,1-5.51-.51c-1-1.05-2-2-3-3l-6-6-6-6-3-3a38.56,38.56,0,0,1-.53-5.48,38.56,38.56,0,0,1,5.48.53l3,3,6,6,6,6c1,1,2,2,3,3A32,32,0,0,1,311.15,305.91Z" transform="translate(-174.25 -169.29)"/><path class="cls-1" d="M199,305.91a32,32,0,0,1,.51-5.51c1.05-1,2-2,3-3l6-6,6-6,3-3a38.56,38.56,0,0,1,5.48-.53,38.56,38.56,0,0,1-.53,5.48l-3,3-6,6-6,6c-1,1-2,2-3,3A32,32,0,0,1,199,305.91Z" transform="translate(-174.25 -169.29)"/></g><g id="Layer_2" data-name="Layer 2"><circle class="cls-2" cx="81.28" cy="79.31" r="31.66"/></g></svg>