<svg id="Layer_1" data-name="Layer 1" xmlns="http://www.w3.org/2000/svg" viewBox="0 0 1397.92 337.37"><defs><style>.cls-1{fill:#faf17f;}.cls-2{fill:#fedb48;stroke:#f9da41;}.cls-2,.cls-3,.cls-4,.cls-5,.cls-6{stroke-miterlimit:10;}.cls-3{fill:#c5e8ee;}.cls-3,.cls-4{stroke:#eff8fb;}.cls-4{fill:#f0f2bd;}.cls-5{fill:#eced93;stroke:#f0ee8a;}.cls-6{fill:#e8e2c8;stroke:#b1e0e4;}.cls-7{fill:#fff;}.cls-8{opacity:0.69;}</style></defs><title>sun moon rotation</title><path class="cls-1" d="M0,281.37a27.67,27.67,0,0,1,3.34-3.54c1.11.07,2.23,0,3.34,0H23.39a33.24,33.24,0,0,1,3.34,3.5,33.24,33.24,0,0,1-3.34,3.5H6.68c-1.11,0-2.23,0-3.34,0A27.67,27.67,0,0,1,0,281.37Z" transform="translate(0 -1.58)"/><path class="cls-1" d="M91.26,281.37a27.67,27.67,0,0,1,3.34-3.54c1.11.07,2.23,0,3.34,0h16.71a33.24,33.24,0,0,1,3.34,3.5,33.24,33.24,0,0,1-3.34,3.5H97.94c-1.11,0-2.23,0-3.34,0A27.67,27.67,0,0,1,91.26,281.37Z" transform="translate(0 -1.58)"/><path class="cls-1" d="M59,250.33A27.58,27.58,0,0,1,55.46,247c.07-1.11,0-2.21,0-3.32V227.12a33.13,33.13,0,0,1,3.5-3.32,33.13,33.13,0,0,1,3.5,3.32V243.7c0,1.11,0,2.21,0,3.32A27.58,27.58,0,0,1,59,250.33Z" transform="translate(0 -1.58)"/><path class="cls-1" d="M59,338.94a27.58,27.58,0,0,1-3.53-3.32c.07-1.11,0-2.21,0-3.32V315.74a33.13,33.13,0,0,1,3.5-3.32,33.13,33.13,0,0,1,3.5,3.32v16.58c0,1.11,0,2.21,0,3.32A27.58,27.58,0,0,1,59,338.94Z" transform="translate(0 -1.58)"/><path class="cls-1" d="M82.52,259.06a26.91,26.91,0,0,1-.32-4.68c.78-.68,1.47-1.44,2.21-2.16l4.37-4.37,4.37-4.37,2.18-2.18a32.31,32.31,0,0,1,4.66.29,32.31,32.31,0,0,1,.29,4.66l-2.18,2.18-4.37,4.37-4.37,4.37c-.72.74-1.48,1.43-2.16,2.21A26.91,26.91,0,0,1,82.52,259.06Z" transform="translate(0 -1.58)"/><path class="cls-1" d="M33.66,257.26a26.91,26.91,0,0,1-4.68.32c-.68-.78-1.44-1.47-2.16-2.21L22.45,251l-4.37-4.37-2.18-2.18a32.31,32.31,0,0,1,.29-4.66,32.31,32.31,0,0,1,4.66-.29L23,241.68,27.4,246l4.37,4.37c.74.72,1.43,1.48,2.21,2.16A26.91,26.91,0,0,1,33.66,257.26Z" transform="translate(0 -1.58)"/><path class="cls-1" d="M99.37,323a26.91,26.91,0,0,1-4.68.32c-.68-.78-1.44-1.47-2.16-2.21l-4.37-4.37-4.37-4.37-2.18-2.18a32.31,32.31,0,0,1,.29-4.66,32.31,32.31,0,0,1,4.66-.29l2.18,2.18,4.37,4.37,4.37,4.37c.74.72,1.43,1.48,2.21,2.16A26.91,26.91,0,0,1,99.37,323Z" transform="translate(0 -1.58)"/><path class="cls-1" d="M18,323a26.91,26.91,0,0,1-.32-4.68c.78-.68,1.47-1.44,2.21-2.16l4.37-4.37,4.37-4.37,2.18-2.18a32.31,32.31,0,0,1,4.66.29,32.31,32.31,0,0,1,.29,4.66l-2.18,2.18L29.2,316.7l-4.37,4.37c-.72.74-1.48,1.43-2.16,2.21A26.91,26.91,0,0,1,18,323Z" transform="translate(0 -1.58)"/><circle class="cls-2" cx="59" cy="279.8" r="22.98"/><polygon class="cls-3" points="1368.71 26.89 1366.95 23.32 1363.01 22.75 1365.86 19.97 1365.19 16.06 1368.71 17.91 1372.22 16.06 1371.55 19.97 1374.4 22.75 1370.47 23.32 1368.71 26.89"/><polygon class="cls-4" points="1391.15 11.74 1389.39 8.18 1385.46 7.61 1388.31 4.83 1387.63 0.91 1391.15 2.76 1394.67 0.91 1394 4.83 1396.85 7.61 1392.91 8.18 1391.15 11.74"/><polygon class="cls-5" points="1387.43 29.81 1386.82 28.58 1385.46 28.38 1386.44 27.43 1386.21 26.07 1387.43 26.71 1388.64 26.07 1388.41 27.43 1389.39 28.38 1388.04 28.58 1387.43 29.81"/><g id="Layer_2" data-name="Layer 2"><circle class="cls-6" cx="1311.95" cy="75.55" r="43.36"/><path class="cls-7" d="M1280.11,51.57a6.36,6.36,0,0,0-3.23,5.07,1.63,1.63,0,0,0,2.76,1.14,6.8,6.8,0,0,0,1.62-3l-3.17-.43c0-.16.16-.4,0-.09a3,3,0,0,0-.22.54,2.18,2.18,0,0,0,.06,1.37,1.85,1.85,0,0,0,2.16,1.17c1.87-.52,1.66-3.68-.41-3.53a1.65,1.65,0,0,0-1.62,1.62,1.63,1.63,0,0,0,1.6,1.58h.08l-1.14-.47,0,.05-.47-1.14.16-.56.58-.58-.07,0,.81-.22h-.09l1.14.47.08.1.22.81a.57.57,0,0,0-.05.17,3.58,3.58,0,0,0,.17-.37,2.25,2.25,0,0,0,.18-1c-.08-1.76-2.71-2.26-3.17-.43a3.41,3.41,0,0,1-.79,1.53l2.76,1.14a3,3,0,0,1,1.63-2.27c1.82-1,.19-3.79-1.63-2.79Z" transform="translate(0 -1.58)"/><path class="cls-7" d="M1276.75,65.1a6.56,6.56,0,0,0-1.79,5c.15,1.74,1.29,3.88,3.35,3.62,1.8-.21,3-2.72,3.46-4.23a4.92,4.92,0,0,0-1.18-5.25,1.63,1.63,0,0,0-2.29,0,7.31,7.31,0,0,0-1.76,4.68h3.23V67.63a1.62,1.62,0,0,0-3.23,0v1.29a1.62,1.62,0,0,0,3.23,0,3.75,3.75,0,0,1,.81-2.4h-2.29a1.72,1.72,0,0,1,.41,1.94c-.19.7-1,1.4-1.09,2.05q-.46.56.76.13l-.12-.19c0-.35-.14-.71-.12-1.09a3.23,3.23,0,0,1,.87-1.94c1.4-1.54-.89-3.83-2.29-2.29Z" transform="translate(0 -1.58)"/><path class="cls-7" d="M1301.06,47.46c-1.85-.41-4-.73-5.56.59a3.72,3.72,0,0,0-1.05,4.17c.37.88,1,1.15,1.74,1.6s-.05-.17.48.41a2.64,2.64,0,0,0,.93.76,7.19,7.19,0,0,0,2.91.25,12.42,12.42,0,0,0,3.16-.19,3.46,3.46,0,0,0,2.74-3.83c-.33-1.69-2.27-2.87-3.83-3.27s-3.76.52-3.81,2.44a2.37,2.37,0,0,0,3.56,2l-1.94-2.54-.8.92a1.67,1.67,0,0,0,0,2.29,3.17,3.17,0,0,0,3.28,1,1.63,1.63,0,0,0,1-2.37c-.14-.21-.35-.68,0-.83a1.63,1.63,0,0,0,0-3.11,3,3,0,0,0-3.28.89c-1.38,1.55.9,3.84,2.29,2.29l.13-.06V47.79a3.76,3.76,0,0,0-2,5.58l1-2.37-.14-.18V53.1l.8-.92a1.62,1.62,0,0,0-1.94-2.54c-1.78,1,2.73,1.7,2.25,2.23-.28.31-1.22.15-1.62.16a10.14,10.14,0,0,0-1.94,0h-.56q.73.57.27-.12c-.18-.35-1.75-1.29-1.7-.94-.19-1.1,2.37-.47,2.8-.37,2,.45,2.89-2.66.86-3.11Z" transform="translate(0 -1.58)"/><path class="cls-7" d="M1300.27,53.36a2.16,2.16,0,0,0-1-2.53l-.81,3,3.48,0a1.63,1.63,0,0,0,.81-3c-1.26-.9-3.43-2.68-4.91-1.2a1.82,1.82,0,0,0,.36,2.81,1.79,1.79,0,0,0,2.65-1.07,1.67,1.67,0,0,0-1.13-2,1.63,1.63,0,0,0-2,1.13v.08l.74-1-.07,0,.81-.22h.23l.71.41-.07-.06.41.71v-.1l-.16,1.25.05-.11-.58.58q-1.4-.17-.82.1l.32.17.65.37c.41.25.81.52,1.2.81l.81-3-3.48,0a1.63,1.63,0,0,0-.81,3l.14.09-.58-.58-.06-.65a1.62,1.62,0,0,0,3.11.86h0Z" transform="translate(0 -1.58)"/><path class="cls-7" d="M1271,88.2a5.12,5.12,0,0,0,1.84,3.93c.83.68,2.47.61,2.7-.71l.17-1-3,.39a9.27,9.27,0,0,0,1.94,2.58,1.63,1.63,0,0,0,2.7-1.57l-.78-3.13a1.62,1.62,0,0,0-3.12.86,11.77,11.77,0,0,0,1.18,3.54c.76,1.49,3,.7,3-.81a5.33,5.33,0,0,0-2.73-4.81,1.64,1.64,0,0,0-2.43,1.4,6,6,0,0,0,2.53,5.48,1.64,1.64,0,0,0,2.37-1,5.23,5.23,0,0,0-3.23-6.37,1.62,1.62,0,0,0-2,1.56,4.52,4.52,0,0,0,2.42,4c1.85.94,3.49-1.85,1.63-2.79a1.29,1.29,0,0,1-.83-1.21l-2,1.56a1.94,1.94,0,0,1,1,2.4l2.37-1a2.84,2.84,0,0,1-.94-2.69l-2.43,1.4a2.09,2.09,0,0,1,1.13,2l3-.81a9.14,9.14,0,0,1-.85-2.77l-3.11.86.78,3.13,2.7-1.57a6.64,6.64,0,0,1-1.43-1.9,1.63,1.63,0,0,0-3,.39l-.17,1,2.7-.71a2,2,0,0,1-.89-1.64c0-2.07-3.28-2.08-3.23,0Z" transform="translate(0 -1.58)"/><path class="cls-7" d="M1331.93,65.29a3.91,3.91,0,0,0,4.52-1.42c1.37-1.79,1-4.08.51-6.12a1.63,1.63,0,0,0-2.7-.71,35.78,35.78,0,0,1-6.07,5.43c-1.23.87-.9,3.06.81,3a11.77,11.77,0,0,1,6.72,1.8c1,.59,2.58-.16,2.43-1.4-.3-2.77-1.36-5.57-3.93-7a6.16,6.16,0,0,0-7,.71l2.76,1.14c0-.48.87-1,1.14-1.36a3.78,3.78,0,0,0,.71-1.64,2.62,2.62,0,0,0-1.29-2.8,1.63,1.63,0,0,0-2.21,2.21l1,1.51a1.64,1.64,0,0,0,3-.39l1.45-3.47-3.11-.86c0-.09-.85.24-1,.32a1.58,1.58,0,0,0-.8,1.4v.23a1.65,1.65,0,0,0,1.62,1.62h.23a1.58,1.58,0,0,0,1.4-.8l.1-.21c.87-1.87-1.94-3.52-2.79-1.63l-.1.21,1.4-.8h-.23l1.62,1.62v-.23l-.8,1.4c.91-.49,1.91-.79,2.47-2.25.76-1.94-2.33-2.74-3.11-.86l-1.45,3.47,3-.39-1-1.51-2.2,2.21c-.56-.36-.14-.27-.72.08a3.48,3.48,0,0,0-.84,1,3.77,3.77,0,0,0-.61,1.94c-.13,1.54,1.78,1.94,2.76,1.14,2.78-2.27,5.17,1.66,5.46,4l2.43-1.4a14.91,14.91,0,0,0-8.35-2.26l.81,3a39.41,39.41,0,0,0,6.71-5.93l-2.7-.71c.19.83,1,4.37-1.07,3.57s-2.78,2.37-.86,3.11Z" transform="translate(0 -1.58)"/><path class="cls-7" d="M1294.59,81.05a9.69,9.69,0,0,1,2.47,1.71c1.29,1.22,3.61-.39,2.54-1.94s-2.37-3-4.27-2.58-3.34,3.23-4.4,4.69c-.79,1.09.31,2.33,1.4,2.43a14.92,14.92,0,0,1,5.63,1.71,1.64,1.64,0,0,0,2.37-1c1.07-3-1.52-4.76-4.05-5.47a1.63,1.63,0,0,0-1.57,2.7,11.53,11.53,0,0,0,6.79,3.77l-1-2.37L1298,88.91l3,.39c-.59-1.81.25-3.62-.92-5.32a3.11,3.11,0,0,0-3.61-1.34,1.64,1.64,0,0,0-1.13,2,17.61,17.61,0,0,1,.76,4.81l3.17-.43a14.51,14.51,0,0,0-3.17-5.64c-1.19-1.33-2.92.14-2.7,1.57.34,2.18,1.29,5.38,3.23,6.67s3-.5,4.52-1.42l-1.94-2.54a22.93,22.93,0,0,0-2.92,4.23c-1,1.84,1.81,3.47,2.79,1.63a19.24,19.24,0,0,1,2.41-3.57c1.15-1.34-.3-3.52-1.94-2.54-.34.19-.65.5-.94.69-.75.43-.05.54-.61.18-1-.65-1.29-3.11-1.47-4.19l-2.7,1.57a10.7,10.7,0,0,1,2.33,4.21c.51,1.71,3.23,1.43,3.17-.43a20.79,20.79,0,0,0-.88-5.67l-1.13,2s.41,4,.56,4.41a1.63,1.63,0,0,0,3,.39l2.49-4.17a1.63,1.63,0,0,0-1-2.37,8.71,8.71,0,0,1-5.37-2.95l-1.57,2.7c.59.17,2.18.42,1.8,1.49l2.37-1a19.19,19.19,0,0,0-7.26-2.15l1.4,2.43a19.25,19.25,0,0,1,1.67-2.31c.8-.79.55-1,1.42.23l2.54-1.94a12.44,12.44,0,0,0-3.12-2.22c-1.85-.93-3.5,1.86-1.63,2.79Z" transform="translate(0 -1.58)"/><g class="cls-8"><path class="cls-7" d="M1293.57,63.79a1.62,1.62,0,0,0,0-3.23A1.62,1.62,0,0,0,1293.57,63.79Z" transform="translate(0 -1.58)"/></g><g class="cls-8"><path class="cls-7" d="M1296.36,61.92a10.07,10.07,0,0,1,3.62-.56l-.81-3-1,.68a1.62,1.62,0,0,0,1.25,3,5,5,0,0,0,3.53-2.42c.87-1.29-.56-2.58-1.82-2.37a10,10,0,0,0-7.32,5.17,1.63,1.63,0,0,0,1.4,2.43,6.22,6.22,0,0,0,4.89-2.8,1.63,1.63,0,0,0-1.82-2.37,10.41,10.41,0,0,0-6.46,5.56,1.63,1.63,0,0,0,1.4,2.43,5.4,5.4,0,0,0,5.25-3.13,1.65,1.65,0,0,0-1-2.37,5.5,5.5,0,0,0-6.31,1.94c-1.05,1.22-2.89,3.62-1.76,5.33.86,1.29,2.64,1.16,3.88.65a5.59,5.59,0,0,0,3.23-5.5,1.64,1.64,0,0,0-2.43-1.4,8.3,8.3,0,0,0-4.87,9.36c.23,1.34,1.85,1.37,2.7.71a11.33,11.33,0,0,0,3.67-5c.69-1.72-2.07-2.81-3-1.25A57.11,57.11,0,0,0,1287.83,78c-.56,1.8,2,2.75,3,1.25,1.23-1.94,3.15-7-.31-8s-4.45,3.63-4.14,6,2.68,6.2,5.35,3.3c2.44-2.65-.13-6.46-3.12-7a1.66,1.66,0,0,0-2,1.13c-.74,2.35-.27,5.88,2.72,6.31a3.58,3.58,0,0,0,3.83-4.41,4.28,4.28,0,0,0-5.66-2.69c-3.1,1.2-3.84,4.57-3.66,7.55a1.63,1.63,0,0,0,3,.81,4.14,4.14,0,0,0,.23-4.52,1.62,1.62,0,0,0-2.21-.58h0a36.49,36.49,0,0,0-4.9,4.37,1.63,1.63,0,0,0,1.14,2.76c4.1.17,4.34-5.67.3-6.08-3.42-.35-6.39,5.94-2.32,6.32,3.79.35,4-6.85.47-7.5s-4.73,5.34-1.52,6.67a1.61,1.61,0,0,0,1.82-.74,20.33,20.33,0,0,0,2-9.13,1.64,1.64,0,0,0-2.76-1.14,12.53,12.53,0,0,0-3.28,9.47c.1,1.48,2.23,2.35,3,.81a21.68,21.68,0,0,0,2.43-10.71c0-1.1-1.4-2.16-2.43-1.4-2.49,1.85-6.66,7.59-3.54,10.64,4,3.88,4.52-5.56,4.34-7.31s-2.88-2.37-3.17-.43a55.14,55.14,0,0,0-.65,7.26c0,1.55,2.28,2.27,3,.81a6.09,6.09,0,0,0,.5-5,1.63,1.63,0,0,0-2.37-1,9,9,0,0,0-3.64,10.41,1.64,1.64,0,0,0,2.37,1c1.94-1,2.47-3.88.3-5a2.77,2.77,0,0,0-4,3.27,3,3,0,0,0,5.39.71c1.69-2.49-.31-5.12-2.85-5.69a1.64,1.64,0,0,0-2,1.13c-.65,2.82,1.45,4.79,4.21,4.4,1.89-.26,1.29-3.08-.43-3.17l-2.78-.16A1.62,1.62,0,0,0,1272,84l-.36,1.65,2.7-.71a2.77,2.77,0,0,0-3.07-.92,1.62,1.62,0,0,0-1.13,2,2.75,2.75,0,0,0,2.09,2.07c1.94.72,2.8-2.4.86-3.11l-.7-.26,1.13,1.13-.27-.69-1.13,2v.06a1.63,1.63,0,0,0,2.7-.71l.36-1.65L1273.63,86l2.78.16L1276,83l-.24-.43-2,1.13.34.83,2.35,1a5.71,5.71,0,0,1,2.16-6.77l-2.35-1-.17,2.47,3,.81a48.57,48.57,0,0,1,.52-6.4l-3.17-.43c.11,1.23.57,4.38-.47,5.29l1.57-.41s.58-2.3.74-2.65a6.77,6.77,0,0,1,2.22-2.77l-2.43-1.4a18.09,18.09,0,0,1-2,9l3,.81a9.37,9.37,0,0,1,2.33-7.19l-2.76-1.14a16.64,16.64,0,0,1-1.58,7.54l1.82-.74q.7-.21.68.68l.8,1.4.71-1.6,1.14,2.76a32,32,0,0,1,4.25-3.88l-2.21-.58-.23,1.29,3,.81a8.5,8.5,0,0,1,.08-2.54,7.42,7.42,0,0,1,2.58-3.36l-2,1.13q2.4,1.94,1.85-.1a11.39,11.39,0,0,0-.38-2.46c-.12.05-.93,3.08-1.18,3.47l3,1.25a53.13,53.13,0,0,1,4.46-10.34l-3-1.25a8.34,8.34,0,0,1-2.84,3.6l2.7.71a5.18,5.18,0,0,1,3.39-5.71l-2.43-1.4-.48,2.72a3.27,3.27,0,0,1,3.77-1.94l-1-2.38a2.11,2.11,0,0,1-2.46,1.52l1.4,2.43a7.2,7.2,0,0,1,4.52-4.08l-1.82-2.37-2.09,1.2,1.4,2.43a7.06,7.06,0,0,1,5.39-3.69l-1.82-2.37-1.6.94,1.25,3,1-.68a1.63,1.63,0,0,0-.81-3,12.48,12.48,0,0,0-4.48.65c-1.94.65-1.12,3.79.86,3.11Z" transform="translate(0 -1.58)"/></g><g class="cls-8"><path class="cls-7" d="M1280.24,82.12l.53.71c.65.87,2.22,1.21,2.79,0a5.38,5.38,0,0,0,.65-1.94l-3.17-.43a7.6,7.6,0,0,0,1.05,4.87,1.63,1.63,0,0,0,2.54.33,21.63,21.63,0,0,0,3.1-5c.59-1.34-.71-3.18-2.21-2.21-1.85,1.2-2.55,3.94-.74,5.56,2,1.8,4.71.36,5.54-1.82.48-1.25-.9-2.2-2-2-2.21.43-7.88,3.32-5.93,6.38s7.46-1.4,8.4-3.53a2.84,2.84,0,0,0-.91-3.66c-1.6-.94-3.44.17-4.69,1.16a4.46,4.46,0,0,0-2,3.88c.1,1.08,3,4.64,3.88,2.58l2.21-.58a17.89,17.89,0,0,0-10.61-2.11,1.62,1.62,0,0,0-.43,3.17c2.2.9,7.41,3.19,8.05-.81.48-3-3.44-3.62-5-1.66s-1.94,5.87,1.29,6.58c3.39.74,6.23-3.3,7.88-5.65l-3-.78.21,2.68a1.67,1.67,0,0,0,1.62,1.62c5.45.48,5.17-7.92-.15-7.11-4.52.65-7.93,7.29-2.7,9.49,1.94.81,2.75-2.32.86-3.11a1.28,1.28,0,0,1,.38-2,1.07,1.07,0,0,1,1.61-.46l1.62,1.62-.21-2.68a1.63,1.63,0,0,0-3-.81c-.74,1.05-2.2,3.42-3.62,3.52q-1.14.58-1.07-1,0-1.4-1.29-1.45a17,17,0,0,0-2.53-1l-.43,3.17a15,15,0,0,1,9,1.66,1.63,1.63,0,0,0,2.21-.58,2.64,2.64,0,0,0,.06-2.64,3.52,3.52,0,0,0-1-1.05,11.42,11.42,0,0,0-1.73-.65c-.52-.7,1.29-2.29.12-1.94a12.1,12.1,0,0,0-2.3,1.62l.24,1.67a4.06,4.06,0,0,1,1.1-1.16,6,6,0,0,1,2.81-1.2l-2-2q-.49.23-.06-.1L1284.93,79a18.7,18.7,0,0,1-2.58,4.35l2.54.33a4.77,4.77,0,0,1-.61-3.23c.2-1.79-2.91-2.23-3.17-.43l-.3,1.18h2.75l-.53-.71c-1.23-1.65-4,0-2.79,1.63Z" transform="translate(0 -1.58)"/></g><g class="cls-8"><path class="cls-7" d="M1286.19,93.66h.19l-1.53-1.2.08.28.41-1.57-.17.2,1.94-.25c-.7-.35-1.43-3-2.11-3.66a5,5,0,0,0-3.44-1.53,1.62,1.62,0,0,0-1.62,1.62,11.43,11.43,0,0,0,2.3,5.82c1,1.29,3.61.65,3-1.25a7.17,7.17,0,0,0-5.93-5.09c-1.09-.16-2.47.69-2,2a14.65,14.65,0,0,0,6.11,7.83,4.69,4.69,0,0,0,3.48.72,8,8,0,0,0,2.07-1.94l-1.4-.8a3,3,0,0,1,.33,3.15l2,2a79.57,79.57,0,0,0,.9-11l-3,.81a3.39,3.39,0,0,0,6.25-.53c1.14-3.23-2-5.76-4.7-3.36-2.29,2.08-2.93,7.7-.1,9.69,3.36,2.39,5.32-3.66,6.13-5.82l-3.11-.86a5.24,5.24,0,0,0,1.51,5.47c.94,1,2.42,2.31,3.88,1.52,4.24-2.31-3.67-6.92-5.25-7.64a1.63,1.63,0,0,0-2.21,2.21c1.29,2.25,8.7,12.39,11,6.61,2.15-5.3-3.23-11.18-7.9-12.58a1.63,1.63,0,0,0-2,2c.74,4,4.52,7.9,6.77,11.22l1.4-2.43c-2.08.22-6.4-.12-6.46,3-.07,2.89,3.06,3.23,5.14,2.87a1.62,1.62,0,0,0,1.13-2h0a10.76,10.76,0,0,0-9.56-6.91,1.63,1.63,0,0,0-1.56,2,10,10,0,0,0,5.4,7.11,1.63,1.63,0,0,0,2.21-2.21c-1.16-2-5.41-5.86-7.08-2.31-1.94,4.18,2.08,8.8,4.68,11.51,1.07,1.11,3.28,0,2.7-1.57a20.93,20.93,0,0,0-5.78-8.49c-1.55-1.38-3.88.9-2.29,2.29a17.58,17.58,0,0,1,4.95,7.06l2.7-1.57c-1.58-1.64-5.49-5.46-3.88-8.18l-1.4.8a3.47,3.47,0,0,1,2.58,2.09l2.21-2.21a7,7,0,0,1-3.91-5.17l-1.56,2a7.33,7.33,0,0,1,6.46,4.52l1.13-2q-.53,1,.46.65l1.74-.19a1.63,1.63,0,0,0,1.4-2.43c-2-3-5.77-6.86-6.46-10.45l-2,2c3.47,1,7.08,5.17,5.47,9l1.13-1.13c-.8.14-2.77-2.16-3.23-2.68a20.78,20.78,0,0,1-2.85-4l-2.21,2.21c.45.21,4.6,2.73,4.67,2.64l1.4-.8a4.57,4.57,0,0,1-1.45-3.11c.61-2-2.4-2.77-3.11-.86,0,.12-1.08,3.12-1.48,3.23a21.19,21.19,0,0,0-.19-4,1.63,1.63,0,0,0-3,.81,73.33,73.33,0,0,1-.84,10.08c-.16,1.05.71,2.51,2,2a4.05,4.05,0,0,0,2.78-3.27c.23-1.45-.28-4.18-1.6-5.08s-2.4-.1-3.42.74c-.65.52,0,.69-1,.7-.79,0-1.59-.85-2.14-1.36a11.75,11.75,0,0,1-3-4.64l-2,2a4.09,4.09,0,0,1,3.67,2.84l3-1.25a8.4,8.4,0,0,1-1.86-4.2l-1.62,1.62c2.41.21,2,3.83,3.92,4.75a1.65,1.65,0,0,0,1.94-.25,1.94,1.94,0,0,0,.5-2,1.63,1.63,0,0,0-1.56-1.19h-.19c-2,.21-2.07,3.44,0,3.23Z" transform="translate(0 -1.58)"/></g><g class="cls-8"><path class="cls-7" d="M1289,102.73a30.79,30.79,0,0,1,3.35,4l1.82-2.37-9-3.17c-1.65-.58-2.52,1.58-1.57,2.7a20.23,20.23,0,0,0,7.35,5.52c1.85.83,3.5-1.8,1.63-2.79a13.84,13.84,0,0,1-6.92-8.18c-.65-1.94-3.73-1.14-3.11.86a6.46,6.46,0,0,0,4.61,4.57,1.63,1.63,0,0,0,2-2,4.87,4.87,0,0,0-2.09-2.95c-1.29-1-3.07.92-2.21,2.21,1.94,2.95,6.78,4.39,7.46,7.93.34,1.78,3.28,1.38,3.17-.43-.24-4-3.62-5-7.11-5a1.63,1.63,0,0,0-1.39,2.45c3.3,5.07,10.82,7.08,16.2,9.1l.86-3.11c-4.33-.69-7.79-4.23-10.85-7.11-1.71-1.63-2.58-2.53-1.69-4.85a3.72,3.72,0,0,0,.42-2.72,1.65,1.65,0,0,0-1.56-1.19l-.9-.08c-2.07-.19-2.05,3,0,3.23l.9.08-1.56-1.19c.06.29-1.23,1.76-1.37,2.12a3.36,3.36,0,0,0-.25,2c.36,2,2.31,3.52,3.72,4.85,3.42,3.23,7.44,7.19,12.28,8a1.62,1.62,0,0,0,.86-3.11c-4.37-1.65-11.57-3.46-14.27-7.61l-1.4,2.43c1.2,0,3.76-.22,3.88,1.74l3.17-.43c-.87-4.57-5.48-5.23-7.75-8.7l-2.21,2.21.61,1,2-2a2.86,2.86,0,0,1-2.35-2.31l-3.11.86a17.12,17.12,0,0,0,8.4,10.11l1.63-2.79a18.23,18.23,0,0,1-6.73-5.05l-1.57,2.7,9,3.17a1.63,1.63,0,0,0,1.82-2.37,35.58,35.58,0,0,0-3.88-4.69c-1.46-1.49-3.74.79-2.29,2.29Z" transform="translate(0 -1.58)"/></g><g class="cls-8"><path class="cls-7" d="M1314.8,39.67h-.34a1.62,1.62,0,1,0,0,3.23h.34a1.62,1.62,0,1,0,0-3.23Z" transform="translate(0 -1.58)"/></g><g class="cls-8"><path class="cls-7" d="M1322,42.19l-1.63-.61c-1.7-.65-2.91,2.18-1.25,3l10.34,4.81c1.85.86,3.49-1.78,1.63-2.79a27.07,27.07,0,0,0-8-2.86c-2-.37-2.9,2.73-.86,3.11a24.3,24.3,0,0,1,7.26,2.54l1.63-2.79-10.34-4.81-1.25,3,1.63.61c1.94.73,2.79-2.39.86-3.11Z" transform="translate(0 -1.58)"/></g><g class="cls-8"><path class="cls-7" d="M1323.46,48.13v2.22c0,1.78,2.79,2.25,3.17.43a4.67,4.67,0,0,0-2.11-5.05,1.63,1.63,0,0,0-2.21,2.21,5,5,0,0,0,2.83,2.69,3.11,3.11,0,0,0,3.39-1.36c1.65-2.93-2.75-4.94-4.9-5.52s-2.74,2.36-.86,3.11l3.61,1.46a1.63,1.63,0,0,0,2-1.13,1.65,1.65,0,0,0-1.13-2l-3.62-1.45-.86,3.11a7.79,7.79,0,0,1,1.55.57,12.24,12.24,0,0,0,1.32.86s.16-.69.17-.76c0-.33.16.25.12,0,0-.08-.3-.29-.38-.4a6.76,6.76,0,0,1-.46-.78l-2.21,2.21a1.33,1.33,0,0,1,.65,1.4l3.17.43V48.12a1.62,1.62,0,0,0-3.23,0Z" transform="translate(0 -1.58)"/></g><g class="cls-8"><path class="cls-7" d="M1300.35,55.86c2.16.83,7.62,1.76,8.32-1.65s-4.52-3-6.42-2.36c-1.18.39-1.75,2.34-.39,3a7.06,7.06,0,0,0,6.58-.13,1.63,1.63,0,0,0,0-2.79c-2-.85-6.6-.78-6.82,2.26-.25,3.56,5.51,3.46,7.68,3.14,1.94-.29,1.2-3-.43-3.17a14.35,14.35,0,0,0-8.36,1.52,1.62,1.62,0,0,0,.39,3c3.78,1,7.11-.39,10.43-2.09a1.63,1.63,0,0,0-.39-3,9.81,9.81,0,0,0-10.54,4.52,1.64,1.64,0,0,0,1.4,2.43,6.76,6.76,0,0,0,5.82-2.07,1.63,1.63,0,0,0-1.57-2.7c-2.18.46-6.06,1.58-7,3.93-.69,1.76.71,3,2.37,3.23,3.16.42,11-4.83,6.29-7.8-3.31-2.1-11.77,2.07-12.28,5.88a3.23,3.23,0,0,0,2.94,3.5h.43c2.92,0,3.92-2.95,5.52-4.81.7-.81.59-2.51-.71-2.7-2.23-.33-4.8,0-6,2.18-1,1.8-.06,3.43,1.7,4.12s2.75-2,1.25-3a27.66,27.66,0,0,0-7.36-3.15l-.89,3.14c2.58.59,8,.58,8.36-3.18.32-3.57-4.15-3.23-6.27-2.27s-6.16,3.7-4.42,6.46c2.15,3.42,8,2.47,11.16,1.94l-1.82-2.37-.84,1.79a1.66,1.66,0,0,0,.58,2.21,5.54,5.54,0,0,0,8.06-2.27,1.63,1.63,0,0,0-.58-2.21c-2.46-1.07-7.62-.7-7.15,3.15.52,4.28,8.91,4.11,11.86,3.88,1.1-.09,2.16-1.34,1.4-2.43a6.5,6.5,0,0,0-7.54-2.69,1.66,1.66,0,0,0-1.13,2,6.28,6.28,0,0,0,6,5.17,1.63,1.63,0,0,0,1.4-2.43c-1.94-3-7.29-5.6-10.34-2.53-3.35,3.35,3.41,6.75,6.11,6.75a1.63,1.63,0,0,0,.81-3,5.54,5.54,0,0,0-4.05-1c-1.23.16-2.33,1.74-1.14,2.76,3.39,2.92,9,1.44,9-3.57,0-1.11-.78-2.12-.58-3.19s1.18-1.42,1.62-2.47A2.74,2.74,0,0,0,1311,57v3.11a3.28,3.28,0,0,1,2-.42l-.81-3-3.73,1.9a1.63,1.63,0,0,0,0,2.79,9.6,9.6,0,0,0,6.75.83c2-.43,1.18-3.54-.86-3.11a5.91,5.91,0,0,1-4.23-.58v2.79l3.73-1.9c1.47-.75.72-3-.81-3a6.68,6.68,0,0,0-2.91.54,1.63,1.63,0,0,0,0,3.11c-1.29-.42-2.46,1.23-2.66,2.5a3.67,3.67,0,0,0,.26,1.75l.16.39q2.2,3.15-2.89,3l-1.14,2.76a2.54,2.54,0,0,1,2.42.52l.81-3c-.78,0-5.32-1.15-2.4-1.51a4.33,4.33,0,0,1,3.88,2.16l1.4-2.43a3.19,3.19,0,0,1-2.85-2.78l-1.13,2a3.28,3.28,0,0,1,3.88,1.21l1.4-2.43a20.72,20.72,0,0,1-4.18,0,11.07,11.07,0,0,1-1.94-.32q-2-.19-.2-.65l-.58-2.21a2.36,2.36,0,0,1-3.64,1.11l.58,2.21.84-1.79a1.64,1.64,0,0,0-1.82-2.37c-1.23.21-7.3,1.23-6.72-.87.33-1.2,2.58-1.21,3.28-1.81q1.48-.28-.79-.11a6.07,6.07,0,0,1-2.89-.15c-2-.46-2.88,2.58-.86,3.11a24.68,24.68,0,0,1,6.59,2.82l1.25-3,2.58-.07-.71-2.7c-.89,1-1.61,2.18-2.5,3.18-1.07,1.2.65-.65,1.07-.89a10.34,10.34,0,0,1,2.71-1.29c.37-.11,2.26-.7,2.47-.47,0,0-2.58,1.51-2.63,1.58-1.52,1.45.05.65,1,.19a12.32,12.32,0,0,1,2.74-.86l-1.57-2.7a3.92,3.92,0,0,1-3.51,1.13l1.4,2.43a6.46,6.46,0,0,1,6.84-3.09l-.39-3c-2.53,1.29-5,2.53-7.94,1.77l.39,3a11.44,11.44,0,0,1,6.73-1.07l-.43-3.17c-1.14.17-2.52-.38-3.31.28s1.22,0,1.68.23V51.88a3.28,3.28,0,0,1-3.31.13l-.39,3a4.15,4.15,0,0,1,3.12-.16l-.8-1.4c0,.52-3.92-.54-4.21-.65-1.94-.74-2.78,2.38-.86,3.11Z" transform="translate(0 -1.58)"/></g><g class="cls-8"><path class="cls-7" d="M1311.12,59.92l-6.13-2c-1.76-.57-2.82,2-1.25,3a17,17,0,0,0,7.17,2.22,1.63,1.63,0,0,0,1.14-2.76,2.91,2.91,0,0,0-4.83,1.34c-.65,2.46,2.09,4.25,4.28,3.75,2-.47,4.56-3.37,3.27-5.46-1.43-2.33-5.23-1.34-6.4.7a4,4,0,0,0,2.68,5.82c2.38.39,5.17-1.8,4.21-4.34s-5.51-2.8-7.49-1.51c-2.62,1.71-.73,5.17,1,6.79,2.15,2.08,6.22,2.46,5.89-1.59-.28-3.46-3.66-5.25-6.8-4.8a1.62,1.62,0,0,0-1,2.37c1.24,1.89,3.14,3.48,5.56,3a4.06,4.06,0,0,0,3.23-4.11,1.63,1.63,0,0,0-1.62-1.62,14.16,14.16,0,0,0-7.33,2.24,1.63,1.63,0,0,0,0,2.79c1.78,1.19,7.58,3,7.48-1-.1-3.74-6.46-4.87-9.19-4.81a1.63,1.63,0,0,0-.81,3c3,1.74,8.59,3.78,11.06.17,2-2.92-1-6.67-4.19-4.81a1.63,1.63,0,0,0,0,2.79,8,8,0,0,0,5.54.74c1.43-.28,1.49-2.26.39-3a13.69,13.69,0,0,0-6.2-2c-1.82-.17-2.18,2.76-.43,3.17,2.46.58,6.77.11,6.05-3.56-.65-3.46-6.24-3-8.67-2.58-1.74.3-1.29,2.58,0,3.11a18.23,18.23,0,0,0,6.07,1.29,1.64,1.64,0,0,0,1.4-2.43,9.43,9.43,0,0,0-3.61-4.28c-1.29-.89-3.13.9-2.21,2.21a7.39,7.39,0,0,0,8.07,3.15c2-.47,1.17-3.58-.86-3.11a4,4,0,0,1-4.43-1.66L1310,54.37a6.55,6.55,0,0,1,2.45,3.11l1.4-2.43a15.66,15.66,0,0,1-5.21-1.16V57a8.9,8.9,0,0,1,3.46-.06q2.53.59-.85,0l-.43,3.17a10,10,0,0,1,4.56,1.61l.39-3a3.77,3.77,0,0,1-3-.41v2.79a3.88,3.88,0,0,1-3.62.45,12.28,12.28,0,0,1-3.23-1.4l-.81,3a19.45,19.45,0,0,1,4.48.9q1.06,1.07.79-.17a4.94,4.94,0,0,1-1.94-.94v2.79a10.79,10.79,0,0,1,5.69-1.8l-1.62-1.62q-1.83,1.74-2.79-.52l-1,2.35a2.44,2.44,0,0,1,2.66,1.6,3.57,3.57,0,0,0-.77-1.14q-.85-.56-.12-1.41,3.08.39-.73-.6l1.14-2.76a13.08,13.08,0,0,1-5.54-1.78l-1.25,3,6.13,2c2,.65,2.83-2.48.86-3.11Z" transform="translate(0 -1.58)"/></g><g class="cls-8"><path class="cls-7" d="M1317.27,59.85l2.46-.45c1.71-.32,1.34-2.58,0-3.11a8.82,8.82,0,0,0-6.4.06c-1.29.51-1.76,2.84,0,3.11a3.43,3.43,0,0,0,4.12-2.53,1.62,1.62,0,0,0-3.11-.86c-.68,2.13.43,4.74,2.78,5.1a3.45,3.45,0,0,0,3.84-4.1,1.63,1.63,0,0,0-2-1.13,7.9,7.9,0,0,0-5.56,4,1.63,1.63,0,0,0,1,2.37,5.51,5.51,0,0,0,4.95-1.43c1.07-1.06,2.15-3.17.92-4.52s-3.43-.94-4.75-.11a4.33,4.33,0,0,0-1.9,4.67,4.74,4.74,0,0,0,8.54,1.42,3.61,3.61,0,0,0-.53-5c-1.86-1.42-4.07-.65-5.91.39l1.63,2.79c1.37-1,1.88-3,.39-4.25A2.58,2.58,0,0,0,1313.6,58c-.24,2,1.74,3.06,3.5,2.95a9.09,9.09,0,0,0,5.54-2.91,1.63,1.63,0,0,0-1.14-2.76,9.54,9.54,0,0,0-7.33,2.66c-1.12,1.05,0,3.28,1.57,2.7,1.94-.75,8.2-4.3,4.33-6.74-2.58-1.64-7.75-.1-7.22,3.55.47,3.11,6,3.88,7.56,1.29,2.46-4-4.8-5.49-7.25-5.51a1.63,1.63,0,0,0-.81,3,11.59,11.59,0,0,0,9.81,1.18c1.43-.47,1.63-2.74,0-3.11a12.36,12.36,0,0,0-7.22.42c-1.19.45-1.73,2.27-.39,3a6,6,0,0,0,7.85-2.09c1.14-1.74-1.65-3.36-2.79-1.63a2.69,2.69,0,0,1-3.42.93l-.39,3a9.3,9.3,0,0,1,5.5-.42V54.34a8.4,8.4,0,0,1-7.31-.85l-.81,3a9.21,9.21,0,0,1,3.08.5c-.24-.08,2.26,1,1.1.06-.19-.16-1.07.14-1-.25s1.13-.14,1.29-.19l.58,0q.06-1.54-.5-.85c-.36.07-.87.72-1.23.94a9.11,9.11,0,0,1-1.64.81l1.57,2.7a6.36,6.36,0,0,1,5-1.71l-1.1-2.75a7.11,7.11,0,0,1-1.94,1.47,5.24,5.24,0,0,1-1.07.41,13,13,0,0,1-1.64.08c-1.63,1.21-.23,3.83,1.63,2.79.47-.26,2.12-1.25,2.27-.45s-1.12,1.29-1.67,1.21c-2-.25-1-3.31.36-2.39l-.74-1c.22.82-1.89,1.33-2.31,1.26l1,2.37a4.87,4.87,0,0,1,3.63-2.53l-2-1.13c0-.31-.2.3-.36-.09a1,1,0,0,1,0-.91l-3.11-.86-.15.28v3.11a6.11,6.11,0,0,1,4.68-.06V56.28l-2.46.45c-2,.37-1.18,3.49.86,3.11Z" transform="translate(0 -1.58)"/></g><g class="cls-8"><path class="cls-7" d="M1323.7,54.88a1.62,1.62,0,0,0,0-3.23A1.62,1.62,0,0,0,1323.7,54.88Z" transform="translate(0 -1.58)"/></g><g class="cls-8"><path class="cls-7" d="M1322.7,56.59a27.14,27.14,0,0,0,7.87-.65l-.86-3.11c-1.82.41-5.34.69-5.82,3-.47,2.5,1.94,3.53,4,3.69,1.29.1,2.24-1.91,1.14-2.76a13.57,13.57,0,0,0-5.82-2.72c-1.05-.21-2.51.74-2,2,1.09,2.58,4.26,4.29,6.64,2a3.42,3.42,0,0,0-2.4-5.88,1.64,1.64,0,0,0-1.56,2,6.36,6.36,0,0,0,4,3.88c1.58.5,4.17.54,5-1.16,1.09-2.13-1.43-3.44-3.09-3.88a14.39,14.39,0,0,0-7.42.19,1.63,1.63,0,0,0-1,2.37,4.1,4.1,0,0,0,5.06,2c1.94-.71,1.1-3.83-.86-3.11a1,1,0,0,1-1.42-.52l-.92,2.4a11.5,11.5,0,0,1,3.44-.48c.74,0,3.06,0,3.44.84l-.16-1.25-.1.38.74-1c-1.29.76-3.11-.26-3.63-1.52l-1.56,2q.34.59-.39.48a1.21,1.21,0,0,1-.72-.68l-2,2a10.17,10.17,0,0,1,4.37,1.89l1.14-2.76q-.71-.3-.81.52l1.15-.32c.77-.21,1.54-.39,2.32-.57,2-.46,1.17-3.57-.86-3.11a24.06,24.06,0,0,1-7,.52c-2.07-.14-2.07,3.09,0,3.23Z" transform="translate(0 -1.58)"/></g><g class="cls-8"><path class="cls-7" d="M1321.63,55.07a7.9,7.9,0,0,0-5.23,2.15,1.63,1.63,0,0,0,1.14,2.76c5,0,8-3.55,10.75-7.29a1.63,1.63,0,0,0-1.4-2.43h-1.4c-2.13,0-2,3,0,3.23a5.17,5.17,0,0,0,2.68-.35,1.65,1.65,0,0,0,1.13-2l-.09-.3a1.65,1.65,0,0,0-1.56-1.19h-.37a1.66,1.66,0,0,0-1.56,1.19c-.61,2.53,2.28,4.23,4.52,3.42,2.71-1,2.79-4.25,1-6.11a1.63,1.63,0,0,0-2.76,1.14l.08,3.64a1.63,1.63,0,0,0,2.43,1.4l.3-.16h-1.63c.77.47,1.5,4,1.83,4.91.7,1.94,3.83,1.1,3.11-.86s-1.8-8.55-5.25-6.68l2.43,1.4-.08-3.64L1329,50.44l-.13,1.29-1.56,1.19h.37l-1.56-1.19.09.3,1.13-2a2.3,2.3,0,0,1-1.82.23v3.23h1.4l-1.4-2.43c-2,2.77-4.22,5.67-8,5.69l1.14,2.76a3.77,3.77,0,0,1,2.95-1.2c2.07-.1,2.08-3.33,0-3.23Z" transform="translate(0 -1.58)"/></g><g class="cls-8"><path class="cls-7" d="M1334.86,68.37l1.23.95a1.62,1.62,0,0,0,2.21-.58h0a3.17,3.17,0,0,0,.2-2.55,1.63,1.63,0,0,0-2.7-.71,4,4,0,0,0,.74,6,1.63,1.63,0,0,0,2.21-.58,1.65,1.65,0,0,0-.58-2.21q.15.12-.06-.08.12.16,0-.09c.13.25-.12-.48-.07-.17a2.59,2.59,0,0,1,0-.35q0,.21,0-.08c0-.12.12-.23.08-.18l-2.7-.71c.13.33,0,.25.13.06l2.21-.58-1.23-.95a1.62,1.62,0,0,0-2.21.58,1.65,1.65,0,0,0,.58,2.21Z" transform="translate(0 -1.58)"/></g><g class="cls-8"><path class="cls-7" d="M1333.08,66.75a4.12,4.12,0,0,0,.89,6.62c1.13.65,2.86,1.1,4,.28a2.9,2.9,0,0,0,.78-3.32,3.88,3.88,0,0,0-6.15-1.84,3.62,3.62,0,0,0,1.42,6.18c1.29.44,2.14-.88,2-2-.28-2.09-1.4-4.39-3.62-4.95a3.92,3.92,0,0,0-4.56,2.41c-1.48,4.59,7.41,7.06,7.31,1.67,0-2.07-3.27-2.08-3.23,0,0-.08-1.94-1.19-.32-.95,1,.14,1.21,1.94,1.29,2.68l2-2c-.45-.16-.34-.58,0-.73.82-.34.37.77,1.1.28s-.5-.43-.81-.89a.78.78,0,0,1,0-1.1l.13-.1c1.57-1.37-.72-3.64-2.29-2.29Z" transform="translate(0 -1.58)"/></g><g class="cls-8"><path class="cls-7" d="M1330.53,70.31c-1.18,1.39-1.84,3.6-.36,5.06a2.84,2.84,0,0,0,4.43-.45,1.62,1.62,0,1,0-2.79-1.63q-.14.23.06-.06a.72.72,0,0,1,.34-.21c-.29.13.34-.05,0,0q.33.05.14,0t.12.06q-.23-.14,0,.06h0a.37.37,0,0,1,.1.21q-.07-.28,0,0v-.16h0c0-.05.19-.43.06-.21a3.15,3.15,0,0,1,.16-.28q.16-.24,0-.05a1.66,1.66,0,0,0,0-2.29,1.63,1.63,0,0,0-2.29,0Z" transform="translate(0 -1.58)"/></g><g class="cls-8"><path class="cls-7" d="M1330.8,71.27l3.76,1.05a1.62,1.62,0,0,0,.86-3.11l-3.76-1.05A1.62,1.62,0,0,0,1330.8,71.27Z" transform="translate(0 -1.58)"/></g><g class="cls-8"><path class="cls-7" d="M1337.56,72.21a4.14,4.14,0,0,0,2.36-3.88,1.62,1.62,0,0,0-3.23,0v.34c0,.12-.11.3,0,.14s-.12.19-.11.19-.11.12,0,0l-.2.2c.16-.16,0,0-.07,0l-.32.16a1.62,1.62,0,0,0-.58,2.21,1.67,1.67,0,0,0,2.21.58Z" transform="translate(0 -1.58)"/></g><g class="cls-8"><path class="cls-7" d="M1339.36,62.87v-1a1.62,1.62,0,1,0-3.23,0v1a1.62,1.62,0,1,0,3.23,0Z" transform="translate(0 -1.58)"/></g><g class="cls-8"><path class="cls-7" d="M1337.32,64.37a6.17,6.17,0,0,1,2.7,1.07,1.63,1.63,0,0,0,2.43-1.4,8.21,8.21,0,0,0-1.63-4.65c-1-1.38-3.47-.65-3,1.25a5.6,5.6,0,0,0,3.61,3.92,1.57,1.57,0,0,0,1.57-.41,2.87,2.87,0,0,0-2.63-4.75c-3.57.72-2.65,5-.95,7a1.62,1.62,0,0,0,2.54-.33,5.17,5.17,0,0,0,.06-4.82c-.57-1.29-2.67-.9-3,.39a9.28,9.28,0,0,0,1.7,7.92c2,2.45,4.61,1.88,5.41-1.25a5.12,5.12,0,0,0-3.2-6.07c-2.81-1-4.43.52-4.52,3.27-.09,2.43.83,5.32,3.92,4.56a4.63,4.63,0,0,0,3.19-5.85,3.71,3.71,0,0,0-5.37-1.69c-1.94,1.35-1.67,4.72-.55,6.55,1.4,2.27,4.81,2.27,5.63-.47.78-2.58.09-6.46-3.06-7a1.67,1.67,0,0,0-1.82.74,6.29,6.29,0,0,0-.23,5.68,2.73,2.73,0,0,0,4,1c3.54-2.54.32-7.3-2.68-8.4a1.62,1.62,0,0,0-2,1.56,3,3,0,0,0,1.21,2.69c1.13.89,3.28.12,2.7-1.57a10.73,10.73,0,0,0-3-4.67l-1.14,2.76,1.11-.15a1.65,1.65,0,0,0,1.4-2.43c-.91-2-3.82-3.23-5.29-1a2.47,2.47,0,0,0,2.82,3.65,1.6,1.6,0,0,0,1.15-1.17,3.23,3.23,0,0,0-.81-3.16c-1.34-1.59-3.62.7-2.29,2.29h0l1.13-1.13.79.26-.16,1.25-.1.57,1.4-2.43-1.11.15c-1.25.16-2.31,1.72-1.14,2.76a7.42,7.42,0,0,1,2.22,3.23l2.7-1.57-.26-.41-2,1.56c1.54.58,1,1.12,1.78,2.22s.55-1.5.77-2l-1.89.79c.9.14.91.87.94,1.63,0,.25.12,1.2-.06.79a3.88,3.88,0,0,1-.21-1.6c.21-.94.54.43,0,.89-.68.65-.39-.1-.39-.65V64.81l-.48.34c1.29.19,2.86,2.18,1.29,3.13h1.63c-2-1-2.41-3.88-2-5.77l-3,.39-.06,1.56,2.54-.33a4.91,4.91,0,0,1-1-2.26l1.57-.41a2,2,0,0,1-1.36-1.67L1338,61a5.23,5.23,0,0,1,1.19,3l2.43-1.4a8.24,8.24,0,0,0-3.48-1.4c-2-.32-2.91,2.78-.86,3.11Z" transform="translate(0 -1.58)"/></g><g class="cls-8"><path class="cls-7" d="M1338.19,52a4.6,4.6,0,0,0,1.45,2.62c1.29,1.18,3.7-.44,2.54-1.94a4.44,4.44,0,0,0-3.68-1.94,1.64,1.64,0,0,0-1.56,2,9.17,9.17,0,0,0,4,6.14c1.12.77,2.29-.3,2.43-1.4a6.67,6.67,0,0,0-2-5.58,1.63,1.63,0,0,0-2.76,1.14,4.58,4.58,0,0,0,2.09,4,1.62,1.62,0,0,0,1.94-.25c2.22-2.79.65-6.86-3.11-6.89a1.63,1.63,0,0,0-1.56,1.19,3.77,3.77,0,0,0,2.43,4.45,1.63,1.63,0,0,0,2-1.13,1.65,1.65,0,0,0-1.13-2c-.17-.07-.21-.32-.17-.47l-1.54,1.2c.69,0,1.37.7.83,1.37l1.94-.25a1.29,1.29,0,0,1-.48-1.19L1339,54.25a3.66,3.66,0,0,1,1.09,3.29l2.43-1.4a6,6,0,0,1-2.52-4.21l-1.56,2a1,1,0,0,1,.89.32l2.54-1.94a1.81,1.81,0,0,1-.65-1.2c-.35-2-3.46-1.18-3.11.86Z" transform="translate(0 -1.58)"/></g><g class="cls-8"><path class="cls-7" d="M1336.64,58.35,1334.23,55,1331.69,57a23.05,23.05,0,0,0,3.53,2.8,1.63,1.63,0,0,0,2.37-1.82,6,6,0,0,0-1.84-3.29c-.93-.88-2.9-.33-2.76,1.14a6.69,6.69,0,0,0,3,5.12,1.63,1.63,0,0,0,2.43-1.4,6.72,6.72,0,0,0-4.56-5.76,1.62,1.62,0,0,0-2,1.56,9.15,9.15,0,0,0,4.3,7.26,1.63,1.63,0,0,0,2.21-.58c1.69-3.35-1.15-5.82-4.2-6.58a1.65,1.65,0,0,0-2,2,10.73,10.73,0,0,0,2.15,5.13c.9,1.18,3,.94,3-.81a11.68,11.68,0,0,0-2.91-7.71c-1.25-1.47-3.31.4-2.54,1.94a7.06,7.06,0,0,0,3,3.14,1.63,1.63,0,0,0,2.37-1.82,11,11,0,0,0-3.55-6.36,1.63,1.63,0,0,0-2.7,1.57,11.63,11.63,0,0,0,4.77,6.89,1.63,1.63,0,0,0,2.37-1.82,11,11,0,0,0-3.52-5.14,1.64,1.64,0,0,0-2.76,1.14,13.43,13.43,0,0,0,.65,5.56c.65,1.94,3.77,1.12,3.11-.86a11,11,0,0,1-.52-4.7l-2.76,1.14A7.94,7.94,0,0,1,1335,58.4l2.37-1.82a8.25,8.25,0,0,1-3.29-5l-2.7,1.57a8.24,8.24,0,0,1,2.72,4.94l2.37-1.82a4.13,4.13,0,0,1-1.89-2l-2.54,1.94a8.23,8.23,0,0,1,1.94,5.42l3-.76a8.79,8.79,0,0,1-1.82-4.36l-2,2c.61.16,2.86.65,2.27,1.83l2.21-.58a5.72,5.72,0,0,1-2.7-4.47l-2,1.56a3.31,3.31,0,0,1,2.19,2.65l2.43-1.4a3.15,3.15,0,0,1-1.38-2.33L1333.46,57a3,3,0,0,1,1,1.86l2.37-1.82a18.74,18.74,0,0,1-2.88-2.3c-1.29-1.23-3.65.42-2.54,1.94l2.41,3.33c1.21,1.67,4,.06,2.79-1.63Z" transform="translate(0 -1.58)"/></g><g class="cls-8"><path class="cls-7" d="M1300.57,65.19a5.82,5.82,0,0,0-6.46.17,1.63,1.63,0,0,0,0,2.79,7.06,7.06,0,0,0,7.56.17,1.64,1.64,0,0,0-.39-3,4.52,4.52,0,0,0-5.27,1.29,1.64,1.64,0,0,0,1.14,2.76,6.15,6.15,0,0,0,5.36-3.23,1.63,1.63,0,0,0-1-2.37,6.43,6.43,0,0,0-6.93,3.13,1.63,1.63,0,0,0,.58,2.21c3.44,1.88,7.33-.06,9.32-3.19a1.62,1.62,0,0,0,0-1.63c-1.94-3.43-12-1.6-11.78,2.66.12,2.27,2.75,2.3,4.39,1.94a15.51,15.51,0,0,0,8.29-5,1.64,1.64,0,0,0-1.14-2.76,8.4,8.4,0,0,0-5.82,1.4,1.62,1.62,0,1,0,1.63,2.79,26.84,26.84,0,0,0,6.09-4.07c1.29-1.16-.13-3-1.57-2.7a9.59,9.59,0,0,0-5.38,2.89,1.63,1.63,0,0,0,.71,2.7,9.21,9.21,0,0,0,6.46-.59l-1.94-2.54a27.22,27.22,0,0,1-3.53,3.17,11.43,11.43,0,0,1-3.43,1,10.67,10.67,0,0,0-4.65,2.62,1.64,1.64,0,0,0-.25,1.94,2.58,2.58,0,0,0,4,.86c1.51-1.29,1.21-3.7.38-5.23s-2.65-3.09-4.45-2.66a2.74,2.74,0,0,0-1.73,3.88c1.62,3.39,9.59,2,8.08-1.94-1.41-3.71-10.48-3.11-11.2.87a1.67,1.67,0,0,0,1.13,2c2.58.9,6.5,1.13,7.19-2.33.5-2.49-1.81-4.25-4.14-4s-5.86,3.23-5.37,5.82c.65,3.41,5.38,2.39,7.62,1.65a1.63,1.63,0,0,0,.71-2.7c-2.06-1.71-6.07-1-6.35,2.07a2.58,2.58,0,0,0,4.57,2c.89-1,.33-2.86-1.14-2.76a8.3,8.3,0,0,0-4,1.24c-1.5.92-.54,3.59,1.25,3l2.86-1c1.94-.7,1.1-3.83-.86-3.11l-2.86,1,1.25,3a3.77,3.77,0,0,1,2.38-.79l-1.14-2.76,1.78.5.71-2.7c-.35.12-2.66,1.16-2.86.15l1.1-1a1.79,1.79,0,0,1-1.82-.21l1.13,2c.1-.58,4.88-1.35,5.07-.28l.41-1.57q-3.68,2.35-.91,3.6l-.25,1.94c2-1.85,4.12-1.41,6.38-2.42,2-.9,3.64-3,5.23-4.41s-.4-3.23-1.94-2.54a4.91,4.91,0,0,1-3.94.27l.71,2.7a6.78,6.78,0,0,1,4-2.07l-1.57-2.7a23.77,23.77,0,0,1-5.56,3.61l1.63,2.79a5.76,5.76,0,0,1,4.21-1l-1.14-2.76a13.78,13.78,0,0,1-2.66,2.4c-1.07.7-2.82.89-3.73,1.62q-1.1,0-.43,1.36a5.1,5.1,0,0,1,1.59-.76c.55-.2,3.39-1.11,3.83-.34V64.39c-.89,1.4-3.17,3-4.9,2l.58,2.21a2.93,2.93,0,0,1,3.28-1.65l-1-2.39a2.58,2.58,0,0,1-2.58,1.61l1.14,2.76,2.13-.48-.39-3a3.93,3.93,0,0,1-4.3-.17v2.79a2.48,2.48,0,0,1,3.23-.17c1.81,1,3.44-1.76,1.63-2.79Z" transform="translate(0 -1.58)"/></g><g class="cls-8"><path class="cls-7" d="M1336.25,79.39l.78-1.94h-3.11c.36,1.56,1.75,3,3.49,2.63a2.42,2.42,0,0,0,1.33-4c-1.32-1.32-3.23.16-3.75,1.5a3.39,3.39,0,0,0,.81,3.57,1.63,1.63,0,0,0,2.7-.71,11.52,11.52,0,0,0,.53-2.91,1.63,1.63,0,0,0-1.62-1.62,3,3,0,0,0-2.84,4.15c.4,1,1.45,2,2.58,1.69a2.64,2.64,0,0,0,1.85-2.47,1.63,1.63,0,0,0-1.62-1.62,1.65,1.65,0,0,0-1.62,1.62.65.65,0,0,1,.52-.65l1.25.16c-.3-.17.07,0,0,.21s-.1.09-.14.14h-.07q.29-.09.08,0l-1.62-1.62a8.08,8.08,0,0,1-.41,2.05l2.7-.71c-.2-.19,0,.12,0,0h0c-.08-.25,0-.24,0,0,0-.05,0-.41,0-.18s0-.07,0-.1-.16.23,0,0a1.13,1.13,0,0,1-.25.24c.19-.15-.1,0-.24.05l-1.4-.8a.88.88,0,0,1,.14-1c.32-.28.56-.11.89,0a.85.85,0,0,1-.08-.11,1.43,1.43,0,0,1-.1-.35,1.63,1.63,0,0,0-1.56-1.19,1.69,1.69,0,0,0-1.56,1.19l-.78,1.94a1.63,1.63,0,0,0,1.13,2,1.65,1.65,0,0,0,2-1.13Z" transform="translate(0 -1.58)"/></g><g class="cls-8"><path class="cls-7" d="M1334.66,77.14a1.62,1.62,0,0,0,0-3.23A1.62,1.62,0,0,0,1334.66,77.14Z" transform="translate(0 -1.58)"/></g><g class="cls-8"><path class="cls-7" d="M1335.83,76.69a13.6,13.6,0,0,0,3.47-5.94l-3.11-.86a2.89,2.89,0,0,0,.74,2.68c1.42,1.52,3.7-.76,2.29-2.29l.09.45c.37-2-2.55-2.89-3.11-.86a10.23,10.23,0,0,1-2.64,4.52,1.62,1.62,0,0,0,2.29,2.29Z" transform="translate(0 -1.58)"/></g><g class="cls-8"><path class="cls-7" d="M1339.71,72.86l2.14,2.51a5.11,5.11,0,0,0,2.36,1.94,2.35,2.35,0,0,0,2.44-3.77c-1.36-1.58-3.63.71-2.29,2.29l.12.15-.41-.71.4-1h.86c-.59-.09-1.14-1.07-1.54-1.54L1342,70.6c-1.35-1.58-3.62.71-2.29,2.29Z" transform="translate(0 -1.58)"/></g><g class="cls-8"><path class="cls-7" d="M1347.36,82.63a2.71,2.71,0,0,0-.38,1.94,1.94,1.94,0,0,0,1.38,1.43,2,2,0,0,0,1.73-.37,1.81,1.81,0,0,0,.45-2.31,1.62,1.62,0,0,0-2.21-.58,1.66,1.66,0,0,0-.58,2.21V85l-.22-.81.7-1.19.28-.12.31,0q1.25.12,1.2,1.1,0,.65.07.38t0,0c-.12.24,0-.06.06-.09a1.62,1.62,0,1,0-2.79-1.63Z" transform="translate(0 -1.58)"/></g><g class="cls-8"><path class="cls-7" d="M1305.22,52.7l1.29-1.78a1.62,1.62,0,0,0-.58-2.21,1.66,1.66,0,0,0-2.21.58l-1.29,1.78a1.62,1.62,0,0,0,.58,2.21A1.66,1.66,0,0,0,1305.22,52.7Z" transform="translate(0 -1.58)"/></g><g class="cls-8"><path class="cls-7" d="M1313.23,44a3.17,3.17,0,0,0-2.1-.55c-2,.16-2.11,3.23,0,3.23h5.28c2.13,0,2-3,0-3.23a5.13,5.13,0,0,0-3,.58,1.64,1.64,0,0,0,.39,3,8.2,8.2,0,0,0,6.52-.65c1.83-1,.2-3.78-1.63-2.79a4.87,4.87,0,0,1-4,.34l.39,3a1.89,1.89,0,0,1,1.36-.14V43.46h-5.28v3.23l.47.11c1.74,1.14,3.37-1.66,1.63-2.79Z" transform="translate(0 -1.58)"/></g><g class="cls-8"><path class="cls-7" d="M1312,45.28a12.65,12.65,0,0,0-1.65,1.94,4.71,4.71,0,0,0-1.05,2.48,2.24,2.24,0,0,0,1.42,2.07,2.82,2.82,0,0,0,1.17.23c.33,0,1-.28,1.16-.25a1.67,1.67,0,0,0,2-1.13,1.63,1.63,0,0,0-1.13-2,4.32,4.32,0,0,0-1.7,0,.47.47,0,0,0-.3.08s0,0,0,0l.52,1.21.19-.36a8.85,8.85,0,0,1,1.63-2.1c1.5-1.45-.79-3.73-2.29-2.29Z" transform="translate(0 -1.58)"/></g><g class="cls-8"><path class="cls-7" d="M1308.22,49.35l-.65,1.49a1.64,1.64,0,0,0,1.82,2.37,19.57,19.57,0,0,0,8.92-4.31c1.6-1.34-.7-3.61-2.29-2.29a16.28,16.28,0,0,1-7.49,3.48l1.82,2.37L1311,51c.81-1.89-2-3.54-2.79-1.63Z" transform="translate(0 -1.58)"/></g><g class="cls-8"><path class="cls-7" d="M1312,49.74a2.8,2.8,0,0,0-.21,2.38,1.66,1.66,0,0,0,2,1.13,19.09,19.09,0,0,0,6.22-2.73c1.71-1.16.1-4-1.63-2.79a16.46,16.46,0,0,1-5.45,2.41l2,1.13-.11.1c.93-1.85-1.85-3.49-2.79-1.63Z" transform="translate(0 -1.58)"/></g><g class="cls-8"><path class="cls-7" d="M1316,49.4a2.7,2.7,0,0,0,.31,2.35,2.84,2.84,0,0,0,2.3,1.29,1.63,1.63,0,0,0,1.62-1.62,1.65,1.65,0,0,0-1.62-1.62c-.3,0,.39.1.12,0,0,0,.36.16.17.06s.31.24.08.05.18.25.08.1,0-.12,0,.13c0-.06-.06-.34,0,0h0s-.11.45,0,.12a1.62,1.62,0,1,0-3.11-.86Z" transform="translate(0 -1.58)"/></g><g class="cls-8"><path class="cls-7" d="M1314.18,51.77a3.14,3.14,0,0,0,2,3.95l.22.06a1.62,1.62,0,0,0,.86-3.11h-.15q-.12,0,.05,0c.23.2,0-.09-.07-.06s.3.26.06,0q-.08-.1,0,0h0l0-.09.08.19s-.09-.41,0-.08,0-.08,0-.08-.1.39,0,0a1.62,1.62,0,0,0-1.13-2,1.66,1.66,0,0,0-2,1.13Z" transform="translate(0 -1.58)"/></g><g class="cls-8"><path class="cls-7" d="M1293.49,78.61c-.08-1.79-.79-5.67-3.41-5-1.23.33-1.62,1.6-2.08,2.64a9.12,9.12,0,0,0-1.1,3.67c0,2.11,1.86,4.14,4.08,3.55,2.62-.7,2.69-3.69,2.25-5.82l-3,1.25,1.49,1.94a1.67,1.67,0,0,0,2.21.58,1.62,1.62,0,0,0,.58-2.21l-1.49-1.94a1.62,1.62,0,0,0-3,1.25,3,3,0,0,1,.06,1.76c-.1.24-.05-.35,0-.58a5.43,5.43,0,0,1,.65-1.8l.4-.9q.5-.74-.12-.28l-1.25-.16q-.25-.34,0,.06a3,3,0,0,1,.24.65,5.54,5.54,0,0,1,.21,1.35c.1,2.07,3.33,2.08,3.23,0Z" transform="translate(0 -1.58)"/></g><path class="cls-7" d="M1296.62,100.38a1.62,1.62,0,0,0,0-3.23A1.62,1.62,0,0,0,1296.62,100.38Z" transform="translate(0 -1.58)"/><path class="cls-7" d="M1289.15,41.86l-1.2,1,2.29,2.29,1.18-1.21c1.22-1.29-.43-3.66-1.94-2.54l-2.71,2a1.62,1.62,0,0,0,1.25,3,5.41,5.41,0,0,0,4.41-4.27,1.63,1.63,0,0,0-2.42-1.84,8.52,8.52,0,0,0-3.92,3.56c-1,1.69,1.18,3,2.54,1.94a9.47,9.47,0,0,0,2.13-2.34,1.63,1.63,0,0,0-2.21-2.21,42.41,42.41,0,0,0-7.32,6.24c-1.42,1.52.83,3.78,2.29,2.29a20,20,0,0,1,4.86-3.68l-2.21-2.21a6.11,6.11,0,0,1-1.62,2.13c-1.4,1.39.37,3.23,1.94,2.54a7.52,7.52,0,0,0,3.29-2.73c.95-1.29-.92-3.11-2.21-2.21a25,25,0,0,0-3.31,2.77l2.54,1.94.72-1.14a1.63,1.63,0,0,0-1.82-2.37A16.67,16.67,0,0,0,1283,46c-1.69,1-.47,3.23,1.25,3,3.32-.51,5.82-2.51,8.46-4.4a54.72,54.72,0,0,1,9.91-5.49c1.63-.7.58-2.88-.81-3-5.74-.52-10.62,2.38-15.24,5.44-1.73,1.14-.11,3.94,1.63,2.79,4.15-2.75,8.44-5.47,13.61-5l-.79-3a54.64,54.64,0,0,0-9,4.87c-2.75,1.85-5.17,4.16-8.58,4.68l1.25,3a8,8,0,0,1,1.94-.91l-1.82-2.37-.7,1.17a1.62,1.62,0,0,0,2.54,1.94,19.63,19.63,0,0,1,2.66-2.26L1287,44.19a4,4,0,0,1-2.13,1.57l1.94,2.54a12.32,12.32,0,0,0,2.13-2.78,1.63,1.63,0,0,0-2.18-2.23,22.61,22.61,0,0,0-5.52,4.19l2.29,2.29a38.48,38.48,0,0,1,6.67-5.73L1288,41.82a5.1,5.1,0,0,1-1.62,1.69l2.54,1.94a5.64,5.64,0,0,1,2.75-2.4l-2.37-1.82a2.16,2.16,0,0,1-2.16,2l1.25,3,2.71-2-1.94-2.54L1288,42.9a1.62,1.62,0,0,0,2.29,2.29l1.16-1.05c1.57-1.37-.72-3.64-2.29-2.29Z" transform="translate(0 -1.58)"/></g></svg>